solid OpenSCAD_Model
  facet normal 0 0 -1
    outer loop
      vertex -12 0 -7.5
      vertex -11.7378 2.49494 -7.5
      vertex -11.7378 -2.49494 -7.5
    endloop
  endfacet
  facet normal 0 0 -1
    outer loop
      vertex -11.7378 -2.49494 -7.5
      vertex -11.7378 2.49494 -7.5
      vertex -10.9625 4.88084 -7.5
    endloop
  endfacet
  facet normal 0 0 -1
    outer loop
      vertex -11.7378 -2.49494 -7.5
      vertex -10.9625 4.88084 -7.5
      vertex -9.7082 7.05342 -7.5
    endloop
  endfacet
  facet normal 0 0 -1
    outer loop
      vertex -11.7378 -2.49494 -7.5
      vertex -9.7082 7.05342 -7.5
      vertex -8.02957 8.91774 -7.5
    endloop
  endfacet
  facet normal 0 0 -1
    outer loop
      vertex -11.7378 -2.49494 -7.5
      vertex -8.02957 8.91774 -7.5
      vertex -6 10.3923 -7.5
    endloop
  endfacet
  facet normal 0 0 -1
    outer loop
      vertex -11.7378 -2.49494 -7.5
      vertex -6 10.3923 -7.5
      vertex -3.7082 11.4127 -7.5
    endloop
  endfacet
  facet normal 0 0 -1
    outer loop
      vertex -11.7378 -2.49494 -7.5
      vertex -3.7082 11.4127 -7.5
      vertex -1.25434 11.9343 -7.5
    endloop
  endfacet
  facet normal 0 0 -1
    outer loop
      vertex -3.5 8.75 -7.5
      vertex -1.25434 11.9343 -7.5
      vertex 1.25434 11.9343 -7.5
    endloop
  endfacet
  facet normal 0 0 -1
    outer loop
      vertex -2.5 0 -7.5
      vertex -11.7378 -2.49494 -7.5
      vertex -1.76777 1.76777 -7.5
    endloop
  endfacet
  facet normal 0 0 -1
    outer loop
      vertex 3.5 8.75 -7.5
      vertex 3.7082 11.4127 -7.5
      vertex 6 10.3923 -7.5
    endloop
  endfacet
  facet normal 0 0 -1
    outer loop
      vertex 3.5 5.25 -7.5
      vertex 8.02957 8.91774 -7.5
      vertex 9.7082 7.05342 -7.5
    endloop
  endfacet
  facet normal 0 0 -1
    outer loop
      vertex 0 2.5 -7.5
      vertex 9.7082 7.05342 -7.5
      vertex 10.9625 4.88084 -7.5
    endloop
  endfacet
  facet normal 0 0 -1
    outer loop
      vertex 2.5 0 -7.5
      vertex 11.7378 2.49494 -7.5
      vertex 12 0 -7.5
    endloop
  endfacet
  facet normal 0 0 -1
    outer loop
      vertex 1.76777 -1.76777 -7.5
      vertex 12 0 -7.5
      vertex 11.7378 -2.49494 -7.5
    endloop
  endfacet
  facet normal 0 0 -1
    outer loop
      vertex 0 -2.5 -7.5
      vertex 11.7378 -2.49494 -7.5
      vertex 10.9625 -4.88084 -7.5
    endloop
  endfacet
  facet normal 0 0 -1
    outer loop
      vertex 3.5 -5.25 -7.5
      vertex 10.9625 -4.88084 -7.5
      vertex 9.7082 -7.05342 -7.5
    endloop
  endfacet
  facet normal 0 0 -1
    outer loop
      vertex 3.5 -8.75 -7.5
      vertex 8.02957 -8.91774 -7.5
      vertex 6 -10.3923 -7.5
    endloop
  endfacet
  facet normal 0 0 -1
    outer loop
      vertex 3.5 -8.75 -7.5
      vertex 1.25434 -11.9343 -7.5
      vertex -3.5 -8.75 -7.5
    endloop
  endfacet
  facet normal 0 0 -1
    outer loop
      vertex 3.5 -8.75 -7.5
      vertex 3.7082 -11.4127 -7.5
      vertex 1.25434 -11.9343 -7.5
    endloop
  endfacet
  facet normal 0 0 -1
    outer loop
      vertex -3.5 -8.75 -7.5
      vertex 1.25434 -11.9343 -7.5
      vertex -1.25434 -11.9343 -7.5
    endloop
  endfacet
  facet normal 0 0 -1
    outer loop
      vertex -11.7378 -2.49494 -7.5
      vertex -1.25434 -11.9343 -7.5
      vertex -3.7082 -11.4127 -7.5
    endloop
  endfacet
  facet normal 0 0 -1
    outer loop
      vertex -11.7378 -2.49494 -7.5
      vertex -3.7082 -11.4127 -7.5
      vertex -6 -10.3923 -7.5
    endloop
  endfacet
  facet normal 0 0 -1
    outer loop
      vertex -11.7378 -2.49494 -7.5
      vertex -6 -10.3923 -7.5
      vertex -8.02957 -8.91774 -7.5
    endloop
  endfacet
  facet normal 0 0 -1
    outer loop
      vertex -11.7378 -2.49494 -7.5
      vertex -8.02957 -8.91774 -7.5
      vertex -9.7082 -7.05342 -7.5
    endloop
  endfacet
  facet normal 0 0 -1
    outer loop
      vertex -11.7378 -2.49494 -7.5
      vertex -9.7082 -7.05342 -7.5
      vertex -10.9625 -4.88084 -7.5
    endloop
  endfacet
  facet normal 0 0 -1
    outer loop
      vertex -3.5 -8.75 -7.5
      vertex -11.7378 -2.49494 -7.5
      vertex -3.5 -5.25 -7.5
    endloop
  endfacet
  facet normal 0 0 -1
    outer loop
      vertex 3.5 -8.75 -7.5
      vertex 6 -10.3923 -7.5
      vertex 3.7082 -11.4127 -7.5
    endloop
  endfacet
  facet normal 0 0 -1
    outer loop
      vertex -11.7378 -2.49494 -7.5
      vertex -3.5 -8.75 -7.5
      vertex -1.25434 -11.9343 -7.5
    endloop
  endfacet
  facet normal 0 0 -1
    outer loop
      vertex -3.5 8.75 -7.5
      vertex 3.7082 11.4127 -7.5
      vertex 3.5 8.75 -7.5
    endloop
  endfacet
  facet normal 0 0 -1
    outer loop
      vertex 3.5 -5.25 -7.5
      vertex 8.02957 -8.91774 -7.5
      vertex 3.5 -8.75 -7.5
    endloop
  endfacet
  facet normal 0 0 -1
    outer loop
      vertex -11.7378 -2.49494 -7.5
      vertex 10.9625 -4.88084 -7.5
      vertex 3.5 -5.25 -7.5
    endloop
  endfacet
  facet normal 0 0 -1
    outer loop
      vertex -11.7378 -2.49494 -7.5
      vertex -1.25434 11.9343 -7.5
      vertex -3.5 8.75 -7.5
    endloop
  endfacet
  facet normal 0 0 -1
    outer loop
      vertex 3.5 5.25 -7.5
      vertex -11.7378 -2.49494 -7.5
      vertex -3.5 5.25 -7.5
    endloop
  endfacet
  facet normal 0 0 -1
    outer loop
      vertex 3.5 8.75 -7.5
      vertex 6 10.3923 -7.5
      vertex 8.02957 8.91774 -7.5
    endloop
  endfacet
  facet normal 0 0 -1
    outer loop
      vertex 3.5 8.75 -7.5
      vertex 8.02957 8.91774 -7.5
      vertex 3.5 5.25 -7.5
    endloop
  endfacet
  facet normal 0 0 -1
    outer loop
      vertex -11.7378 -2.49494 -7.5
      vertex 3.5 5.25 -7.5
      vertex 9.7082 7.05342 -7.5
    endloop
  endfacet
  facet normal 0 0 -1
    outer loop
      vertex 0 2.5 -7.5
      vertex 10.9625 4.88084 -7.5
      vertex 1.76777 1.76777 -7.5
    endloop
  endfacet
  facet normal 0 0 -1
    outer loop
      vertex 0 -2.5 -7.5
      vertex -11.7378 -2.49494 -7.5
      vertex -1.76777 -1.76777 -7.5
    endloop
  endfacet
  facet normal 0 0 -1
    outer loop
      vertex 1.76777 -1.76777 -7.5
      vertex 11.7378 -2.49494 -7.5
      vertex 0 -2.5 -7.5
    endloop
  endfacet
  facet normal 0 0 -1
    outer loop
      vertex -11.7378 -2.49494 -7.5
      vertex 0 -2.5 -7.5
      vertex 10.9625 -4.88084 -7.5
    endloop
  endfacet
  facet normal 0 0 -1
    outer loop
      vertex 1.76777 1.76777 -7.5
      vertex 11.7378 2.49494 -7.5
      vertex 2.5 0 -7.5
    endloop
  endfacet
  facet normal 0 0 -1
    outer loop
      vertex 2.5 0 -7.5
      vertex 12 0 -7.5
      vertex 1.76777 -1.76777 -7.5
    endloop
  endfacet
  facet normal 0 0 -1
    outer loop
      vertex -1.76777 -1.76777 -7.5
      vertex -11.7378 -2.49494 -7.5
      vertex -2.5 0 -7.5
    endloop
  endfacet
  facet normal 0 0 -1
    outer loop
      vertex -1.76777 1.76777 -7.5
      vertex 9.7082 7.05342 -7.5
      vertex 0 2.5 -7.5
    endloop
  endfacet
  facet normal 0 0 -1
    outer loop
      vertex 1.76777 1.76777 -7.5
      vertex 10.9625 4.88084 -7.5
      vertex 11.7378 2.49494 -7.5
    endloop
  endfacet
  facet normal 0 0 -1
    outer loop
      vertex -11.7378 -2.49494 -7.5
      vertex 9.7082 7.05342 -7.5
      vertex -1.76777 1.76777 -7.5
    endloop
  endfacet
  facet normal 0 0 -1
    outer loop
      vertex -3.5 -5.25 -7.5
      vertex -11.7378 -2.49494 -7.5
      vertex 3.5 -5.25 -7.5
    endloop
  endfacet
  facet normal 0 0 -1
    outer loop
      vertex 3.5 -5.25 -7.5
      vertex 9.7082 -7.05342 -7.5
      vertex 8.02957 -8.91774 -7.5
    endloop
  endfacet
  facet normal 0 0 -1
    outer loop
      vertex -3.5 8.75 -7.5
      vertex 1.25434 11.9343 -7.5
      vertex 3.7082 11.4127 -7.5
    endloop
  endfacet
  facet normal 0 0 -1
    outer loop
      vertex -3.5 5.25 -7.5
      vertex -11.7378 -2.49494 -7.5
      vertex -3.5 8.75 -7.5
    endloop
  endfacet
  facet normal -0.994522 0.104529 0
    outer loop
      vertex -12 0 -7.5
      vertex -12 0 1.2
      vertex -11.7378 2.49494 -7.5
    endloop
  endfacet
  facet normal -0.994522 0.104529 0
    outer loop
      vertex -11.7378 2.49494 -7.5
      vertex -12 0 1.2
      vertex -11.8362 1.55885 2.1
    endloop
  endfacet
  facet normal -0.994522 0.104529 0
    outer loop
      vertex -11.7378 2.49494 -7.5
      vertex -11.8362 1.55885 2.1
      vertex -11.8362 1.55885 3.9
    endloop
  endfacet
  facet normal -0.994522 0.104529 0
    outer loop
      vertex -11.8362 1.55885 3.9
      vertex -12 0 4.8
      vertex -12 0 7.5
    endloop
  endfacet
  facet normal -0.994522 0.104529 0
    outer loop
      vertex -11.8362 1.55885 3.9
      vertex -12 0 7.5
      vertex -11.7378 2.49494 7.5
    endloop
  endfacet
  facet normal -0.994522 0.104529 0
    outer loop
      vertex -11.8362 1.55885 3.9
      vertex -11.7378 2.49494 7.5
      vertex -11.7378 2.49494 -7.5
    endloop
  endfacet
  facet normal -0.994522 -0.104529 0
    outer loop
      vertex -12 0 -7.5
      vertex -11.7378 -2.49494 -7.5
      vertex -12 0 1.2
    endloop
  endfacet
  facet normal -0.994522 -0.104529 0
    outer loop
      vertex -11.8362 -1.55885 3.9
      vertex -11.7378 -2.49494 -7.5
      vertex -11.7378 -2.49494 7.5
    endloop
  endfacet
  facet normal -0.994522 -0.104529 0
    outer loop
      vertex -12 0 4.8
      vertex -11.7378 -2.49494 7.5
      vertex -12 0 7.5
    endloop
  endfacet
  facet normal -0.994522 -0.104529 0
    outer loop
      vertex -11.8362 -1.55885 2.1
      vertex -11.7378 -2.49494 -7.5
      vertex -11.8362 -1.55885 3.9
    endloop
  endfacet
  facet normal -0.994522 -0.104529 0
    outer loop
      vertex -12 0 1.2
      vertex -11.7378 -2.49494 -7.5
      vertex -11.8362 -1.55885 2.1
    endloop
  endfacet
  facet normal -0.994522 -0.104529 0
    outer loop
      vertex -11.8362 -1.55885 3.9
      vertex -11.7378 -2.49494 7.5
      vertex -12 0 4.8
    endloop
  endfacet
  facet normal -0.951057 -0.309017 0
    outer loop
      vertex -11.7378 -2.49494 -7.5
      vertex -10.9625 -4.88084 -7.5
      vertex -11.7378 -2.49494 7.5
    endloop
  endfacet
  facet normal -0.951057 -0.309017 0
    outer loop
      vertex -11.7378 -2.49494 7.5
      vertex -10.9625 -4.88084 -7.5
      vertex -10.9625 -4.88084 7.5
    endloop
  endfacet
  facet normal -0.866025 -0.5 0
    outer loop
      vertex -10.9625 -4.88084 -7.5
      vertex -9.7082 -7.05342 -7.5
      vertex -10.9625 -4.88084 7.5
    endloop
  endfacet
  facet normal -0.866025 -0.5 0
    outer loop
      vertex -10.9625 -4.88084 7.5
      vertex -9.7082 -7.05342 -7.5
      vertex -9.7082 -7.05342 7.5
    endloop
  endfacet
  facet normal -0.743145 -0.669131 0
    outer loop
      vertex -9.7082 -7.05342 -7.5
      vertex -8.02957 -8.91774 -7.5
      vertex -9.7082 -7.05342 7.5
    endloop
  endfacet
  facet normal -0.743145 -0.669131 0
    outer loop
      vertex -9.7082 -7.05342 7.5
      vertex -8.02957 -8.91774 -7.5
      vertex -8.02957 -8.91774 7.5
    endloop
  endfacet
  facet normal -0.587785 -0.809017 0
    outer loop
      vertex -8.02957 -8.91774 7.5
      vertex -8.02957 -8.91774 -7.5
      vertex -6 -10.3923 -7.5
    endloop
  endfacet
  facet normal -0.587785 -0.809017 0
    outer loop
      vertex -6 -10.3923 7.5
      vertex -8.02957 -8.91774 7.5
      vertex -6 -10.3923 -7.5
    endloop
  endfacet
  facet normal -0.406737 -0.913546 0
    outer loop
      vertex -6 -10.3923 7.5
      vertex -6 -10.3923 -7.5
      vertex -3.7082 -11.4127 -7.5
    endloop
  endfacet
  facet normal -0.406737 -0.913546 0
    outer loop
      vertex -3.7082 -11.4127 7.5
      vertex -6 -10.3923 7.5
      vertex -3.7082 -11.4127 -7.5
    endloop
  endfacet
  facet normal -0.207912 -0.978148 0
    outer loop
      vertex -3.7082 -11.4127 7.5
      vertex -3.7082 -11.4127 -7.5
      vertex -1.25434 -11.9343 -7.5
    endloop
  endfacet
  facet normal -0.207912 -0.978148 0
    outer loop
      vertex -1.55885 -11.8695 -3.9
      vertex -3.7082 -11.4127 7.5
      vertex -1.25434 -11.9343 -7.5
    endloop
  endfacet
  facet normal -0.207912 -0.978148 0
    outer loop
      vertex -1.25434 -11.9343 -4.07581
      vertex -1.55885 -11.8695 -3.9
      vertex -1.25434 -11.9343 -7.5
    endloop
  endfacet
  facet normal -0.207912 -0.978148 0
    outer loop
      vertex -1.25434 -11.9343 -1.92419
      vertex -3.7082 -11.4127 7.5
      vertex -1.55885 -11.8695 -2.1
    endloop
  endfacet
  facet normal -0.207912 -0.978148 0
    outer loop
      vertex -1.25434 -11.9343 7.5
      vertex -3.7082 -11.4127 7.5
      vertex -1.25434 -11.9343 -1.92419
    endloop
  endfacet
  facet normal -0.207912 -0.978148 0
    outer loop
      vertex -1.55885 -11.8695 -3.9
      vertex -1.55885 -11.8695 -2.1
      vertex -3.7082 -11.4127 7.5
    endloop
  endfacet
  facet normal 0 -1 0
    outer loop
      vertex -1.25434 -11.9343 -4.07581
      vertex -1.25434 -11.9343 -7.5
      vertex 1.25434 -11.9343 -7.5
    endloop
  endfacet
  facet normal 0 -1 0
    outer loop
      vertex -2.64994e-15 -11.9343 -4.8
      vertex -1.25434 -11.9343 -4.07581
      vertex 1.25434 -11.9343 -7.5
    endloop
  endfacet
  facet normal 0 -1 0
    outer loop
      vertex 1.25434 -11.9343 -4.07581
      vertex -2.64994e-15 -11.9343 -4.8
      vertex 1.25434 -11.9343 -7.5
    endloop
  endfacet
  facet normal 0.207912 -0.978148 0
    outer loop
      vertex 1.25434 -11.9343 -4.07581
      vertex 1.25434 -11.9343 -7.5
      vertex 3.7082 -11.4127 -7.5
    endloop
  endfacet
  facet normal 0.207912 -0.978148 0
    outer loop
      vertex 1.55885 -11.8695 -3.9
      vertex 1.25434 -11.9343 -4.07581
      vertex 3.7082 -11.4127 -7.5
    endloop
  endfacet
  facet normal 0.207912 -0.978148 0
    outer loop
      vertex 1.25434 -11.9343 7.5
      vertex 1.25434 -11.9343 -1.92419
      vertex 3.7082 -11.4127 7.5
    endloop
  endfacet
  facet normal 0.207912 -0.978148 0
    outer loop
      vertex 1.25434 -11.9343 -1.92419
      vertex 1.55885 -11.8695 -2.1
      vertex 3.7082 -11.4127 7.5
    endloop
  endfacet
  facet normal 0.207912 -0.978148 0
    outer loop
      vertex 3.7082 -11.4127 7.5
      vertex 1.55885 -11.8695 -3.9
      vertex 3.7082 -11.4127 -7.5
    endloop
  endfacet
  facet normal 0.207912 -0.978148 0
    outer loop
      vertex 1.55885 -11.8695 -2.1
      vertex 1.55885 -11.8695 -3.9
      vertex 3.7082 -11.4127 7.5
    endloop
  endfacet
  facet normal 0.406737 -0.913546 0
    outer loop
      vertex 3.7082 -11.4127 7.5
      vertex 3.7082 -11.4127 -7.5
      vertex 6 -10.3923 -7.5
    endloop
  endfacet
  facet normal 0.406737 -0.913546 0
    outer loop
      vertex 6 -10.3923 7.5
      vertex 3.7082 -11.4127 7.5
      vertex 6 -10.3923 -7.5
    endloop
  endfacet
  facet normal 0.587785 -0.809017 0
    outer loop
      vertex 6 -10.3923 7.5
      vertex 6 -10.3923 -7.5
      vertex 8.02957 -8.91774 -7.5
    endloop
  endfacet
  facet normal 0.587785 -0.809017 0
    outer loop
      vertex 8.02957 -8.91774 7.5
      vertex 6 -10.3923 7.5
      vertex 8.02957 -8.91774 -7.5
    endloop
  endfacet
  facet normal 0.743145 -0.669131 0
    outer loop
      vertex 8.02957 -8.91774 7.5
      vertex 8.02957 -8.91774 -7.5
      vertex 9.7082 -7.05342 -7.5
    endloop
  endfacet
  facet normal 0.743145 -0.669131 0
    outer loop
      vertex 9.7082 -7.05342 7.5
      vertex 8.02957 -8.91774 7.5
      vertex 9.7082 -7.05342 -7.5
    endloop
  endfacet
  facet normal 0.866025 -0.5 0
    outer loop
      vertex 9.7082 -7.05342 7.5
      vertex 9.7082 -7.05342 -7.5
      vertex 10.9625 -4.88084 -7.5
    endloop
  endfacet
  facet normal 0.866025 -0.5 0
    outer loop
      vertex 10.9625 -4.88084 7.5
      vertex 9.7082 -7.05342 7.5
      vertex 10.9625 -4.88084 -7.5
    endloop
  endfacet
  facet normal 0.951057 -0.309017 0
    outer loop
      vertex 10.9625 -4.88084 7.5
      vertex 10.9625 -4.88084 -7.5
      vertex 11.7378 -2.49494 -7.5
    endloop
  endfacet
  facet normal 0.951057 -0.309017 0
    outer loop
      vertex 11.7378 -2.49494 7.5
      vertex 10.9625 -4.88084 7.5
      vertex 11.7378 -2.49494 -7.5
    endloop
  endfacet
  facet normal 0.994522 -0.104529 0
    outer loop
      vertex 11.7378 -2.49494 7.5
      vertex 11.7378 -2.49494 -7.5
      vertex 12 0 -7.5
    endloop
  endfacet
  facet normal 0.994522 -0.104529 0
    outer loop
      vertex 11.8362 -1.55885 2.1
      vertex 11.7378 -2.49494 7.5
      vertex 12 0 -7.5
    endloop
  endfacet
  facet normal 0.994522 -0.104529 0
    outer loop
      vertex 12 0 1.2
      vertex 11.8362 -1.55885 2.1
      vertex 12 0 -7.5
    endloop
  endfacet
  facet normal 0.994522 -0.104529 0
    outer loop
      vertex 11.8362 -1.55885 3.9
      vertex 11.7378 -2.49494 7.5
      vertex 11.8362 -1.55885 2.1
    endloop
  endfacet
  facet normal 0.994522 -0.104529 0
    outer loop
      vertex 12 0 7.5
      vertex 11.7378 -2.49494 7.5
      vertex 12 0 4.8
    endloop
  endfacet
  facet normal 0.994522 -0.104529 0
    outer loop
      vertex 11.8362 -1.55885 3.9
      vertex 12 0 4.8
      vertex 11.7378 -2.49494 7.5
    endloop
  endfacet
  facet normal 0.994522 0.104529 0
    outer loop
      vertex 12 0 -7.5
      vertex 11.7378 2.49494 -7.5
      vertex 11.7378 2.49494 7.5
    endloop
  endfacet
  facet normal 0.994522 0.104529 0
    outer loop
      vertex 11.8362 1.55885 2.1
      vertex 12 0 -7.5
      vertex 11.7378 2.49494 7.5
    endloop
  endfacet
  facet normal 0.994522 0.104529 0
    outer loop
      vertex 12 0 7.5
      vertex 12 0 4.8
      vertex 11.7378 2.49494 7.5
    endloop
  endfacet
  facet normal 0.994522 0.104529 0
    outer loop
      vertex 12 0 4.8
      vertex 11.8362 1.55885 3.9
      vertex 11.7378 2.49494 7.5
    endloop
  endfacet
  facet normal 0.994522 0.104529 0
    outer loop
      vertex 11.8362 1.55885 3.9
      vertex 11.8362 1.55885 2.1
      vertex 11.7378 2.49494 7.5
    endloop
  endfacet
  facet normal 0.994522 0.104529 0
    outer loop
      vertex 11.8362 1.55885 2.1
      vertex 12 0 1.2
      vertex 12 0 -7.5
    endloop
  endfacet
  facet normal 0.951057 0.309017 0
    outer loop
      vertex 11.7378 2.49494 -7.5
      vertex 10.9625 4.88084 -7.5
      vertex 10.9625 4.88084 7.5
    endloop
  endfacet
  facet normal 0.951057 0.309017 0
    outer loop
      vertex 11.7378 2.49494 7.5
      vertex 11.7378 2.49494 -7.5
      vertex 10.9625 4.88084 7.5
    endloop
  endfacet
  facet normal 0.866025 0.5 0
    outer loop
      vertex 10.9625 4.88084 -7.5
      vertex 9.7082 7.05342 -7.5
      vertex 9.7082 7.05342 7.5
    endloop
  endfacet
  facet normal 0.866025 0.5 0
    outer loop
      vertex 10.9625 4.88084 7.5
      vertex 10.9625 4.88084 -7.5
      vertex 9.7082 7.05342 7.5
    endloop
  endfacet
  facet normal 0.743145 0.669131 0
    outer loop
      vertex 9.7082 7.05342 -7.5
      vertex 8.02957 8.91774 -7.5
      vertex 8.02957 8.91774 7.5
    endloop
  endfacet
  facet normal 0.743145 0.669131 0
    outer loop
      vertex 9.7082 7.05342 7.5
      vertex 9.7082 7.05342 -7.5
      vertex 8.02957 8.91774 7.5
    endloop
  endfacet
  facet normal 0.587785 0.809017 0
    outer loop
      vertex 6 10.3923 -7.5
      vertex 6 10.3923 7.5
      vertex 8.02957 8.91774 -7.5
    endloop
  endfacet
  facet normal 0.587785 0.809017 0
    outer loop
      vertex 8.02957 8.91774 -7.5
      vertex 6 10.3923 7.5
      vertex 8.02957 8.91774 7.5
    endloop
  endfacet
  facet normal 0.406737 0.913546 0
    outer loop
      vertex 3.7082 11.4127 -7.5
      vertex 3.7082 11.4127 7.5
      vertex 6 10.3923 -7.5
    endloop
  endfacet
  facet normal 0.406737 0.913546 0
    outer loop
      vertex 6 10.3923 -7.5
      vertex 3.7082 11.4127 7.5
      vertex 6 10.3923 7.5
    endloop
  endfacet
  facet normal 0.207912 0.978148 0
    outer loop
      vertex 1.25434 11.9343 -7.5
      vertex 1.25434 11.9343 -4.07581
      vertex 3.7082 11.4127 -7.5
    endloop
  endfacet
  facet normal 0.207912 0.978148 0
    outer loop
      vertex 3.7082 11.4127 -7.5
      vertex 1.25434 11.9343 -4.07581
      vertex 1.55885 11.8695 -3.9
    endloop
  endfacet
  facet normal 0.207912 0.978148 0
    outer loop
      vertex 3.7082 11.4127 -7.5
      vertex 1.55885 11.8695 -3.9
      vertex 1.55885 11.8695 -2.1
    endloop
  endfacet
  facet normal 0.207912 0.978148 0
    outer loop
      vertex 1.55885 11.8695 -2.1
      vertex 1.25434 11.9343 -1.92419
      vertex 1.25434 11.9343 7.5
    endloop
  endfacet
  facet normal 0.207912 0.978148 0
    outer loop
      vertex 1.55885 11.8695 -2.1
      vertex 1.25434 11.9343 7.5
      vertex 3.7082 11.4127 -7.5
    endloop
  endfacet
  facet normal 0.207912 0.978148 0
    outer loop
      vertex 3.7082 11.4127 -7.5
      vertex 1.25434 11.9343 7.5
      vertex 3.7082 11.4127 7.5
    endloop
  endfacet
  facet normal 0 1 0
    outer loop
      vertex -1.25434 11.9343 -7.5
      vertex -1.25434 11.9343 -4.07581
      vertex 1.25434 11.9343 -7.5
    endloop
  endfacet
  facet normal 0 1 0
    outer loop
      vertex 1.25434 11.9343 -7.5
      vertex -1.25434 11.9343 -4.07581
      vertex 2.64994e-15 11.9343 -4.8
    endloop
  endfacet
  facet normal 0 1 0
    outer loop
      vertex 1.25434 11.9343 -7.5
      vertex 2.64994e-15 11.9343 -4.8
      vertex 1.25434 11.9343 -4.07581
    endloop
  endfacet
  facet normal -0.207912 0.978148 0
    outer loop
      vertex -3.7082 11.4127 -7.5
      vertex -3.7082 11.4127 7.5
      vertex -1.25434 11.9343 -7.5
    endloop
  endfacet
  facet normal -0.207912 0.978148 0
    outer loop
      vertex -1.25434 11.9343 -1.92419
      vertex -3.7082 11.4127 7.5
      vertex -1.25434 11.9343 7.5
    endloop
  endfacet
  facet normal -0.207912 0.978148 0
    outer loop
      vertex -1.55885 11.8695 -2.1
      vertex -3.7082 11.4127 7.5
      vertex -1.25434 11.9343 -1.92419
    endloop
  endfacet
  facet normal -0.207912 0.978148 0
    outer loop
      vertex -1.55885 11.8695 -3.9
      vertex -3.7082 11.4127 7.5
      vertex -1.55885 11.8695 -2.1
    endloop
  endfacet
  facet normal -0.207912 0.978148 0
    outer loop
      vertex -1.25434 11.9343 -7.5
      vertex -3.7082 11.4127 7.5
      vertex -1.55885 11.8695 -3.9
    endloop
  endfacet
  facet normal -0.207912 0.978148 0
    outer loop
      vertex -1.25434 11.9343 -4.07581
      vertex -1.25434 11.9343 -7.5
      vertex -1.55885 11.8695 -3.9
    endloop
  endfacet
  facet normal -0.406737 0.913546 0
    outer loop
      vertex -6 10.3923 -7.5
      vertex -6 10.3923 7.5
      vertex -3.7082 11.4127 -7.5
    endloop
  endfacet
  facet normal -0.406737 0.913546 0
    outer loop
      vertex -3.7082 11.4127 -7.5
      vertex -6 10.3923 7.5
      vertex -3.7082 11.4127 7.5
    endloop
  endfacet
  facet normal -0.587785 0.809017 0
    outer loop
      vertex -8.02957 8.91774 -7.5
      vertex -8.02957 8.91774 7.5
      vertex -6 10.3923 -7.5
    endloop
  endfacet
  facet normal -0.587785 0.809017 0
    outer loop
      vertex -6 10.3923 -7.5
      vertex -8.02957 8.91774 7.5
      vertex -6 10.3923 7.5
    endloop
  endfacet
  facet normal -0.743145 0.669131 0
    outer loop
      vertex -9.7082 7.05342 -7.5
      vertex -9.7082 7.05342 7.5
      vertex -8.02957 8.91774 -7.5
    endloop
  endfacet
  facet normal -0.743145 0.669131 0
    outer loop
      vertex -8.02957 8.91774 -7.5
      vertex -9.7082 7.05342 7.5
      vertex -8.02957 8.91774 7.5
    endloop
  endfacet
  facet normal -0.866025 0.5 0
    outer loop
      vertex -10.9625 4.88084 -7.5
      vertex -10.9625 4.88084 7.5
      vertex -9.7082 7.05342 -7.5
    endloop
  endfacet
  facet normal -0.866025 0.5 0
    outer loop
      vertex -9.7082 7.05342 -7.5
      vertex -10.9625 4.88084 7.5
      vertex -9.7082 7.05342 7.5
    endloop
  endfacet
  facet normal -0.951057 0.309017 0
    outer loop
      vertex -11.7378 2.49494 -7.5
      vertex -11.7378 2.49494 7.5
      vertex -10.9625 4.88084 -7.5
    endloop
  endfacet
  facet normal -0.951057 0.309017 0
    outer loop
      vertex -10.9625 4.88084 -7.5
      vertex -11.7378 2.49494 7.5
      vertex -10.9625 4.88084 7.5
    endloop
  endfacet
  facet normal 1 -2.22045e-16 0
    outer loop
      vertex -3.5 -5.25 -7.5
      vertex -3.5 -5.25 2
      vertex -3.5 -8.75 2
    endloop
  endfacet
  facet normal 1 -2.22045e-16 0
    outer loop
      vertex -3.5 -8.75 -7.5
      vertex -3.5 -5.25 -7.5
      vertex -3.5 -8.75 2
    endloop
  endfacet
  facet normal -2.22045e-16 -1 0
    outer loop
      vertex -1.16573e-15 -5.25 -1.2
      vertex 3.5 -5.25 2
      vertex -3.5 -5.25 2
    endloop
  endfacet
  facet normal -2.22045e-16 -1 0
    outer loop
      vertex -3.5 -5.25 -7.5
      vertex -1.55885 -5.25 -2.1
      vertex -3.5 -5.25 2
    endloop
  endfacet
  facet normal -2.22045e-16 -1 0
    outer loop
      vertex 1.55885 -5.25 -2.1
      vertex 3.5 -5.25 2
      vertex -1.16573e-15 -5.25 -1.2
    endloop
  endfacet
  facet normal -2.22045e-16 -1 0
    outer loop
      vertex 3.5 -5.25 -7.5
      vertex 3.5 -5.25 2
      vertex 1.55885 -5.25 -2.1
    endloop
  endfacet
  facet normal -2.22045e-16 -1 0
    outer loop
      vertex 3.5 -5.25 -7.5
      vertex 1.55885 -5.25 -2.1
      vertex 1.55885 -5.25 -3.9
    endloop
  endfacet
  facet normal -2.22045e-16 -1 0
    outer loop
      vertex -3.5 -5.25 -7.5
      vertex 3.5 -5.25 -7.5
      vertex -1.16573e-15 -5.25 -4.8
    endloop
  endfacet
  facet normal -2.22045e-16 -1 0
    outer loop
      vertex -3.5 -5.25 -7.5
      vertex -1.55885 -5.25 -3.9
      vertex -1.55885 -5.25 -2.1
    endloop
  endfacet
  facet normal -2.22045e-16 -1 0
    outer loop
      vertex -3.5 -5.25 -7.5
      vertex -1.16573e-15 -5.25 -4.8
      vertex -1.55885 -5.25 -3.9
    endloop
  endfacet
  facet normal -2.22045e-16 -1 0
    outer loop
      vertex -1.55885 -5.25 -2.1
      vertex -1.16573e-15 -5.25 -1.2
      vertex -3.5 -5.25 2
    endloop
  endfacet
  facet normal -2.22045e-16 -1 0
    outer loop
      vertex 1.55885 -5.25 -3.9
      vertex -1.16573e-15 -5.25 -4.8
      vertex 3.5 -5.25 -7.5
    endloop
  endfacet
  facet normal -1 2.22045e-16 0
    outer loop
      vertex 3.5 -5.25 2
      vertex 3.5 -5.25 -7.5
      vertex 3.5 -8.75 2
    endloop
  endfacet
  facet normal -1 2.22045e-16 0
    outer loop
      vertex 3.5 -8.75 2
      vertex 3.5 -5.25 -7.5
      vertex 3.5 -8.75 -7.5
    endloop
  endfacet
  facet normal 2.22045e-16 1 0
    outer loop
      vertex -1.55885 -8.75 -2.1
      vertex -3.5 -8.75 2
      vertex -1.94289e-15 -8.75 -1.2
    endloop
  endfacet
  facet normal 2.22045e-16 1 0
    outer loop
      vertex -1.55885 -8.75 -3.9
      vertex 3.5 -8.75 -7.5
      vertex -3.5 -8.75 -7.5
    endloop
  endfacet
  facet normal 2.22045e-16 1 0
    outer loop
      vertex -1.94289e-15 -8.75 -4.8
      vertex 3.5 -8.75 -7.5
      vertex -1.55885 -8.75 -3.9
    endloop
  endfacet
  facet normal 2.22045e-16 1 0
    outer loop
      vertex -3.5 -8.75 2
      vertex -1.55885 -8.75 -3.9
      vertex -3.5 -8.75 -7.5
    endloop
  endfacet
  facet normal 2.22045e-16 1 0
    outer loop
      vertex 3.5 -8.75 2
      vertex 3.5 -8.75 -7.5
      vertex 1.55885 -8.75 -3.9
    endloop
  endfacet
  facet normal 2.22045e-16 1 0
    outer loop
      vertex 3.5 -8.75 2
      vertex 1.55885 -8.75 -3.9
      vertex 1.55885 -8.75 -2.1
    endloop
  endfacet
  facet normal 2.22045e-16 1 0
    outer loop
      vertex 3.5 -8.75 2
      vertex 1.55885 -8.75 -2.1
      vertex -3.5 -8.75 2
    endloop
  endfacet
  facet normal 2.22045e-16 1 0
    outer loop
      vertex 1.55885 -8.75 -2.1
      vertex -1.94289e-15 -8.75 -1.2
      vertex -3.5 -8.75 2
    endloop
  endfacet
  facet normal 2.22045e-16 1 0
    outer loop
      vertex -3.5 -8.75 2
      vertex -1.55885 -8.75 -2.1
      vertex -1.55885 -8.75 -3.9
    endloop
  endfacet
  facet normal 2.22045e-16 1 0
    outer loop
      vertex 1.55885 -8.75 -3.9
      vertex 3.5 -8.75 -7.5
      vertex -1.94289e-15 -8.75 -4.8
    endloop
  endfacet
  facet normal 1 -2.22045e-16 0
    outer loop
      vertex -3.5 8.75 -7.5
      vertex -3.5 8.75 2
      vertex -3.5 5.25 2
    endloop
  endfacet
  facet normal 1 -2.22045e-16 0
    outer loop
      vertex -3.5 5.25 -7.5
      vertex -3.5 8.75 -7.5
      vertex -3.5 5.25 2
    endloop
  endfacet
  facet normal -2.22045e-16 -1 0
    outer loop
      vertex 1.94289e-15 8.75 -1.2
      vertex 3.5 8.75 2
      vertex -3.5 8.75 2
    endloop
  endfacet
  facet normal -2.22045e-16 -1 0
    outer loop
      vertex -3.5 8.75 -7.5
      vertex -1.55885 8.75 -2.1
      vertex -3.5 8.75 2
    endloop
  endfacet
  facet normal -2.22045e-16 -1 0
    outer loop
      vertex 1.55885 8.75 -2.1
      vertex 3.5 8.75 2
      vertex 1.94289e-15 8.75 -1.2
    endloop
  endfacet
  facet normal -2.22045e-16 -1 0
    outer loop
      vertex 3.5 8.75 -7.5
      vertex 3.5 8.75 2
      vertex 1.55885 8.75 -2.1
    endloop
  endfacet
  facet normal -2.22045e-16 -1 0
    outer loop
      vertex 3.5 8.75 -7.5
      vertex 1.55885 8.75 -2.1
      vertex 1.55885 8.75 -3.9
    endloop
  endfacet
  facet normal -2.22045e-16 -1 0
    outer loop
      vertex -3.5 8.75 -7.5
      vertex 3.5 8.75 -7.5
      vertex 1.94289e-15 8.75 -4.8
    endloop
  endfacet
  facet normal -2.22045e-16 -1 0
    outer loop
      vertex -3.5 8.75 -7.5
      vertex -1.55885 8.75 -3.9
      vertex -1.55885 8.75 -2.1
    endloop
  endfacet
  facet normal -2.22045e-16 -1 0
    outer loop
      vertex -3.5 8.75 -7.5
      vertex 1.94289e-15 8.75 -4.8
      vertex -1.55885 8.75 -3.9
    endloop
  endfacet
  facet normal -2.22045e-16 -1 0
    outer loop
      vertex -1.55885 8.75 -2.1
      vertex 1.94289e-15 8.75 -1.2
      vertex -3.5 8.75 2
    endloop
  endfacet
  facet normal -2.22045e-16 -1 0
    outer loop
      vertex 1.55885 8.75 -3.9
      vertex 1.94289e-15 8.75 -4.8
      vertex 3.5 8.75 -7.5
    endloop
  endfacet
  facet normal -1 2.22045e-16 0
    outer loop
      vertex 3.5 8.75 2
      vertex 3.5 8.75 -7.5
      vertex 3.5 5.25 2
    endloop
  endfacet
  facet normal -1 2.22045e-16 0
    outer loop
      vertex 3.5 5.25 2
      vertex 3.5 8.75 -7.5
      vertex 3.5 5.25 -7.5
    endloop
  endfacet
  facet normal 2.22045e-16 1 0
    outer loop
      vertex -1.55885 5.25 -2.1
      vertex -3.5 5.25 2
      vertex 1.16573e-15 5.25 -1.2
    endloop
  endfacet
  facet normal 2.22045e-16 1 0
    outer loop
      vertex -1.55885 5.25 -3.9
      vertex 3.5 5.25 -7.5
      vertex -3.5 5.25 -7.5
    endloop
  endfacet
  facet normal 2.22045e-16 1 0
    outer loop
      vertex 1.16573e-15 5.25 -4.8
      vertex 3.5 5.25 -7.5
      vertex -1.55885 5.25 -3.9
    endloop
  endfacet
  facet normal 2.22045e-16 1 0
    outer loop
      vertex -3.5 5.25 2
      vertex -1.55885 5.25 -3.9
      vertex -3.5 5.25 -7.5
    endloop
  endfacet
  facet normal 2.22045e-16 1 0
    outer loop
      vertex 3.5 5.25 2
      vertex 3.5 5.25 -7.5
      vertex 1.55885 5.25 -3.9
    endloop
  endfacet
  facet normal 2.22045e-16 1 0
    outer loop
      vertex 3.5 5.25 2
      vertex 1.55885 5.25 -3.9
      vertex 1.55885 5.25 -2.1
    endloop
  endfacet
  facet normal 2.22045e-16 1 0
    outer loop
      vertex 3.5 5.25 2
      vertex 1.55885 5.25 -2.1
      vertex -3.5 5.25 2
    endloop
  endfacet
  facet normal 2.22045e-16 1 0
    outer loop
      vertex 1.55885 5.25 -2.1
      vertex 1.16573e-15 5.25 -1.2
      vertex -3.5 5.25 2
    endloop
  endfacet
  facet normal 2.22045e-16 1 0
    outer loop
      vertex -3.5 5.25 2
      vertex -1.55885 5.25 -2.1
      vertex -1.55885 5.25 -3.9
    endloop
  endfacet
  facet normal 2.22045e-16 1 0
    outer loop
      vertex 1.55885 5.25 -3.9
      vertex 3.5 5.25 -7.5
      vertex 1.16573e-15 5.25 -4.8
    endloop
  endfacet
  facet normal 0.92388 -0.382683 0
    outer loop
      vertex -1.76777 1.76777 -7.5
      vertex -1.76777 1.76777 0
      vertex -2.5 0 0
    endloop
  endfacet
  facet normal 0.92388 -0.382683 0
    outer loop
      vertex -2.5 0 -7.5
      vertex -1.76777 1.76777 -7.5
      vertex -2.5 0 0
    endloop
  endfacet
  facet normal 0.92388 0.382683 0
    outer loop
      vertex -2.5 0 0
      vertex -1.76777 -1.76777 0
      vertex -1.76777 -1.76777 -7.5
    endloop
  endfacet
  facet normal 0.92388 0.382683 0
    outer loop
      vertex -2.5 0 -7.5
      vertex -2.5 0 0
      vertex -1.76777 -1.76777 -7.5
    endloop
  endfacet
  facet normal 0.382683 -0.92388 0
    outer loop
      vertex -1.55885 1.8543 -2.1
      vertex -1.76777 1.76777 0
      vertex -1.55885 1.8543 -3.9
    endloop
  endfacet
  facet normal 0.382683 -0.92388 0
    outer loop
      vertex 0 2.5 -7.5
      vertex 0 2.5 -4.8
      vertex -1.55885 1.8543 -3.9
    endloop
  endfacet
  facet normal 0.382683 -0.92388 0
    outer loop
      vertex -1.76777 1.76777 -7.5
      vertex 0 2.5 -7.5
      vertex -1.55885 1.8543 -3.9
    endloop
  endfacet
  facet normal 0.382683 -0.92388 0
    outer loop
      vertex 0 2.5 -1.2
      vertex 0 2.5 0
      vertex -1.55885 1.8543 -2.1
    endloop
  endfacet
  facet normal 0.382683 -0.92388 0
    outer loop
      vertex 0 2.5 0
      vertex -1.76777 1.76777 0
      vertex -1.55885 1.8543 -2.1
    endloop
  endfacet
  facet normal 0.382683 -0.92388 0
    outer loop
      vertex -1.76777 1.76777 0
      vertex -1.76777 1.76777 -7.5
      vertex -1.55885 1.8543 -3.9
    endloop
  endfacet
  facet normal -0.382683 -0.92388 0
    outer loop
      vertex 1.55885 1.8543 -2.1
      vertex 1.76777 1.76777 0
      vertex 0 2.5 0
    endloop
  endfacet
  facet normal -0.382683 -0.92388 0
    outer loop
      vertex 1.55885 1.8543 -3.9
      vertex 5.55112e-16 2.5 -4.8
      vertex 1.76777 1.76777 -7.5
    endloop
  endfacet
  facet normal -0.382683 -0.92388 0
    outer loop
      vertex 0 2.5 -1.2
      vertex 5.55112e-16 2.5 -1.2
      vertex 0 2.5 0
    endloop
  endfacet
  facet normal -0.382683 -0.92388 0
    outer loop
      vertex 1.76777 1.76777 -7.5
      vertex 1.76777 1.76777 0
      vertex 1.55885 1.8543 -2.1
    endloop
  endfacet
  facet normal -0.382683 -0.92388 0
    outer loop
      vertex 1.76777 1.76777 -7.5
      vertex 1.55885 1.8543 -2.1
      vertex 1.55885 1.8543 -3.9
    endloop
  endfacet
  facet normal -0.382683 -0.92388 0
    outer loop
      vertex 0 2.5 -4.8
      vertex 1.76777 1.76777 -7.5
      vertex 5.55112e-16 2.5 -4.8
    endloop
  endfacet
  facet normal -0.382683 -0.92388 0
    outer loop
      vertex 0 2.5 -7.5
      vertex 1.76777 1.76777 -7.5
      vertex 0 2.5 -4.8
    endloop
  endfacet
  facet normal -0.382683 -0.92388 0
    outer loop
      vertex 5.55112e-16 2.5 -1.2
      vertex 1.55885 1.8543 -2.1
      vertex 0 2.5 0
    endloop
  endfacet
  facet normal -0.92388 -0.382683 0
    outer loop
      vertex 2.5 0 0
      vertex 1.76777 1.76777 0
      vertex 2.5 0 -7.5
    endloop
  endfacet
  facet normal -0.92388 -0.382683 0
    outer loop
      vertex 2.5 0 -7.5
      vertex 1.76777 1.76777 0
      vertex 1.76777 1.76777 -7.5
    endloop
  endfacet
  facet normal -0.92388 0.382683 0
    outer loop
      vertex 2.5 0 0
      vertex 2.5 0 -7.5
      vertex 1.76777 -1.76777 0
    endloop
  endfacet
  facet normal -0.92388 0.382683 0
    outer loop
      vertex 1.76777 -1.76777 0
      vertex 2.5 0 -7.5
      vertex 1.76777 -1.76777 -7.5
    endloop
  endfacet
  facet normal -0.382683 0.92388 0
    outer loop
      vertex 0 -2.5 0
      vertex 1.55885 -1.8543 -2.1
      vertex 0 -2.5 -1.2
    endloop
  endfacet
  facet normal -0.382683 0.92388 0
    outer loop
      vertex 1.76777 -1.76777 0
      vertex 1.55885 -1.8543 -2.1
      vertex 0 -2.5 0
    endloop
  endfacet
  facet normal -0.382683 0.92388 0
    outer loop
      vertex 1.55885 -1.8543 -3.9
      vertex 1.55885 -1.8543 -2.1
      vertex 1.76777 -1.76777 0
    endloop
  endfacet
  facet normal -0.382683 0.92388 0
    outer loop
      vertex 1.55885 -1.8543 -3.9
      vertex 1.76777 -1.76777 0
      vertex 1.76777 -1.76777 -7.5
    endloop
  endfacet
  facet normal -0.382683 0.92388 0
    outer loop
      vertex 1.55885 -1.8543 -3.9
      vertex 1.76777 -1.76777 -7.5
      vertex 0 -2.5 -4.8
    endloop
  endfacet
  facet normal -0.382683 0.92388 0
    outer loop
      vertex 1.76777 -1.76777 -7.5
      vertex 0 -2.5 -7.5
      vertex 0 -2.5 -4.8
    endloop
  endfacet
  facet normal 0.382683 0.92388 0
    outer loop
      vertex 0 -2.5 0
      vertex 0 -2.5 -1.2
      vertex -1.76777 -1.76777 0
    endloop
  endfacet
  facet normal 0.382683 0.92388 0
    outer loop
      vertex -1.76777 -1.76777 0
      vertex 0 -2.5 -1.2
      vertex -5.55112e-16 -2.5 -1.2
    endloop
  endfacet
  facet normal 0.382683 0.92388 0
    outer loop
      vertex -1.76777 -1.76777 0
      vertex -5.55112e-16 -2.5 -1.2
      vertex -1.55885 -1.8543 -2.1
    endloop
  endfacet
  facet normal 0.382683 0.92388 0
    outer loop
      vertex -1.55885 -1.8543 -2.1
      vertex -1.55885 -1.8543 -3.9
      vertex -1.76777 -1.76777 0
    endloop
  endfacet
  facet normal 0.382683 0.92388 0
    outer loop
      vertex -5.55112e-16 -2.5 -4.8
      vertex 0 -2.5 -4.8
      vertex 0 -2.5 -7.5
    endloop
  endfacet
  facet normal 0.382683 0.92388 0
    outer loop
      vertex -5.55112e-16 -2.5 -4.8
      vertex 0 -2.5 -7.5
      vertex -1.55885 -1.8543 -3.9
    endloop
  endfacet
  facet normal 0.382683 0.92388 0
    outer loop
      vertex -1.55885 -1.8543 -3.9
      vertex 0 -2.5 -7.5
      vertex -1.76777 -1.76777 -7.5
    endloop
  endfacet
  facet normal 0.382683 0.92388 0
    outer loop
      vertex -1.55885 -1.8543 -3.9
      vertex -1.76777 -1.76777 -7.5
      vertex -1.76777 -1.76777 0
    endloop
  endfacet
  facet normal 0 0 1
    outer loop
      vertex -11.7378 2.49494 7.5
      vertex -12 0 7.5
      vertex -11.7378 -2.49494 7.5
    endloop
  endfacet
  facet normal 0 0 1
    outer loop
      vertex -9.7082 -7.05342 7.5
      vertex -11.7378 2.49494 7.5
      vertex -10.9625 -4.88084 7.5
    endloop
  endfacet
  facet normal 0 0 1
    outer loop
      vertex -10.9625 -4.88084 7.5
      vertex -11.7378 2.49494 7.5
      vertex -11.7378 -2.49494 7.5
    endloop
  endfacet
  facet normal 0 0 1
    outer loop
      vertex -8.02957 -8.91774 7.5
      vertex -11.7378 2.49494 7.5
      vertex -9.7082 -7.05342 7.5
    endloop
  endfacet
  facet normal 0 0 1
    outer loop
      vertex -6 -10.3923 7.5
      vertex -11.7378 2.49494 7.5
      vertex -8.02957 -8.91774 7.5
    endloop
  endfacet
  facet normal 0 0 1
    outer loop
      vertex -8.75 -3.5 7.5
      vertex -11.7378 2.49494 7.5
      vertex -6 -10.3923 7.5
    endloop
  endfacet
  facet normal 0 0 1
    outer loop
      vertex -8.75 3.5 7.5
      vertex -5.25 3.5 7.5
      vertex 9.7082 7.05342 7.5
    endloop
  endfacet
  facet normal 0 0 1
    outer loop
      vertex 8.75 3.5 7.5
      vertex 12 0 7.5
      vertex 11.7378 2.49494 7.5
    endloop
  endfacet
  facet normal 0 0 1
    outer loop
      vertex -5.25 3.5 7.5
      vertex -2.99404 2.65249 7.5
      vertex -1.41842 3.74006 7.5
    endloop
  endfacet
  facet normal 0 0 1
    outer loop
      vertex -5.25 3.5 7.5
      vertex -5.25 -3.5 7.5
      vertex -3.88377 -0.957263 7.5
    endloop
  endfacet
  facet normal 0 0 1
    outer loop
      vertex -2.99404 -2.65249 7.5
      vertex -5.25 -3.5 7.5
      vertex 3.7082 -11.4127 7.5
    endloop
  endfacet
  facet normal 0 0 1
    outer loop
      vertex 3.7082 11.4127 7.5
      vertex -11.7378 2.49494 7.5
      vertex 6 10.3923 7.5
    endloop
  endfacet
  facet normal 0 0 1
    outer loop
      vertex 1.25434 11.9343 7.5
      vertex -11.7378 2.49494 7.5
      vertex 3.7082 11.4127 7.5
    endloop
  endfacet
  facet normal 0 0 1
    outer loop
      vertex -1.25434 11.9343 7.5
      vertex -11.7378 2.49494 7.5
      vertex 1.25434 11.9343 7.5
    endloop
  endfacet
  facet normal 0 0 1
    outer loop
      vertex -3.7082 11.4127 7.5
      vertex -11.7378 2.49494 7.5
      vertex -1.25434 11.9343 7.5
    endloop
  endfacet
  facet normal 0 0 1
    outer loop
      vertex -6 10.3923 7.5
      vertex -11.7378 2.49494 7.5
      vertex -3.7082 11.4127 7.5
    endloop
  endfacet
  facet normal 0 0 1
    outer loop
      vertex -8.02957 8.91774 7.5
      vertex -11.7378 2.49494 7.5
      vertex -6 10.3923 7.5
    endloop
  endfacet
  facet normal 0 0 1
    outer loop
      vertex -9.7082 7.05342 7.5
      vertex -11.7378 2.49494 7.5
      vertex -8.02957 8.91774 7.5
    endloop
  endfacet
  facet normal 0 0 1
    outer loop
      vertex -10.9625 4.88084 7.5
      vertex -11.7378 2.49494 7.5
      vertex -9.7082 7.05342 7.5
    endloop
  endfacet
  facet normal 0 0 1
    outer loop
      vertex -3.7082 -11.4127 7.5
      vertex -8.75 -3.5 7.5
      vertex -6 -10.3923 7.5
    endloop
  endfacet
  facet normal 0 0 1
    outer loop
      vertex -8.75 3.5 7.5
      vertex 9.7082 7.05342 7.5
      vertex 8.02957 8.91774 7.5
    endloop
  endfacet
  facet normal 0 0 1
    outer loop
      vertex 6 10.3923 7.5
      vertex -8.75 3.5 7.5
      vertex 8.02957 8.91774 7.5
    endloop
  endfacet
  facet normal 0 0 1
    outer loop
      vertex 6 10.3923 7.5
      vertex -11.7378 2.49494 7.5
      vertex -8.75 3.5 7.5
    endloop
  endfacet
  facet normal 0 0 1
    outer loop
      vertex 9.7082 7.05342 7.5
      vertex -5.25 3.5 7.5
      vertex 10.9625 4.88084 7.5
    endloop
  endfacet
  facet normal 0 0 1
    outer loop
      vertex -5.25 3.5 7.5
      vertex -3.88377 0.957263 7.5
      vertex -2.99404 2.65249 7.5
    endloop
  endfacet
  facet normal 0 0 1
    outer loop
      vertex 3.7082 -11.4127 7.5
      vertex -5.25 -3.5 7.5
      vertex 1.25434 -11.9343 7.5
    endloop
  endfacet
  facet normal 0 0 1
    outer loop
      vertex 0.482147 -3.97083 7.5
      vertex -1.41842 -3.74006 7.5
      vertex 8.02957 -8.91774 7.5
    endloop
  endfacet
  facet normal 0 0 1
    outer loop
      vertex -3.88377 -0.957263 7.5
      vertex -5.25 -3.5 7.5
      vertex -2.99404 -2.65249 7.5
    endloop
  endfacet
  facet normal 0 0 1
    outer loop
      vertex 8.75 3.5 7.5
      vertex 8.75 -3.5 7.5
      vertex 11.7378 -2.49494 7.5
    endloop
  endfacet
  facet normal 0 0 1
    outer loop
      vertex -5.25 3.5 7.5
      vertex -3.88377 -0.957263 7.5
      vertex -3.88377 0.957263 7.5
    endloop
  endfacet
  facet normal 0 0 1
    outer loop
      vertex -5.25 3.5 7.5
      vertex 0.482147 3.97083 7.5
      vertex 10.9625 4.88084 7.5
    endloop
  endfacet
  facet normal 0 0 1
    outer loop
      vertex -5.25 3.5 7.5
      vertex -1.41842 3.74006 7.5
      vertex 0.482147 3.97083 7.5
    endloop
  endfacet
  facet normal 0 0 1
    outer loop
      vertex 8.75 3.5 7.5
      vertex 11.7378 -2.49494 7.5
      vertex 12 0 7.5
    endloop
  endfacet
  facet normal 0 0 1
    outer loop
      vertex 5.25 -3.5 7.5
      vertex 5.25 3.5 7.5
      vertex 3.54182 1.85889 7.5
    endloop
  endfacet
  facet normal 0 0 1
    outer loop
      vertex 10.9625 -4.88084 7.5
      vertex 2.27226 -3.29194 7.5
      vertex 9.7082 -7.05342 7.5
    endloop
  endfacet
  facet normal 0 0 1
    outer loop
      vertex 9.7082 -7.05342 7.5
      vertex 0.482147 -3.97083 7.5
      vertex 8.02957 -8.91774 7.5
    endloop
  endfacet
  facet normal 0 0 1
    outer loop
      vertex 8.02957 -8.91774 7.5
      vertex -1.41842 -3.74006 7.5
      vertex 6 -10.3923 7.5
    endloop
  endfacet
  facet normal 0 0 1
    outer loop
      vertex 10.9625 -4.88084 7.5
      vertex 5.25 -3.5 7.5
      vertex 2.27226 -3.29194 7.5
    endloop
  endfacet
  facet normal 0 0 1
    outer loop
      vertex 2.27226 -3.29194 7.5
      vertex 0.482147 -3.97083 7.5
      vertex 9.7082 -7.05342 7.5
    endloop
  endfacet
  facet normal 0 0 1
    outer loop
      vertex 10.9625 4.88084 7.5
      vertex 2.27226 3.29194 7.5
      vertex 5.25 3.5 7.5
    endloop
  endfacet
  facet normal 0 0 1
    outer loop
      vertex 10.9625 4.88084 7.5
      vertex 8.75 3.5 7.5
      vertex 11.7378 2.49494 7.5
    endloop
  endfacet
  facet normal 0 0 1
    outer loop
      vertex 10.9625 4.88084 7.5
      vertex 5.25 3.5 7.5
      vertex 8.75 3.5 7.5
    endloop
  endfacet
  facet normal 0 0 1
    outer loop
      vertex 11.7378 -2.49494 7.5
      vertex 8.75 -3.5 7.5
      vertex 10.9625 -4.88084 7.5
    endloop
  endfacet
  facet normal 0 0 1
    outer loop
      vertex -5.25 -3.5 7.5
      vertex -1.25434 -11.9343 7.5
      vertex 1.25434 -11.9343 7.5
    endloop
  endfacet
  facet normal 0 0 1
    outer loop
      vertex -5.25 -3.5 7.5
      vertex -3.7082 -11.4127 7.5
      vertex -1.25434 -11.9343 7.5
    endloop
  endfacet
  facet normal 0 0 1
    outer loop
      vertex -5.25 -3.5 7.5
      vertex -8.75 -3.5 7.5
      vertex -3.7082 -11.4127 7.5
    endloop
  endfacet
  facet normal 0 0 1
    outer loop
      vertex 3.54182 1.85889 7.5
      vertex 5.25 3.5 7.5
      vertex 2.27226 3.29194 7.5
    endloop
  endfacet
  facet normal 0 0 1
    outer loop
      vertex 5.25 -3.5 7.5
      vertex 3.54182 1.85889 7.5
      vertex 4 0 7.5
    endloop
  endfacet
  facet normal 0 0 1
    outer loop
      vertex 5.25 -3.5 7.5
      vertex 4 0 7.5
      vertex 3.54182 -1.85889 7.5
    endloop
  endfacet
  facet normal 0 0 1
    outer loop
      vertex 3.54182 -1.85889 7.5
      vertex 2.27226 -3.29194 7.5
      vertex 5.25 -3.5 7.5
    endloop
  endfacet
  facet normal 0 0 1
    outer loop
      vertex 8.75 -3.5 7.5
      vertex 5.25 -3.5 7.5
      vertex 10.9625 -4.88084 7.5
    endloop
  endfacet
  facet normal 0 0 1
    outer loop
      vertex 0.482147 3.97083 7.5
      vertex 2.27226 3.29194 7.5
      vertex 10.9625 4.88084 7.5
    endloop
  endfacet
  facet normal 0 0 1
    outer loop
      vertex -2.99404 -2.65249 7.5
      vertex 6 -10.3923 7.5
      vertex -1.41842 -3.74006 7.5
    endloop
  endfacet
  facet normal 0 0 1
    outer loop
      vertex -2.99404 -2.65249 7.5
      vertex 3.7082 -11.4127 7.5
      vertex 6 -10.3923 7.5
    endloop
  endfacet
  facet normal 0 0 1
    outer loop
      vertex -8.75 -3.5 7.5
      vertex -8.75 3.5 7.5
      vertex -11.7378 2.49494 7.5
    endloop
  endfacet
  facet normal 1.92296e-16 0.5 -0.866025
    outer loop
      vertex -8.75 -1.55885 3.9
      vertex -11.8362 -1.55885 3.9
      vertex -8.75 0 4.8
    endloop
  endfacet
  facet normal 1.92296e-16 0.5 -0.866025
    outer loop
      vertex -8.75 0 4.8
      vertex -11.8362 -1.55885 3.9
      vertex -12 0 4.8
    endloop
  endfacet
  facet normal 1.92296e-16 -0.5 -0.866025
    outer loop
      vertex -8.75 1.55885 3.9
      vertex -8.75 0 4.8
      vertex -11.8362 1.55885 3.9
    endloop
  endfacet
  facet normal 1.92296e-16 -0.5 -0.866025
    outer loop
      vertex -11.8362 1.55885 3.9
      vertex -8.75 0 4.8
      vertex -12 0 4.8
    endloop
  endfacet
  facet normal 0 -1 0
    outer loop
      vertex -8.75 1.55885 2.1
      vertex -8.75 1.55885 3.9
      vertex -11.8362 1.55885 3.9
    endloop
  endfacet
  facet normal 0 -1 0
    outer loop
      vertex -11.8362 1.55885 2.1
      vertex -8.75 1.55885 2.1
      vertex -11.8362 1.55885 3.9
    endloop
  endfacet
  facet normal -1.92296e-16 -0.5 0.866025
    outer loop
      vertex -8.75 0 1.2
      vertex -8.75 1.55885 2.1
      vertex -11.8362 1.55885 2.1
    endloop
  endfacet
  facet normal -1.92296e-16 -0.5 0.866025
    outer loop
      vertex -12 0 1.2
      vertex -8.75 0 1.2
      vertex -11.8362 1.55885 2.1
    endloop
  endfacet
  facet normal -1.92296e-16 0.5 0.866025
    outer loop
      vertex -11.8362 -1.55885 2.1
      vertex -8.75 -1.55885 2.1
      vertex -8.75 0 1.2
    endloop
  endfacet
  facet normal -1.92296e-16 0.5 0.866025
    outer loop
      vertex -12 0 1.2
      vertex -11.8362 -1.55885 2.1
      vertex -8.75 0 1.2
    endloop
  endfacet
  facet normal 0 1 0
    outer loop
      vertex -8.75 -1.55885 3.9
      vertex -8.75 -1.55885 2.1
      vertex -11.8362 -1.55885 3.9
    endloop
  endfacet
  facet normal 0 1 0
    outer loop
      vertex -11.8362 -1.55885 3.9
      vertex -8.75 -1.55885 2.1
      vertex -11.8362 -1.55885 2.1
    endloop
  endfacet
  facet normal 0 -1 0
    outer loop
      vertex -1.25434 -11.9343 7.5
      vertex -1.25434 -11.9343 -1.92419
      vertex -2.64994e-15 -11.9343 -1.2
    endloop
  endfacet
  facet normal 0 -1 0
    outer loop
      vertex 1.25434 -11.9343 -1.92419
      vertex -1.25434 -11.9343 7.5
      vertex -2.64994e-15 -11.9343 -1.2
    endloop
  endfacet
  facet normal 0 -1 0
    outer loop
      vertex 1.25434 -11.9343 -1.92419
      vertex 1.25434 -11.9343 7.5
      vertex -1.25434 -11.9343 7.5
    endloop
  endfacet
  facet normal 0.5 8.1274e-17 -0.866025
    outer loop
      vertex -1.94289e-15 -8.75 -1.2
      vertex -2.64994e-15 -11.9343 -1.2
      vertex -1.55885 -8.75 -2.1
    endloop
  endfacet
  facet normal 0.5 8.1274e-17 -0.866025
    outer loop
      vertex -1.55885 -8.75 -2.1
      vertex -2.64994e-15 -11.9343 -1.2
      vertex -1.25434 -11.9343 -1.92419
    endloop
  endfacet
  facet normal 0.5 8.1274e-17 -0.866025
    outer loop
      vertex -1.55885 -8.75 -2.1
      vertex -1.25434 -11.9343 -1.92419
      vertex -1.55885 -11.8695 -2.1
    endloop
  endfacet
  facet normal 1 -2.22045e-16 0
    outer loop
      vertex -1.55885 -8.75 -3.9
      vertex -1.55885 -8.75 -2.1
      vertex -1.55885 -11.8695 -2.1
    endloop
  endfacet
  facet normal 1 -2.22045e-16 0
    outer loop
      vertex -1.55885 -11.8695 -3.9
      vertex -1.55885 -8.75 -3.9
      vertex -1.55885 -11.8695 -2.1
    endloop
  endfacet
  facet normal 0.5 -3.03319e-16 0.866025
    outer loop
      vertex -1.25434 -11.9343 -4.07581
      vertex -2.64994e-15 -11.9343 -4.8
      vertex -1.94289e-15 -8.75 -4.8
    endloop
  endfacet
  facet normal 0.5 -3.03319e-16 0.866025
    outer loop
      vertex -1.55885 -11.8695 -3.9
      vertex -1.25434 -11.9343 -4.07581
      vertex -1.55885 -8.75 -3.9
    endloop
  endfacet
  facet normal 0.5 -3.03319e-16 0.866025
    outer loop
      vertex -1.55885 -8.75 -3.9
      vertex -1.25434 -11.9343 -4.07581
      vertex -1.94289e-15 -8.75 -4.8
    endloop
  endfacet
  facet normal -0.5 -8.1274e-17 0.866025
    outer loop
      vertex 1.25434 -11.9343 -4.07581
      vertex 1.55885 -11.8695 -3.9
      vertex 1.55885 -8.75 -3.9
    endloop
  endfacet
  facet normal -0.5 -8.1274e-17 0.866025
    outer loop
      vertex -2.64994e-15 -11.9343 -4.8
      vertex 1.25434 -11.9343 -4.07581
      vertex -1.94289e-15 -8.75 -4.8
    endloop
  endfacet
  facet normal -0.5 -8.1274e-17 0.866025
    outer loop
      vertex -1.94289e-15 -8.75 -4.8
      vertex 1.25434 -11.9343 -4.07581
      vertex 1.55885 -8.75 -3.9
    endloop
  endfacet
  facet normal -1 2.22045e-16 0
    outer loop
      vertex 1.55885 -8.75 -2.1
      vertex 1.55885 -8.75 -3.9
      vertex 1.55885 -11.8695 -2.1
    endloop
  endfacet
  facet normal -1 2.22045e-16 0
    outer loop
      vertex 1.55885 -11.8695 -2.1
      vertex 1.55885 -8.75 -3.9
      vertex 1.55885 -11.8695 -3.9
    endloop
  endfacet
  facet normal -0.5 3.03319e-16 -0.866025
    outer loop
      vertex 1.55885 -8.75 -2.1
      vertex 1.55885 -11.8695 -2.1
      vertex -1.94289e-15 -8.75 -1.2
    endloop
  endfacet
  facet normal -0.5 3.03319e-16 -0.866025
    outer loop
      vertex -1.94289e-15 -8.75 -1.2
      vertex 1.55885 -11.8695 -2.1
      vertex 1.25434 -11.9343 -1.92419
    endloop
  endfacet
  facet normal -0.5 3.03319e-16 -0.866025
    outer loop
      vertex -1.94289e-15 -8.75 -1.2
      vertex 1.25434 -11.9343 -1.92419
      vertex -2.64994e-15 -11.9343 -1.2
    endloop
  endfacet
  facet normal 1.92296e-16 0.5 -0.866025
    outer loop
      vertex 12 0 4.8
      vertex 11.8362 -1.55885 3.9
      vertex 8.75 0 4.8
    endloop
  endfacet
  facet normal 1.92296e-16 0.5 -0.866025
    outer loop
      vertex 8.75 0 4.8
      vertex 11.8362 -1.55885 3.9
      vertex 8.75 -1.55885 3.9
    endloop
  endfacet
  facet normal 1.92296e-16 -0.5 -0.866025
    outer loop
      vertex 11.8362 1.55885 3.9
      vertex 12 0 4.8
      vertex 8.75 1.55885 3.9
    endloop
  endfacet
  facet normal 1.92296e-16 -0.5 -0.866025
    outer loop
      vertex 8.75 1.55885 3.9
      vertex 12 0 4.8
      vertex 8.75 0 4.8
    endloop
  endfacet
  facet normal 0 1 0
    outer loop
      vertex 11.8362 -1.55885 3.9
      vertex 11.8362 -1.55885 2.1
      vertex 8.75 -1.55885 3.9
    endloop
  endfacet
  facet normal 0 1 0
    outer loop
      vertex 8.75 -1.55885 3.9
      vertex 11.8362 -1.55885 2.1
      vertex 8.75 -1.55885 2.1
    endloop
  endfacet
  facet normal -1.92296e-16 0.5 0.866025
    outer loop
      vertex 11.8362 -1.55885 2.1
      vertex 12 0 1.2
      vertex 8.75 0 1.2
    endloop
  endfacet
  facet normal -1.92296e-16 0.5 0.866025
    outer loop
      vertex 8.75 -1.55885 2.1
      vertex 11.8362 -1.55885 2.1
      vertex 8.75 0 1.2
    endloop
  endfacet
  facet normal -1.92296e-16 -0.5 0.866025
    outer loop
      vertex 12 0 1.2
      vertex 11.8362 1.55885 2.1
      vertex 8.75 1.55885 2.1
    endloop
  endfacet
  facet normal -1.92296e-16 -0.5 0.866025
    outer loop
      vertex 8.75 0 1.2
      vertex 12 0 1.2
      vertex 8.75 1.55885 2.1
    endloop
  endfacet
  facet normal 0 -1 0
    outer loop
      vertex 11.8362 1.55885 2.1
      vertex 11.8362 1.55885 3.9
      vertex 8.75 1.55885 3.9
    endloop
  endfacet
  facet normal 0 -1 0
    outer loop
      vertex 8.75 1.55885 2.1
      vertex 11.8362 1.55885 2.1
      vertex 8.75 1.55885 3.9
    endloop
  endfacet
  facet normal 0 1 0
    outer loop
      vertex -1.25434 11.9343 -1.92419
      vertex -1.25434 11.9343 7.5
      vertex 2.64994e-15 11.9343 -1.2
    endloop
  endfacet
  facet normal 0 1 0
    outer loop
      vertex 2.64994e-15 11.9343 -1.2
      vertex -1.25434 11.9343 7.5
      vertex 1.25434 11.9343 7.5
    endloop
  endfacet
  facet normal 0 1 0
    outer loop
      vertex 2.64994e-15 11.9343 -1.2
      vertex 1.25434 11.9343 7.5
      vertex 1.25434 11.9343 -1.92419
    endloop
  endfacet
  facet normal -0.5 3.03319e-16 -0.866025
    outer loop
      vertex 1.25434 11.9343 -1.92419
      vertex 1.55885 11.8695 -2.1
      vertex 2.64994e-15 11.9343 -1.2
    endloop
  endfacet
  facet normal -0.5 3.03319e-16 -0.866025
    outer loop
      vertex 2.64994e-15 11.9343 -1.2
      vertex 1.55885 11.8695 -2.1
      vertex 1.55885 8.75 -2.1
    endloop
  endfacet
  facet normal -0.5 3.03319e-16 -0.866025
    outer loop
      vertex 2.64994e-15 11.9343 -1.2
      vertex 1.55885 8.75 -2.1
      vertex 1.94289e-15 8.75 -1.2
    endloop
  endfacet
  facet normal -1 2.22045e-16 0
    outer loop
      vertex 1.55885 11.8695 -2.1
      vertex 1.55885 11.8695 -3.9
      vertex 1.55885 8.75 -2.1
    endloop
  endfacet
  facet normal -1 2.22045e-16 0
    outer loop
      vertex 1.55885 8.75 -2.1
      vertex 1.55885 11.8695 -3.9
      vertex 1.55885 8.75 -3.9
    endloop
  endfacet
  facet normal -0.5 -8.1274e-17 0.866025
    outer loop
      vertex 1.55885 8.75 -3.9
      vertex 1.55885 11.8695 -3.9
      vertex 1.25434 11.9343 -4.07581
    endloop
  endfacet
  facet normal -0.5 -8.1274e-17 0.866025
    outer loop
      vertex 1.94289e-15 8.75 -4.8
      vertex 1.55885 8.75 -3.9
      vertex 2.64994e-15 11.9343 -4.8
    endloop
  endfacet
  facet normal -0.5 -8.1274e-17 0.866025
    outer loop
      vertex 2.64994e-15 11.9343 -4.8
      vertex 1.55885 8.75 -3.9
      vertex 1.25434 11.9343 -4.07581
    endloop
  endfacet
  facet normal 0.5 -3.03319e-16 0.866025
    outer loop
      vertex 1.94289e-15 8.75 -4.8
      vertex 2.64994e-15 11.9343 -4.8
      vertex -1.25434 11.9343 -4.07581
    endloop
  endfacet
  facet normal 0.5 -3.03319e-16 0.866025
    outer loop
      vertex -1.55885 8.75 -3.9
      vertex 1.94289e-15 8.75 -4.8
      vertex -1.55885 11.8695 -3.9
    endloop
  endfacet
  facet normal 0.5 -3.03319e-16 0.866025
    outer loop
      vertex -1.55885 11.8695 -3.9
      vertex 1.94289e-15 8.75 -4.8
      vertex -1.25434 11.9343 -4.07581
    endloop
  endfacet
  facet normal 1 -2.22045e-16 0
    outer loop
      vertex -1.55885 11.8695 -3.9
      vertex -1.55885 11.8695 -2.1
      vertex -1.55885 8.75 -2.1
    endloop
  endfacet
  facet normal 1 -2.22045e-16 0
    outer loop
      vertex -1.55885 8.75 -3.9
      vertex -1.55885 11.8695 -3.9
      vertex -1.55885 8.75 -2.1
    endloop
  endfacet
  facet normal 0.5 8.1274e-17 -0.866025
    outer loop
      vertex -1.25434 11.9343 -1.92419
      vertex 2.64994e-15 11.9343 -1.2
      vertex -1.55885 11.8695 -2.1
    endloop
  endfacet
  facet normal 0.5 8.1274e-17 -0.866025
    outer loop
      vertex -1.55885 11.8695 -2.1
      vertex 2.64994e-15 11.9343 -1.2
      vertex 1.94289e-15 8.75 -1.2
    endloop
  endfacet
  facet normal 0.5 8.1274e-17 -0.866025
    outer loop
      vertex -1.55885 11.8695 -2.1
      vertex 1.94289e-15 8.75 -1.2
      vertex -1.55885 8.75 -2.1
    endloop
  endfacet
  facet normal 0 0 -1
    outer loop
      vertex 3.5 -5.25 2
      vertex 3.5 -8.75 2
      vertex -3.5 -5.25 2
    endloop
  endfacet
  facet normal 0 0 -1
    outer loop
      vertex -3.5 -5.25 2
      vertex 3.5 -8.75 2
      vertex -3.5 -8.75 2
    endloop
  endfacet
  facet normal 1 -2.22045e-16 0
    outer loop
      vertex -1.55885 -1.8543 -3.9
      vertex -1.55885 -1.8543 -2.1
      vertex -1.55885 -5.25 -2.1
    endloop
  endfacet
  facet normal 1 -2.22045e-16 0
    outer loop
      vertex -1.55885 -5.25 -3.9
      vertex -1.55885 -1.8543 -3.9
      vertex -1.55885 -5.25 -2.1
    endloop
  endfacet
  facet normal 0.5 8.1274e-17 -0.866025
    outer loop
      vertex -5.55112e-16 -2.5 -1.2
      vertex -1.16573e-15 -5.25 -1.2
      vertex -1.55885 -1.8543 -2.1
    endloop
  endfacet
  facet normal 0.5 8.1274e-17 -0.866025
    outer loop
      vertex -1.55885 -1.8543 -2.1
      vertex -1.16573e-15 -5.25 -1.2
      vertex -1.55885 -5.25 -2.1
    endloop
  endfacet
  facet normal 0.5 -3.03319e-16 0.866025
    outer loop
      vertex -1.16573e-15 -5.25 -4.8
      vertex -5.55112e-16 -2.5 -4.8
      vertex -1.55885 -1.8543 -3.9
    endloop
  endfacet
  facet normal 0.5 -3.03319e-16 0.866025
    outer loop
      vertex -1.55885 -5.25 -3.9
      vertex -1.16573e-15 -5.25 -4.8
      vertex -1.55885 -1.8543 -3.9
    endloop
  endfacet
  facet normal -0.5 -8.1274e-17 0.866025
    outer loop
      vertex 1.55885 -5.25 -3.9
      vertex 1.55885 -1.8543 -3.9
      vertex 0 -2.5 -4.8
    endloop
  endfacet
  facet normal -0.5 -8.1274e-17 0.866025
    outer loop
      vertex -5.55112e-16 -2.5 -4.8
      vertex 1.55885 -5.25 -3.9
      vertex 0 -2.5 -4.8
    endloop
  endfacet
  facet normal -0.5 -8.1274e-17 0.866025
    outer loop
      vertex -5.55112e-16 -2.5 -4.8
      vertex -1.16573e-15 -5.25 -4.8
      vertex 1.55885 -5.25 -3.9
    endloop
  endfacet
  facet normal -1 2.22045e-16 0
    outer loop
      vertex 1.55885 -1.8543 -2.1
      vertex 1.55885 -1.8543 -3.9
      vertex 1.55885 -5.25 -2.1
    endloop
  endfacet
  facet normal -1 2.22045e-16 0
    outer loop
      vertex 1.55885 -5.25 -2.1
      vertex 1.55885 -1.8543 -3.9
      vertex 1.55885 -5.25 -3.9
    endloop
  endfacet
  facet normal -0.5 3.03319e-16 -0.866025
    outer loop
      vertex 0 -2.5 -1.2
      vertex 1.55885 -1.8543 -2.1
      vertex 1.55885 -5.25 -2.1
    endloop
  endfacet
  facet normal -0.5 3.03319e-16 -0.866025
    outer loop
      vertex 0 -2.5 -1.2
      vertex 1.55885 -5.25 -2.1
      vertex -5.55112e-16 -2.5 -1.2
    endloop
  endfacet
  facet normal -0.5 3.03319e-16 -0.866025
    outer loop
      vertex 1.55885 -5.25 -2.1
      vertex -1.16573e-15 -5.25 -1.2
      vertex -5.55112e-16 -2.5 -1.2
    endloop
  endfacet
  facet normal 0 0 -1
    outer loop
      vertex 3.5 8.75 2
      vertex 3.5 5.25 2
      vertex -3.5 8.75 2
    endloop
  endfacet
  facet normal 0 0 -1
    outer loop
      vertex -3.5 8.75 2
      vertex 3.5 5.25 2
      vertex -3.5 5.25 2
    endloop
  endfacet
  facet normal 0.5 -3.03319e-16 0.866025
    outer loop
      vertex 0 2.5 -4.8
      vertex 5.55112e-16 2.5 -4.8
      vertex 1.16573e-15 5.25 -4.8
    endloop
  endfacet
  facet normal 0.5 -3.03319e-16 0.866025
    outer loop
      vertex -1.55885 1.8543 -3.9
      vertex 0 2.5 -4.8
      vertex -1.55885 5.25 -3.9
    endloop
  endfacet
  facet normal 0.5 -3.03319e-16 0.866025
    outer loop
      vertex -1.55885 5.25 -3.9
      vertex 0 2.5 -4.8
      vertex 1.16573e-15 5.25 -4.8
    endloop
  endfacet
  facet normal 1 -2.22045e-16 0
    outer loop
      vertex -1.55885 5.25 -3.9
      vertex -1.55885 5.25 -2.1
      vertex -1.55885 1.8543 -2.1
    endloop
  endfacet
  facet normal 1 -2.22045e-16 0
    outer loop
      vertex -1.55885 1.8543 -3.9
      vertex -1.55885 5.25 -3.9
      vertex -1.55885 1.8543 -2.1
    endloop
  endfacet
  facet normal 0.5 8.1274e-17 -0.866025
    outer loop
      vertex 1.16573e-15 5.25 -1.2
      vertex 5.55112e-16 2.5 -1.2
      vertex -1.55885 5.25 -2.1
    endloop
  endfacet
  facet normal 0.5 8.1274e-17 -0.866025
    outer loop
      vertex -1.55885 5.25 -2.1
      vertex 5.55112e-16 2.5 -1.2
      vertex 0 2.5 -1.2
    endloop
  endfacet
  facet normal 0.5 8.1274e-17 -0.866025
    outer loop
      vertex -1.55885 5.25 -2.1
      vertex 0 2.5 -1.2
      vertex -1.55885 1.8543 -2.1
    endloop
  endfacet
  facet normal -0.5 3.03319e-16 -0.866025
    outer loop
      vertex 1.55885 5.25 -2.1
      vertex 1.55885 1.8543 -2.1
      vertex 1.16573e-15 5.25 -1.2
    endloop
  endfacet
  facet normal -0.5 3.03319e-16 -0.866025
    outer loop
      vertex 1.16573e-15 5.25 -1.2
      vertex 1.55885 1.8543 -2.1
      vertex 5.55112e-16 2.5 -1.2
    endloop
  endfacet
  facet normal -1 2.22045e-16 0
    outer loop
      vertex 1.55885 5.25 -2.1
      vertex 1.55885 5.25 -3.9
      vertex 1.55885 1.8543 -2.1
    endloop
  endfacet
  facet normal -1 2.22045e-16 0
    outer loop
      vertex 1.55885 1.8543 -2.1
      vertex 1.55885 5.25 -3.9
      vertex 1.55885 1.8543 -3.9
    endloop
  endfacet
  facet normal -0.5 -8.1274e-17 0.866025
    outer loop
      vertex 1.55885 1.8543 -3.9
      vertex 1.55885 5.25 -3.9
      vertex 1.16573e-15 5.25 -4.8
    endloop
  endfacet
  facet normal -0.5 -8.1274e-17 0.866025
    outer loop
      vertex 5.55112e-16 2.5 -4.8
      vertex 1.55885 1.8543 -3.9
      vertex 1.16573e-15 5.25 -4.8
    endloop
  endfacet
  facet normal 0 0 1
    outer loop
      vertex -2.99404 -2.65249 0
      vertex -1.41842 -3.74006 0
      vertex 0.482147 -3.97083 0
    endloop
  endfacet
  facet normal 0 0 1
    outer loop
      vertex 0 -2.5 0
      vertex -2.99404 -2.65249 0
      vertex 2.27226 -3.29194 0
    endloop
  endfacet
  facet normal 0 0 1
    outer loop
      vertex 2.27226 -3.29194 0
      vertex -2.99404 -2.65249 0
      vertex 0.482147 -3.97083 0
    endloop
  endfacet
  facet normal 0 0 1
    outer loop
      vertex 1.76777 -1.76777 0
      vertex 0 -2.5 0
      vertex 3.54182 -1.85889 0
    endloop
  endfacet
  facet normal 0 0 1
    outer loop
      vertex 2.5 0 0
      vertex 1.76777 -1.76777 0
      vertex 4 0 0
    endloop
  endfacet
  facet normal 0 0 1
    outer loop
      vertex 1.76777 1.76777 0
      vertex 2.5 0 0
      vertex 3.54182 1.85889 0
    endloop
  endfacet
  facet normal 0 0 1
    outer loop
      vertex -3.88377 0.957263 0
      vertex -2.99404 -2.65249 0
      vertex -2.99404 2.65249 0
    endloop
  endfacet
  facet normal 0 0 1
    outer loop
      vertex -3.88377 -0.957263 0
      vertex -2.99404 -2.65249 0
      vertex -3.88377 0.957263 0
    endloop
  endfacet
  facet normal 0 0 1
    outer loop
      vertex -2.99404 2.65249 0
      vertex -2.5 0 0
      vertex -1.41842 3.74006 0
    endloop
  endfacet
  facet normal 0 0 1
    outer loop
      vertex -2.99404 2.65249 0
      vertex -2.99404 -2.65249 0
      vertex -2.5 0 0
    endloop
  endfacet
  facet normal 0 0 1
    outer loop
      vertex -1.41842 3.74006 0
      vertex -1.76777 1.76777 0
      vertex 0.482147 3.97083 0
    endloop
  endfacet
  facet normal 0 0 1
    outer loop
      vertex -1.76777 1.76777 0
      vertex 0 2.5 0
      vertex 0.482147 3.97083 0
    endloop
  endfacet
  facet normal 0 0 1
    outer loop
      vertex 0.482147 3.97083 0
      vertex 0 2.5 0
      vertex 2.27226 3.29194 0
    endloop
  endfacet
  facet normal 0 0 1
    outer loop
      vertex 2.27226 3.29194 0
      vertex 1.76777 1.76777 0
      vertex 3.54182 1.85889 0
    endloop
  endfacet
  facet normal 0 0 1
    outer loop
      vertex 3.54182 1.85889 0
      vertex 2.5 0 0
      vertex 4 0 0
    endloop
  endfacet
  facet normal 0 0 1
    outer loop
      vertex 4 0 0
      vertex 1.76777 -1.76777 0
      vertex 3.54182 -1.85889 0
    endloop
  endfacet
  facet normal 0 0 1
    outer loop
      vertex 3.54182 -1.85889 0
      vertex 0 -2.5 0
      vertex 2.27226 -3.29194 0
    endloop
  endfacet
  facet normal 0 0 1
    outer loop
      vertex 0 -2.5 0
      vertex -1.76777 -1.76777 0
      vertex -2.99404 -2.65249 0
    endloop
  endfacet
  facet normal 0 0 1
    outer loop
      vertex -2.5 0 0
      vertex -1.76777 1.76777 0
      vertex -1.41842 3.74006 0
    endloop
  endfacet
  facet normal 0 0 1
    outer loop
      vertex 0 2.5 0
      vertex 1.76777 1.76777 0
      vertex 2.27226 3.29194 0
    endloop
  endfacet
  facet normal 0 0 1
    outer loop
      vertex -1.76777 -1.76777 0
      vertex -2.5 0 0
      vertex -2.99404 -2.65249 0
    endloop
  endfacet
  facet normal 1 0 0
    outer loop
      vertex -8.75 0 4.8
      vertex -8.75 3.5 7.5
      vertex -8.75 -3.5 7.5
    endloop
  endfacet
  facet normal 1 0 0
    outer loop
      vertex -8.75 -3.5 -2
      vertex -8.75 -1.55885 3.9
      vertex -8.75 -3.5 7.5
    endloop
  endfacet
  facet normal 1 0 0
    outer loop
      vertex -8.75 1.55885 3.9
      vertex -8.75 3.5 7.5
      vertex -8.75 0 4.8
    endloop
  endfacet
  facet normal 1 0 0
    outer loop
      vertex -8.75 3.5 -2
      vertex -8.75 3.5 7.5
      vertex -8.75 1.55885 3.9
    endloop
  endfacet
  facet normal 1 0 0
    outer loop
      vertex -8.75 3.5 -2
      vertex -8.75 1.55885 3.9
      vertex -8.75 1.55885 2.1
    endloop
  endfacet
  facet normal 1 0 0
    outer loop
      vertex -8.75 -3.5 -2
      vertex -8.75 3.5 -2
      vertex -8.75 0 1.2
    endloop
  endfacet
  facet normal 1 0 0
    outer loop
      vertex -8.75 -3.5 -2
      vertex -8.75 -1.55885 2.1
      vertex -8.75 -1.55885 3.9
    endloop
  endfacet
  facet normal 1 0 0
    outer loop
      vertex -8.75 -3.5 -2
      vertex -8.75 0 1.2
      vertex -8.75 -1.55885 2.1
    endloop
  endfacet
  facet normal 1 0 0
    outer loop
      vertex -8.75 -1.55885 3.9
      vertex -8.75 0 4.8
      vertex -8.75 -3.5 7.5
    endloop
  endfacet
  facet normal 1 0 0
    outer loop
      vertex -8.75 1.55885 2.1
      vertex -8.75 0 1.2
      vertex -8.75 3.5 -2
    endloop
  endfacet
  facet normal 0 1 0
    outer loop
      vertex -5.25 -3.5 7.5
      vertex -5.25 -3.5 -2
      vertex -8.75 -3.5 7.5
    endloop
  endfacet
  facet normal 0 1 0
    outer loop
      vertex -8.75 -3.5 7.5
      vertex -5.25 -3.5 -2
      vertex -8.75 -3.5 -2
    endloop
  endfacet
  facet normal -1 0 0
    outer loop
      vertex -5.25 -1.55885 3.9
      vertex -5.25 -3.5 7.5
      vertex -5.25 0 4.8
    endloop
  endfacet
  facet normal -1 0 0
    outer loop
      vertex -5.25 -1.55885 2.1
      vertex -5.25 3.5 -2
      vertex -5.25 -3.5 -2
    endloop
  endfacet
  facet normal -1 0 0
    outer loop
      vertex -5.25 0 1.2
      vertex -5.25 3.5 -2
      vertex -5.25 -1.55885 2.1
    endloop
  endfacet
  facet normal -1 0 0
    outer loop
      vertex -5.25 -3.5 7.5
      vertex -5.25 -1.55885 2.1
      vertex -5.25 -3.5 -2
    endloop
  endfacet
  facet normal -1 0 0
    outer loop
      vertex -5.25 3.5 7.5
      vertex -5.25 3.5 -2
      vertex -5.25 1.55885 2.1
    endloop
  endfacet
  facet normal -1 0 0
    outer loop
      vertex -5.25 3.5 7.5
      vertex -5.25 1.55885 2.1
      vertex -5.25 1.55885 3.9
    endloop
  endfacet
  facet normal -1 0 0
    outer loop
      vertex -5.25 3.5 7.5
      vertex -5.25 1.55885 3.9
      vertex -5.25 -3.5 7.5
    endloop
  endfacet
  facet normal -1 0 0
    outer loop
      vertex -5.25 1.55885 3.9
      vertex -5.25 0 4.8
      vertex -5.25 -3.5 7.5
    endloop
  endfacet
  facet normal -1 0 0
    outer loop
      vertex -5.25 -3.5 7.5
      vertex -5.25 -1.55885 3.9
      vertex -5.25 -1.55885 2.1
    endloop
  endfacet
  facet normal -1 0 0
    outer loop
      vertex -5.25 1.55885 2.1
      vertex -5.25 3.5 -2
      vertex -5.25 0 1.2
    endloop
  endfacet
  facet normal 0 -1 0
    outer loop
      vertex -5.25 3.5 -2
      vertex -5.25 3.5 7.5
      vertex -8.75 3.5 7.5
    endloop
  endfacet
  facet normal 0 -1 0
    outer loop
      vertex -8.75 3.5 -2
      vertex -5.25 3.5 -2
      vertex -8.75 3.5 7.5
    endloop
  endfacet
  facet normal 1 0 0
    outer loop
      vertex -3.88377 0 4.8
      vertex -3.88377 0.957263 4.24732
      vertex -3.88377 0.957263 7.5
    endloop
  endfacet
  facet normal 1 0 0
    outer loop
      vertex -3.88377 -0.957263 4.24732
      vertex -3.88377 0 4.8
      vertex -3.88377 -0.957263 7.5
    endloop
  endfacet
  facet normal 1 0 0
    outer loop
      vertex -3.88377 -0.957263 7.5
      vertex -3.88377 0 4.8
      vertex -3.88377 0.957263 7.5
    endloop
  endfacet
  facet normal 0.885456 0.464723 0
    outer loop
      vertex -2.99404 -2.65249 7.5
      vertex -3.56803 -1.55885 2.1
      vertex -3.56803 -1.55885 3.9
    endloop
  endfacet
  facet normal 0.885456 0.464723 0
    outer loop
      vertex -3.88377 -0.957263 1.75268
      vertex -3.56803 -1.55885 2.1
      vertex -2.99404 -2.65249 0
    endloop
  endfacet
  facet normal 0.885456 0.464723 0
    outer loop
      vertex -3.88377 -0.957263 4.24732
      vertex -3.88377 -0.957263 7.5
      vertex -3.56803 -1.55885 3.9
    endloop
  endfacet
  facet normal 0.885456 0.464723 0
    outer loop
      vertex -3.88377 -0.957263 7.5
      vertex -2.99404 -2.65249 7.5
      vertex -3.56803 -1.55885 3.9
    endloop
  endfacet
  facet normal 0.885456 0.464723 0
    outer loop
      vertex -2.99404 -2.65249 7.5
      vertex -2.99404 -2.65249 0
      vertex -3.56803 -1.55885 2.1
    endloop
  endfacet
  facet normal 0.885456 0.464723 0
    outer loop
      vertex -2.99404 -2.65249 0
      vertex -3.88377 -0.957263 0
      vertex -3.88377 -0.957263 1.75268
    endloop
  endfacet
  facet normal 0.568065 0.822984 0
    outer loop
      vertex -1.41842 -3.74006 7.5
      vertex -1.41842 -3.74006 0
      vertex -2.99404 -2.65249 7.5
    endloop
  endfacet
  facet normal 0.568065 0.822984 0
    outer loop
      vertex -2.99404 -2.65249 7.5
      vertex -1.41842 -3.74006 0
      vertex -2.99404 -2.65249 0
    endloop
  endfacet
  facet normal 0.120536 0.992709 0
    outer loop
      vertex 0.482147 -3.97083 7.5
      vertex 0.482147 -3.97083 0
      vertex -1.41842 -3.74006 7.5
    endloop
  endfacet
  facet normal 0.120536 0.992709 0
    outer loop
      vertex -1.41842 -3.74006 7.5
      vertex 0.482147 -3.97083 0
      vertex -1.41842 -3.74006 0
    endloop
  endfacet
  facet normal -0.354605 0.935016 0
    outer loop
      vertex 2.27226 -3.29194 7.5
      vertex 2.27226 -3.29194 0
      vertex 0.482147 -3.97083 7.5
    endloop
  endfacet
  facet normal -0.354605 0.935016 0
    outer loop
      vertex 0.482147 -3.97083 7.5
      vertex 2.27226 -3.29194 0
      vertex 0.482147 -3.97083 0
    endloop
  endfacet
  facet normal -0.748511 0.663123 0
    outer loop
      vertex 3.54182 -1.85889 7.5
      vertex 3.54182 -1.85889 0
      vertex 2.27226 -3.29194 7.5
    endloop
  endfacet
  facet normal -0.748511 0.663123 0
    outer loop
      vertex 2.27226 -3.29194 7.5
      vertex 3.54182 -1.85889 0
      vertex 2.27226 -3.29194 0
    endloop
  endfacet
  facet normal -0.970942 0.239316 0
    outer loop
      vertex 4 0 7.5
      vertex 4 0 4.8
      vertex 3.54182 -1.85889 7.5
    endloop
  endfacet
  facet normal -0.970942 0.239316 0
    outer loop
      vertex 3.54182 -1.85889 7.5
      vertex 4 0 4.8
      vertex 3.61578 -1.55885 3.9
    endloop
  endfacet
  facet normal -0.970942 0.239316 0
    outer loop
      vertex 3.54182 -1.85889 7.5
      vertex 3.61578 -1.55885 3.9
      vertex 3.61578 -1.55885 2.1
    endloop
  endfacet
  facet normal -0.970942 0.239316 0
    outer loop
      vertex 3.61578 -1.55885 2.1
      vertex 4 0 1.2
      vertex 4 0 0
    endloop
  endfacet
  facet normal -0.970942 0.239316 0
    outer loop
      vertex 3.61578 -1.55885 2.1
      vertex 4 0 0
      vertex 3.54182 -1.85889 0
    endloop
  endfacet
  facet normal -0.970942 0.239316 0
    outer loop
      vertex 3.61578 -1.55885 2.1
      vertex 3.54182 -1.85889 0
      vertex 3.54182 -1.85889 7.5
    endloop
  endfacet
  facet normal -0.970942 -0.239316 0
    outer loop
      vertex 4 0 1.2
      vertex 3.61578 1.55885 2.1
      vertex 4 0 0
    endloop
  endfacet
  facet normal -0.970942 -0.239316 0
    outer loop
      vertex 3.54182 1.85889 0
      vertex 3.61578 1.55885 2.1
      vertex 3.54182 1.85889 7.5
    endloop
  endfacet
  facet normal -0.970942 -0.239316 0
    outer loop
      vertex 4 0 7.5
      vertex 3.61578 1.55885 3.9
      vertex 4 0 4.8
    endloop
  endfacet
  facet normal -0.970942 -0.239316 0
    outer loop
      vertex 3.54182 1.85889 7.5
      vertex 3.61578 1.55885 3.9
      vertex 4 0 7.5
    endloop
  endfacet
  facet normal -0.970942 -0.239316 0
    outer loop
      vertex 3.61578 1.55885 2.1
      vertex 3.61578 1.55885 3.9
      vertex 3.54182 1.85889 7.5
    endloop
  endfacet
  facet normal -0.970942 -0.239316 0
    outer loop
      vertex 4 0 0
      vertex 3.61578 1.55885 2.1
      vertex 3.54182 1.85889 0
    endloop
  endfacet
  facet normal -0.748511 -0.663123 0
    outer loop
      vertex 3.54182 1.85889 7.5
      vertex 2.27226 3.29194 7.5
      vertex 3.54182 1.85889 0
    endloop
  endfacet
  facet normal -0.748511 -0.663123 0
    outer loop
      vertex 3.54182 1.85889 0
      vertex 2.27226 3.29194 7.5
      vertex 2.27226 3.29194 0
    endloop
  endfacet
  facet normal -0.354605 -0.935016 0
    outer loop
      vertex 2.27226 3.29194 0
      vertex 2.27226 3.29194 7.5
      vertex 0.482147 3.97083 7.5
    endloop
  endfacet
  facet normal -0.354605 -0.935016 0
    outer loop
      vertex 0.482147 3.97083 0
      vertex 2.27226 3.29194 0
      vertex 0.482147 3.97083 7.5
    endloop
  endfacet
  facet normal 0.120536 -0.992709 0
    outer loop
      vertex 0.482147 3.97083 0
      vertex 0.482147 3.97083 7.5
      vertex -1.41842 3.74006 7.5
    endloop
  endfacet
  facet normal 0.120536 -0.992709 0
    outer loop
      vertex -1.41842 3.74006 0
      vertex 0.482147 3.97083 0
      vertex -1.41842 3.74006 7.5
    endloop
  endfacet
  facet normal 0.568065 -0.822984 0
    outer loop
      vertex -1.41842 3.74006 0
      vertex -1.41842 3.74006 7.5
      vertex -2.99404 2.65249 7.5
    endloop
  endfacet
  facet normal 0.568065 -0.822984 0
    outer loop
      vertex -2.99404 2.65249 0
      vertex -1.41842 3.74006 0
      vertex -2.99404 2.65249 7.5
    endloop
  endfacet
  facet normal 0.885456 -0.464723 0
    outer loop
      vertex -2.99404 2.65249 0
      vertex -2.99404 2.65249 7.5
      vertex -3.88377 0.957263 7.5
    endloop
  endfacet
  facet normal 0.885456 -0.464723 0
    outer loop
      vertex -3.56803 1.55885 3.9
      vertex -2.99404 2.65249 0
      vertex -3.88377 0.957263 7.5
    endloop
  endfacet
  facet normal 0.885456 -0.464723 0
    outer loop
      vertex -3.88377 0.957263 4.24732
      vertex -3.56803 1.55885 3.9
      vertex -3.88377 0.957263 7.5
    endloop
  endfacet
  facet normal 0.885456 -0.464723 0
    outer loop
      vertex -3.88377 0.957263 1.75268
      vertex -2.99404 2.65249 0
      vertex -3.56803 1.55885 2.1
    endloop
  endfacet
  facet normal 0.885456 -0.464723 0
    outer loop
      vertex -3.88377 0.957263 0
      vertex -2.99404 2.65249 0
      vertex -3.88377 0.957263 1.75268
    endloop
  endfacet
  facet normal 0.885456 -0.464723 0
    outer loop
      vertex -3.56803 1.55885 3.9
      vertex -3.56803 1.55885 2.1
      vertex -2.99404 2.65249 0
    endloop
  endfacet
  facet normal 1 0 0
    outer loop
      vertex 5.25 0 4.8
      vertex 5.25 3.5 7.5
      vertex 5.25 -3.5 7.5
    endloop
  endfacet
  facet normal 1 0 0
    outer loop
      vertex 5.25 -3.5 -2
      vertex 5.25 -1.55885 3.9
      vertex 5.25 -3.5 7.5
    endloop
  endfacet
  facet normal 1 0 0
    outer loop
      vertex 5.25 1.55885 3.9
      vertex 5.25 3.5 7.5
      vertex 5.25 0 4.8
    endloop
  endfacet
  facet normal 1 0 0
    outer loop
      vertex 5.25 3.5 -2
      vertex 5.25 3.5 7.5
      vertex 5.25 1.55885 3.9
    endloop
  endfacet
  facet normal 1 0 0
    outer loop
      vertex 5.25 3.5 -2
      vertex 5.25 1.55885 3.9
      vertex 5.25 1.55885 2.1
    endloop
  endfacet
  facet normal 1 0 0
    outer loop
      vertex 5.25 -3.5 -2
      vertex 5.25 3.5 -2
      vertex 5.25 0 1.2
    endloop
  endfacet
  facet normal 1 0 0
    outer loop
      vertex 5.25 -3.5 -2
      vertex 5.25 -1.55885 2.1
      vertex 5.25 -1.55885 3.9
    endloop
  endfacet
  facet normal 1 0 0
    outer loop
      vertex 5.25 -3.5 -2
      vertex 5.25 0 1.2
      vertex 5.25 -1.55885 2.1
    endloop
  endfacet
  facet normal 1 0 0
    outer loop
      vertex 5.25 -1.55885 3.9
      vertex 5.25 0 4.8
      vertex 5.25 -3.5 7.5
    endloop
  endfacet
  facet normal 1 0 0
    outer loop
      vertex 5.25 1.55885 2.1
      vertex 5.25 0 1.2
      vertex 5.25 3.5 -2
    endloop
  endfacet
  facet normal 0 1 0
    outer loop
      vertex 8.75 -3.5 7.5
      vertex 8.75 -3.5 -2
      vertex 5.25 -3.5 7.5
    endloop
  endfacet
  facet normal 0 1 0
    outer loop
      vertex 5.25 -3.5 7.5
      vertex 8.75 -3.5 -2
      vertex 5.25 -3.5 -2
    endloop
  endfacet
  facet normal -1 0 0
    outer loop
      vertex 8.75 -1.55885 3.9
      vertex 8.75 -3.5 7.5
      vertex 8.75 0 4.8
    endloop
  endfacet
  facet normal -1 0 0
    outer loop
      vertex 8.75 -1.55885 2.1
      vertex 8.75 3.5 -2
      vertex 8.75 -3.5 -2
    endloop
  endfacet
  facet normal -1 0 0
    outer loop
      vertex 8.75 0 1.2
      vertex 8.75 3.5 -2
      vertex 8.75 -1.55885 2.1
    endloop
  endfacet
  facet normal -1 0 0
    outer loop
      vertex 8.75 -3.5 7.5
      vertex 8.75 -1.55885 2.1
      vertex 8.75 -3.5 -2
    endloop
  endfacet
  facet normal -1 0 0
    outer loop
      vertex 8.75 3.5 7.5
      vertex 8.75 3.5 -2
      vertex 8.75 1.55885 2.1
    endloop
  endfacet
  facet normal -1 0 0
    outer loop
      vertex 8.75 3.5 7.5
      vertex 8.75 1.55885 2.1
      vertex 8.75 1.55885 3.9
    endloop
  endfacet
  facet normal -1 0 0
    outer loop
      vertex 8.75 3.5 7.5
      vertex 8.75 1.55885 3.9
      vertex 8.75 -3.5 7.5
    endloop
  endfacet
  facet normal -1 0 0
    outer loop
      vertex 8.75 1.55885 3.9
      vertex 8.75 0 4.8
      vertex 8.75 -3.5 7.5
    endloop
  endfacet
  facet normal -1 0 0
    outer loop
      vertex 8.75 -3.5 7.5
      vertex 8.75 -1.55885 3.9
      vertex 8.75 -1.55885 2.1
    endloop
  endfacet
  facet normal -1 0 0
    outer loop
      vertex 8.75 1.55885 2.1
      vertex 8.75 3.5 -2
      vertex 8.75 0 1.2
    endloop
  endfacet
  facet normal 0 -1 0
    outer loop
      vertex 8.75 3.5 -2
      vertex 8.75 3.5 7.5
      vertex 5.25 3.5 7.5
    endloop
  endfacet
  facet normal 0 -1 0
    outer loop
      vertex 5.25 3.5 -2
      vertex 8.75 3.5 -2
      vertex 5.25 3.5 7.5
    endloop
  endfacet
  facet normal 1 0 0
    outer loop
      vertex -3.88377 0.957263 0
      vertex -3.88377 0.957263 1.75268
      vertex -3.88377 0 1.2
    endloop
  endfacet
  facet normal 1 0 0
    outer loop
      vertex -3.88377 -0.957263 1.75268
      vertex -3.88377 0.957263 0
      vertex -3.88377 0 1.2
    endloop
  endfacet
  facet normal 1 0 0
    outer loop
      vertex -3.88377 -0.957263 1.75268
      vertex -3.88377 -0.957263 0
      vertex -3.88377 0.957263 0
    endloop
  endfacet
  facet normal 0 0 1
    outer loop
      vertex -5.25 -3.5 -2
      vertex -5.25 3.5 -2
      vertex -8.75 3.5 -2
    endloop
  endfacet
  facet normal 0 0 1
    outer loop
      vertex -8.75 -3.5 -2
      vertex -5.25 -3.5 -2
      vertex -8.75 3.5 -2
    endloop
  endfacet
  facet normal 0 1 0
    outer loop
      vertex -3.56803 -1.55885 3.9
      vertex -3.56803 -1.55885 2.1
      vertex -5.25 -1.55885 3.9
    endloop
  endfacet
  facet normal 0 1 0
    outer loop
      vertex -5.25 -1.55885 3.9
      vertex -3.56803 -1.55885 2.1
      vertex -5.25 -1.55885 2.1
    endloop
  endfacet
  facet normal -1.92296e-16 0.5 0.866025
    outer loop
      vertex -3.56803 -1.55885 2.1
      vertex -3.88377 -0.957263 1.75268
      vertex -5.25 0 1.2
    endloop
  endfacet
  facet normal -1.92296e-16 0.5 0.866025
    outer loop
      vertex -5.25 0 1.2
      vertex -3.88377 -0.957263 1.75268
      vertex -3.88377 0 1.2
    endloop
  endfacet
  facet normal -1.92296e-16 0.5 0.866025
    outer loop
      vertex -3.56803 -1.55885 2.1
      vertex -5.25 0 1.2
      vertex -5.25 -1.55885 2.1
    endloop
  endfacet
  facet normal 1.92296e-16 0.5 -0.866025
    outer loop
      vertex -3.88377 0 4.8
      vertex -3.88377 -0.957263 4.24732
      vertex -5.25 0 4.8
    endloop
  endfacet
  facet normal 1.92296e-16 0.5 -0.866025
    outer loop
      vertex -5.25 0 4.8
      vertex -3.88377 -0.957263 4.24732
      vertex -3.56803 -1.55885 3.9
    endloop
  endfacet
  facet normal 1.92296e-16 0.5 -0.866025
    outer loop
      vertex -5.25 0 4.8
      vertex -3.56803 -1.55885 3.9
      vertex -5.25 -1.55885 3.9
    endloop
  endfacet
  facet normal 1.92296e-16 -0.5 -0.866025
    outer loop
      vertex -3.56803 1.55885 3.9
      vertex -3.88377 0.957263 4.24732
      vertex -5.25 1.55885 3.9
    endloop
  endfacet
  facet normal 1.92296e-16 -0.5 -0.866025
    outer loop
      vertex -5.25 1.55885 3.9
      vertex -3.88377 0.957263 4.24732
      vertex -3.88377 0 4.8
    endloop
  endfacet
  facet normal 1.92296e-16 -0.5 -0.866025
    outer loop
      vertex -5.25 1.55885 3.9
      vertex -3.88377 0 4.8
      vertex -5.25 0 4.8
    endloop
  endfacet
  facet normal 0 -1 0
    outer loop
      vertex -3.56803 1.55885 2.1
      vertex -3.56803 1.55885 3.9
      vertex -5.25 1.55885 3.9
    endloop
  endfacet
  facet normal 0 -1 0
    outer loop
      vertex -5.25 1.55885 2.1
      vertex -3.56803 1.55885 2.1
      vertex -5.25 1.55885 3.9
    endloop
  endfacet
  facet normal -1.92296e-16 -0.5 0.866025
    outer loop
      vertex -3.88377 0 1.2
      vertex -3.88377 0.957263 1.75268
      vertex -5.25 1.55885 2.1
    endloop
  endfacet
  facet normal -1.92296e-16 -0.5 0.866025
    outer loop
      vertex -5.25 1.55885 2.1
      vertex -3.88377 0.957263 1.75268
      vertex -3.56803 1.55885 2.1
    endloop
  endfacet
  facet normal -1.92296e-16 -0.5 0.866025
    outer loop
      vertex -3.88377 0 1.2
      vertex -5.25 1.55885 2.1
      vertex -5.25 0 1.2
    endloop
  endfacet
  facet normal -1.92296e-16 0.5 0.866025
    outer loop
      vertex 5.25 -1.55885 2.1
      vertex 5.25 0 1.2
      vertex 4 0 1.2
    endloop
  endfacet
  facet normal -1.92296e-16 0.5 0.866025
    outer loop
      vertex 3.61578 -1.55885 2.1
      vertex 5.25 -1.55885 2.1
      vertex 4 0 1.2
    endloop
  endfacet
  facet normal -1.92296e-16 -0.5 0.866025
    outer loop
      vertex 4 0 1.2
      vertex 5.25 0 1.2
      vertex 5.25 1.55885 2.1
    endloop
  endfacet
  facet normal -1.92296e-16 -0.5 0.866025
    outer loop
      vertex 3.61578 1.55885 2.1
      vertex 4 0 1.2
      vertex 5.25 1.55885 2.1
    endloop
  endfacet
  facet normal 0 1 0
    outer loop
      vertex 5.25 -1.55885 3.9
      vertex 5.25 -1.55885 2.1
      vertex 3.61578 -1.55885 3.9
    endloop
  endfacet
  facet normal 0 1 0
    outer loop
      vertex 3.61578 -1.55885 3.9
      vertex 5.25 -1.55885 2.1
      vertex 3.61578 -1.55885 2.1
    endloop
  endfacet
  facet normal 1.92296e-16 0.5 -0.866025
    outer loop
      vertex 5.25 0 4.8
      vertex 5.25 -1.55885 3.9
      vertex 4 0 4.8
    endloop
  endfacet
  facet normal 1.92296e-16 0.5 -0.866025
    outer loop
      vertex 4 0 4.8
      vertex 5.25 -1.55885 3.9
      vertex 3.61578 -1.55885 3.9
    endloop
  endfacet
  facet normal 1.92296e-16 -0.5 -0.866025
    outer loop
      vertex 5.25 0 4.8
      vertex 4 0 4.8
      vertex 5.25 1.55885 3.9
    endloop
  endfacet
  facet normal 1.92296e-16 -0.5 -0.866025
    outer loop
      vertex 5.25 1.55885 3.9
      vertex 4 0 4.8
      vertex 3.61578 1.55885 3.9
    endloop
  endfacet
  facet normal 0 -1 0
    outer loop
      vertex 5.25 1.55885 2.1
      vertex 5.25 1.55885 3.9
      vertex 3.61578 1.55885 3.9
    endloop
  endfacet
  facet normal 0 -1 0
    outer loop
      vertex 3.61578 1.55885 2.1
      vertex 5.25 1.55885 2.1
      vertex 3.61578 1.55885 3.9
    endloop
  endfacet
  facet normal 0 0 1
    outer loop
      vertex 8.75 -3.5 -2
      vertex 8.75 3.5 -2
      vertex 5.25 3.5 -2
    endloop
  endfacet
  facet normal 0 0 1
    outer loop
      vertex 5.25 -3.5 -2
      vertex 8.75 -3.5 -2
      vertex 5.25 3.5 -2
    endloop
  endfacet
endsolid OpenSCAD_Model
