solid OpenSCAD_Model
  facet normal 0 -1 -2.22045e-16
    outer loop
      vertex -5.96788 -25 1.93908
      vertex -6.275 -25 -5.55112e-15
      vertex -5.96788 -25 -1.93908
    endloop
  endfacet
  facet normal 0 -1 -2.22045e-16
    outer loop
      vertex -3.68835 -25 -5.07658
      vertex -5.96788 -25 1.93908
      vertex -5.07658 -25 -3.68835
    endloop
  endfacet
  facet normal 0 -1 -2.22045e-16
    outer loop
      vertex -5.07658 -25 -3.68835
      vertex -5.96788 -25 1.93908
      vertex -5.96788 -25 -1.93908
    endloop
  endfacet
  facet normal 0 -1 -2.22045e-16
    outer loop
      vertex -1.93908 -25 -5.96788
      vertex -5.96788 -25 1.93908
      vertex -3.68835 -25 -5.07658
    endloop
  endfacet
  facet normal 0 -1 -2.22045e-16
    outer loop
      vertex 0 -25 -6.275
      vertex -5.96788 -25 1.93908
      vertex -1.93908 -25 -5.96788
    endloop
  endfacet
  facet normal 0 -1 -2.22045e-16
    outer loop
      vertex -3.14234 -25 -0.922674
      vertex -5.96788 -25 1.93908
      vertex 0 -25 -6.275
    endloop
  endfacet
  facet normal 0 -1 -2.22045e-16
    outer loop
      vertex 3.275 -25 -5.55112e-15
      vertex 2.7551 -25 -1.7706
      vertex 5.96788 -25 -1.93908
    endloop
  endfacet
  facet normal 0 -1 -2.22045e-16
    outer loop
      vertex 6.275 -25 -5.55112e-15
      vertex 5.96788 -25 1.93908
      vertex 2.7551 -25 1.7706
    endloop
  endfacet
  facet normal 0 -1 -2.22045e-16
    outer loop
      vertex 2.7551 -25 1.7706
      vertex 3.275 -25 -5.55112e-15
      vertex 6.275 -25 -5.55112e-15
    endloop
  endfacet
  facet normal 0 -1 -2.22045e-16
    outer loop
      vertex 5.96788 -25 1.93908
      vertex 5.07658 -25 3.68835
      vertex 1.36048 -25 2.97904
    endloop
  endfacet
  facet normal 0 -1 -2.22045e-16
    outer loop
      vertex 44.0321 -25 -1.93908
      vertex 44.7128 -25 -3.275
      vertex 49.5339 -25 -3.24167
    endloop
  endfacet
  facet normal 0 -1 -2.22045e-16
    outer loop
      vertex 52.7551 -25 1.7706
      vertex 53.275 -25 -5.55112e-15
      vertex 56.275 -25 -5.55112e-15
    endloop
  endfacet
  facet normal 0 -1 -2.22045e-16
    outer loop
      vertex 44.7128 -25 -3.275
      vertex 50 -25 -6.275
      vertex 51.9391 -25 -5.96788
    endloop
  endfacet
  facet normal 0 -1 -2.22045e-16
    outer loop
      vertex 46.3116 -25 5.07658
      vertex 44.9234 -25 3.68835
      vertex 53.6884 -25 5.07658
    endloop
  endfacet
  facet normal 0 -1 -2.22045e-16
    outer loop
      vertex 50 -25 6.275
      vertex 48.0609 -25 5.96788
      vertex 51.9391 -25 5.96788
    endloop
  endfacet
  facet normal 0 -1 -2.22045e-16
    outer loop
      vertex 2.7551 -25 -1.7706
      vertex 1.36048 -25 -2.97905
      vertex 5.2872 -25 -3.275
    endloop
  endfacet
  facet normal 0 -1 -2.22045e-16
    outer loop
      vertex 51.9391 -25 5.96788
      vertex 46.3116 -25 5.07658
      vertex 53.6884 -25 5.07658
    endloop
  endfacet
  facet normal 0 -1 -2.22045e-16
    outer loop
      vertex -3.14234 -25 0.922674
      vertex -2.14467 -25 2.47508
      vertex -5.96788 -25 1.93908
    endloop
  endfacet
  facet normal 0 -1 -2.22045e-16
    outer loop
      vertex 53.6884 -25 5.07658
      vertex 44.9234 -25 3.68835
      vertex 55.0766 -25 3.68835
    endloop
  endfacet
  facet normal 0 -1 -2.22045e-16
    outer loop
      vertex 51.3605 -25 2.97904
      vertex 52.7551 -25 1.7706
      vertex 55.9679 -25 1.93908
    endloop
  endfacet
  facet normal 0 -1 -2.22045e-16
    outer loop
      vertex 56.275 -25 -5.55112e-15
      vertex 53.275 -25 -5.55112e-15
      vertex 55.9679 -25 -1.93908
    endloop
  endfacet
  facet normal 0 -1 -2.22045e-16
    outer loop
      vertex 49.5339 -25 -3.24167
      vertex 47.8553 -25 -2.47508
      vertex 44.0321 -25 -1.93908
    endloop
  endfacet
  facet normal 0 -1 -2.22045e-16
    outer loop
      vertex 55.0766 -25 -3.68835
      vertex 44.7128 -25 -3.275
      vertex 53.6884 -25 -5.07658
    endloop
  endfacet
  facet normal 0 -1 -2.22045e-16
    outer loop
      vertex 1.36048 -25 2.97904
      vertex 2.7551 -25 1.7706
      vertex 5.96788 -25 1.93908
    endloop
  endfacet
  facet normal 0 -1 -2.22045e-16
    outer loop
      vertex 50 -25 -6.275
      vertex 5.2872 -25 -3.275
      vertex 0 -25 -6.275
    endloop
  endfacet
  facet normal 0 -1 -2.22045e-16
    outer loop
      vertex 1.93908 -25 5.96788
      vertex -5.96788 -25 1.93908
      vertex 3.68835 -25 5.07658
    endloop
  endfacet
  facet normal 0 -1 -2.22045e-16
    outer loop
      vertex 0 -25 6.275
      vertex -5.96788 -25 1.93908
      vertex 1.93908 -25 5.96788
    endloop
  endfacet
  facet normal 0 -1 -2.22045e-16
    outer loop
      vertex -1.93908 -25 5.96788
      vertex -5.96788 -25 1.93908
      vertex 0 -25 6.275
    endloop
  endfacet
  facet normal 0 -1 -2.22045e-16
    outer loop
      vertex -3.68835 -25 5.07658
      vertex -5.96788 -25 1.93908
      vertex -1.93908 -25 5.96788
    endloop
  endfacet
  facet normal 0 -1 -2.22045e-16
    outer loop
      vertex -5.07658 -25 3.68835
      vertex -5.96788 -25 1.93908
      vertex -3.68835 -25 5.07658
    endloop
  endfacet
  facet normal 0 -1 -2.22045e-16
    outer loop
      vertex -2.14467 -25 -2.47508
      vertex -3.14234 -25 -0.922674
      vertex 0 -25 -6.275
    endloop
  endfacet
  facet normal 0 -1 -2.22045e-16
    outer loop
      vertex 47.8553 -25 -2.47508
      vertex 46.8577 -25 -0.922674
      vertex 44.0321 -25 -1.93908
    endloop
  endfacet
  facet normal 0 -1 -2.22045e-16
    outer loop
      vertex -3.14234 -25 -0.922674
      vertex -3.14234 -25 0.922674
      vertex -5.96788 -25 1.93908
    endloop
  endfacet
  facet normal 0 -1 -2.22045e-16
    outer loop
      vertex -0.466081 -25 3.24166
      vertex 1.36048 -25 2.97904
      vertex 5.07658 -25 3.68835
    endloop
  endfacet
  facet normal 0 -1 -2.22045e-16
    outer loop
      vertex 3.68835 -25 5.07658
      vertex -0.466081 -25 3.24166
      vertex 5.07658 -25 3.68835
    endloop
  endfacet
  facet normal 0 -1 -2.22045e-16
    outer loop
      vertex 3.68835 -25 5.07658
      vertex -5.96788 -25 1.93908
      vertex -0.466081 -25 3.24166
    endloop
  endfacet
  facet normal 0 -1 -2.22045e-16
    outer loop
      vertex 43.725 -25 -5.55112e-15
      vertex 44.0321 -25 -1.93908
      vertex 46.8577 -25 -0.922674
    endloop
  endfacet
  facet normal 0 -1 -2.22045e-16
    outer loop
      vertex -2.14467 -25 2.47508
      vertex -0.466081 -25 3.24166
      vertex -5.96788 -25 1.93908
    endloop
  endfacet
  facet normal 0 -1 -2.22045e-16
    outer loop
      vertex 6.275 -25 -5.55112e-15
      vertex 3.275 -25 -5.55112e-15
      vertex 5.96788 -25 -1.93908
    endloop
  endfacet
  facet normal 0 -1 -2.22045e-16
    outer loop
      vertex 46.8577 -25 0.922674
      vertex 47.8553 -25 2.47508
      vertex 44.0321 -25 1.93908
    endloop
  endfacet
  facet normal 0 -1 -2.22045e-16
    outer loop
      vertex 5.96788 -25 -1.93908
      vertex 2.7551 -25 -1.7706
      vertex 5.2872 -25 -3.275
    endloop
  endfacet
  facet normal 0 -1 -2.22045e-16
    outer loop
      vertex 5.2872 -25 -3.275
      vertex 1.36048 -25 -2.97905
      vertex 0 -25 -6.275
    endloop
  endfacet
  facet normal 0 -1 -2.22045e-16
    outer loop
      vertex 51.3605 -25 -2.97905
      vertex 49.5339 -25 -3.24167
      vertex 55.0766 -25 -3.68835
    endloop
  endfacet
  facet normal 0 -1 -2.22045e-16
    outer loop
      vertex 1.36048 -25 -2.97905
      vertex -0.466081 -25 -3.24167
      vertex 0 -25 -6.275
    endloop
  endfacet
  facet normal 0 -1 -2.22045e-16
    outer loop
      vertex -0.466081 -25 -3.24167
      vertex -2.14467 -25 -2.47508
      vertex 0 -25 -6.275
    endloop
  endfacet
  facet normal 0 -1 -2.22045e-16
    outer loop
      vertex 44.7128 -25 -3.275
      vertex 51.9391 -25 -5.96788
      vertex 53.6884 -25 -5.07658
    endloop
  endfacet
  facet normal 0 -1 -2.22045e-16
    outer loop
      vertex 49.5339 -25 3.24166
      vertex 51.3605 -25 2.97904
      vertex 55.0766 -25 3.68835
    endloop
  endfacet
  facet normal 0 -1 -2.22045e-16
    outer loop
      vertex 55.0766 -25 3.68835
      vertex 51.3605 -25 2.97904
      vertex 55.9679 -25 1.93908
    endloop
  endfacet
  facet normal 0 -1 -2.22045e-16
    outer loop
      vertex 55.9679 -25 1.93908
      vertex 52.7551 -25 1.7706
      vertex 56.275 -25 -5.55112e-15
    endloop
  endfacet
  facet normal 0 -1 -2.22045e-16
    outer loop
      vertex 47.8553 -25 2.47508
      vertex 49.5339 -25 3.24166
      vertex 44.0321 -25 1.93908
    endloop
  endfacet
  facet normal 0 -1 -2.22045e-16
    outer loop
      vertex 53.275 -25 -5.55112e-15
      vertex 52.7551 -25 -1.7706
      vertex 55.9679 -25 -1.93908
    endloop
  endfacet
  facet normal 0 -1 -2.22045e-16
    outer loop
      vertex 52.7551 -25 -1.7706
      vertex 51.3605 -25 -2.97905
      vertex 55.9679 -25 -1.93908
    endloop
  endfacet
  facet normal 0 -1 -2.22045e-16
    outer loop
      vertex 55.9679 -25 -1.93908
      vertex 51.3605 -25 -2.97905
      vertex 55.0766 -25 -3.68835
    endloop
  endfacet
  facet normal 0 -1 -2.22045e-16
    outer loop
      vertex 55.0766 -25 -3.68835
      vertex 49.5339 -25 -3.24167
      vertex 44.7128 -25 -3.275
    endloop
  endfacet
  facet normal 0 -1 -2.22045e-16
    outer loop
      vertex 46.8577 -25 -0.922674
      vertex 46.8577 -25 0.922674
      vertex 43.725 -25 -5.55112e-15
    endloop
  endfacet
  facet normal 0 -1 -2.22045e-16
    outer loop
      vertex 48.0609 -25 5.96788
      vertex 46.3116 -25 5.07658
      vertex 51.9391 -25 5.96788
    endloop
  endfacet
  facet normal 0 -1 -2.22045e-16
    outer loop
      vertex 44.9234 -25 3.68835
      vertex 49.5339 -25 3.24166
      vertex 55.0766 -25 3.68835
    endloop
  endfacet
  facet normal 0 -1 -2.22045e-16
    outer loop
      vertex 44.9234 -25 3.68835
      vertex 44.0321 -25 1.93908
      vertex 49.5339 -25 3.24166
    endloop
  endfacet
  facet normal 0 -1 -2.22045e-16
    outer loop
      vertex 44.0321 -25 1.93908
      vertex 43.725 -25 -5.55112e-15
      vertex 46.8577 -25 0.922674
    endloop
  endfacet
  facet normal 0 -1 -2.22045e-16
    outer loop
      vertex 44.7128 -25 -3.275
      vertex 5.2872 -25 -3.275
      vertex 50 -25 -6.275
    endloop
  endfacet
  facet normal -0.987688 3.47354e-17 -0.156434
    outer loop
      vertex -6.275 -25 -5.55112e-15
      vertex -6.275 25 5.55112e-15
      vertex -5.96788 -25 -1.93908
    endloop
  endfacet
  facet normal -0.987688 3.47354e-17 -0.156434
    outer loop
      vertex -5.96788 -25 -1.93908
      vertex -6.275 25 5.55112e-15
      vertex -5.96788 25 -1.93908
    endloop
  endfacet
  facet normal -0.987688 -3.47354e-17 0.156434
    outer loop
      vertex -6.275 -25 -5.55112e-15
      vertex -5.96788 -25 1.93908
      vertex -6.275 25 5.55112e-15
    endloop
  endfacet
  facet normal -0.987688 -3.47354e-17 0.156434
    outer loop
      vertex -6.275 25 5.55112e-15
      vertex -5.96788 -25 1.93908
      vertex -5.96788 25 1.93908
    endloop
  endfacet
  facet normal -0.891006 -1.00806e-16 0.453991
    outer loop
      vertex -5.96788 -25 1.93908
      vertex -5.07658 -25 3.68835
      vertex -5.96788 25 1.93908
    endloop
  endfacet
  facet normal -0.891006 -1.00806e-16 0.453991
    outer loop
      vertex -5.96788 25 1.93908
      vertex -5.07658 -25 3.68835
      vertex -5.07658 25 3.68835
    endloop
  endfacet
  facet normal -0.707107 -1.57009e-16 0.707107
    outer loop
      vertex -5.07658 -25 3.68835
      vertex -3.68835 -25 5.07658
      vertex -5.07658 25 3.68835
    endloop
  endfacet
  facet normal -0.707107 -1.57009e-16 0.707107
    outer loop
      vertex -5.07658 25 3.68835
      vertex -3.68835 -25 5.07658
      vertex -3.68835 25 5.07658
    endloop
  endfacet
  facet normal -0.453991 -1.97843e-16 0.891006
    outer loop
      vertex -3.68835 25 5.07658
      vertex -3.68835 -25 5.07658
      vertex -1.93908 -25 5.96788
    endloop
  endfacet
  facet normal -0.453991 -1.97843e-16 0.891006
    outer loop
      vertex -1.93908 25 5.96788
      vertex -3.68835 25 5.07658
      vertex -1.93908 -25 5.96788
    endloop
  endfacet
  facet normal -0.156434 -2.19311e-16 0.987688
    outer loop
      vertex -1.93908 25 5.96788
      vertex -1.93908 -25 5.96788
      vertex 0 -25 6.275
    endloop
  endfacet
  facet normal -0.156434 -2.19311e-16 0.987688
    outer loop
      vertex 0 25 6.275
      vertex -1.93908 25 5.96788
      vertex 0 -25 6.275
    endloop
  endfacet
  facet normal 0.156434 -2.19311e-16 0.987688
    outer loop
      vertex 0 25 6.275
      vertex 0 -25 6.275
      vertex 1.93908 -25 5.96788
    endloop
  endfacet
  facet normal 0.156434 -2.19311e-16 0.987688
    outer loop
      vertex 1.93908 25 5.96788
      vertex 0 25 6.275
      vertex 1.93908 -25 5.96788
    endloop
  endfacet
  facet normal 0.453991 -1.97843e-16 0.891006
    outer loop
      vertex 1.93908 25 5.96788
      vertex 1.93908 -25 5.96788
      vertex 3.68835 -25 5.07658
    endloop
  endfacet
  facet normal 0.453991 -1.97843e-16 0.891006
    outer loop
      vertex 3.68835 25 5.07658
      vertex 1.93908 25 5.96788
      vertex 3.68835 -25 5.07658
    endloop
  endfacet
  facet normal 0.707107 -1.57009e-16 0.707107
    outer loop
      vertex 3.68835 25 5.07658
      vertex 3.68835 -25 5.07658
      vertex 5.07658 -25 3.68835
    endloop
  endfacet
  facet normal 0.707107 -1.57009e-16 0.707107
    outer loop
      vertex 5.07658 25 3.68835
      vertex 3.68835 25 5.07658
      vertex 5.07658 -25 3.68835
    endloop
  endfacet
  facet normal 0.891006 -1.00806e-16 0.453991
    outer loop
      vertex 5.07658 25 3.68835
      vertex 5.07658 -25 3.68835
      vertex 5.96788 -25 1.93908
    endloop
  endfacet
  facet normal 0.891006 -1.00806e-16 0.453991
    outer loop
      vertex 5.96788 25 1.93908
      vertex 5.07658 25 3.68835
      vertex 5.96788 -25 1.93908
    endloop
  endfacet
  facet normal 0.987688 -3.47354e-17 0.156434
    outer loop
      vertex 5.96788 25 1.93908
      vertex 5.96788 -25 1.93908
      vertex 6.275 -25 -5.55112e-15
    endloop
  endfacet
  facet normal 0.987688 -3.47354e-17 0.156434
    outer loop
      vertex 6.275 25 5.55112e-15
      vertex 5.96788 25 1.93908
      vertex 6.275 -25 -5.55112e-15
    endloop
  endfacet
  facet normal 0.987688 3.47354e-17 -0.156434
    outer loop
      vertex 6.275 -25 -5.55112e-15
      vertex 5.96788 -25 -1.93908
      vertex 5.96788 25 -1.93908
    endloop
  endfacet
  facet normal 0.987688 3.47354e-17 -0.156434
    outer loop
      vertex 6.275 25 5.55112e-15
      vertex 6.275 -25 -5.55112e-15
      vertex 5.96788 25 -1.93908
    endloop
  endfacet
  facet normal 0.891006 1.00806e-16 -0.453991
    outer loop
      vertex 5.96788 -25 -1.93908
      vertex 5.2872 -25 -3.275
      vertex 5.2872 25 -3.275
    endloop
  endfacet
  facet normal 0.891006 1.00806e-16 -0.453991
    outer loop
      vertex 5.96788 25 -1.93908
      vertex 5.96788 -25 -1.93908
      vertex 5.2872 25 -3.275
    endloop
  endfacet
  facet normal 0 -2.22045e-16 1
    outer loop
      vertex 26.5331 -14.5863 -3.275
      vertex 5.2872 -25 -3.275
      vertex 44.7128 -25 -3.275
    endloop
  endfacet
  facet normal 0 -2.22045e-16 1
    outer loop
      vertex 5.2872 25 -3.275
      vertex 5.2872 -25 -3.275
      vertex 10.6538 -3.04937 -3.275
    endloop
  endfacet
  facet normal 0 -2.22045e-16 1
    outer loop
      vertex 5.2872 25 -3.275
      vertex 10.6538 -3.04937 -3.275
      vertex 10.3333 1.72085e-16 -3.275
    endloop
  endfacet
  facet normal 0 -2.22045e-16 1
    outer loop
      vertex 5.2872 25 -3.275
      vertex 10.3333 1.72085e-16 -3.275
      vertex 10.6538 3.04937 -3.275
    endloop
  endfacet
  facet normal 0 -2.22045e-16 1
    outer loop
      vertex 29.5322 -13.9488 -3.275
      vertex 26.5331 -14.5863 -3.275
      vertex 44.7128 -25 -3.275
    endloop
  endfacet
  facet normal 0 -2.22045e-16 1
    outer loop
      vertex 5.2872 25 -3.275
      vertex 10.6538 3.04937 -3.275
      vertex 11.6013 5.96547 -3.275
    endloop
  endfacet
  facet normal 0 -2.22045e-16 1
    outer loop
      vertex 5.2872 25 -3.275
      vertex 11.6013 5.96547 -3.275
      vertex 13.1344 8.62085 -3.275
    endloop
  endfacet
  facet normal 0 -2.22045e-16 1
    outer loop
      vertex 5.2872 25 -3.275
      vertex 13.1344 8.62085 -3.275
      vertex 15.1861 10.8995 -3.275
    endloop
  endfacet
  facet normal 0 -2.22045e-16 1
    outer loop
      vertex 44.7128 25 -3.275
      vertex 5.2872 25 -3.275
      vertex 17.6667 12.7017 -3.275
    endloop
  endfacet
  facet normal 0 -2.22045e-16 1
    outer loop
      vertex 44.7128 25 -3.275
      vertex 17.6667 12.7017 -3.275
      vertex 20.4678 13.9488 -3.275
    endloop
  endfacet
  facet normal 0 -2.22045e-16 1
    outer loop
      vertex 44.7128 25 -3.275
      vertex 20.4678 13.9488 -3.275
      vertex 23.4669 14.5863 -3.275
    endloop
  endfacet
  facet normal 0 -2.22045e-16 1
    outer loop
      vertex 44.7128 25 -3.275
      vertex 23.4669 14.5863 -3.275
      vertex 26.5331 14.5863 -3.275
    endloop
  endfacet
  facet normal 0 -2.22045e-16 1
    outer loop
      vertex 36.8656 -8.62085 -3.275
      vertex 34.8139 -10.8995 -3.275
      vertex 44.7128 -25 -3.275
    endloop
  endfacet
  facet normal 0 -2.22045e-16 1
    outer loop
      vertex 44.7128 25 -3.275
      vertex 26.5331 14.5863 -3.275
      vertex 29.5322 13.9488 -3.275
    endloop
  endfacet
  facet normal 0 -2.22045e-16 1
    outer loop
      vertex 44.7128 25 -3.275
      vertex 29.5322 13.9488 -3.275
      vertex 32.3333 12.7017 -3.275
    endloop
  endfacet
  facet normal 0 -2.22045e-16 1
    outer loop
      vertex 38.3987 -5.96547 -3.275
      vertex 36.8656 -8.62085 -3.275
      vertex 44.7128 -25 -3.275
    endloop
  endfacet
  facet normal 0 -2.22045e-16 1
    outer loop
      vertex 44.7128 25 -3.275
      vertex 32.3333 12.7017 -3.275
      vertex 34.8139 10.8995 -3.275
    endloop
  endfacet
  facet normal 0 -2.22045e-16 1
    outer loop
      vertex 44.7128 25 -3.275
      vertex 34.8139 10.8995 -3.275
      vertex 36.8656 8.62085 -3.275
    endloop
  endfacet
  facet normal 0 -2.22045e-16 1
    outer loop
      vertex 39.3462 -3.04937 -3.275
      vertex 38.3987 -5.96547 -3.275
      vertex 44.7128 -25 -3.275
    endloop
  endfacet
  facet normal 0 -2.22045e-16 1
    outer loop
      vertex 44.7128 25 -3.275
      vertex 36.8656 8.62085 -3.275
      vertex 38.3987 5.96547 -3.275
    endloop
  endfacet
  facet normal 0 -2.22045e-16 1
    outer loop
      vertex 44.7128 25 -3.275
      vertex 39.3462 3.04937 -3.275
      vertex 44.7128 -25 -3.275
    endloop
  endfacet
  facet normal 0 -2.22045e-16 1
    outer loop
      vertex 44.7128 25 -3.275
      vertex 38.3987 5.96547 -3.275
      vertex 39.3462 3.04937 -3.275
    endloop
  endfacet
  facet normal 0 -2.22045e-16 1
    outer loop
      vertex 39.3462 3.04937 -3.275
      vertex 39.6667 1.72085e-16 -3.275
      vertex 44.7128 -25 -3.275
    endloop
  endfacet
  facet normal 0 -2.22045e-16 1
    outer loop
      vertex 23.4669 -14.5863 -3.275
      vertex 5.2872 -25 -3.275
      vertex 26.5331 -14.5863 -3.275
    endloop
  endfacet
  facet normal 0 -2.22045e-16 1
    outer loop
      vertex 20.4678 -13.9488 -3.275
      vertex 5.2872 -25 -3.275
      vertex 23.4669 -14.5863 -3.275
    endloop
  endfacet
  facet normal 0 -2.22045e-16 1
    outer loop
      vertex 17.6667 -12.7017 -3.275
      vertex 5.2872 -25 -3.275
      vertex 20.4678 -13.9488 -3.275
    endloop
  endfacet
  facet normal 0 -2.22045e-16 1
    outer loop
      vertex 15.1861 -10.8995 -3.275
      vertex 5.2872 -25 -3.275
      vertex 17.6667 -12.7017 -3.275
    endloop
  endfacet
  facet normal 0 -2.22045e-16 1
    outer loop
      vertex 13.1344 -8.62085 -3.275
      vertex 5.2872 -25 -3.275
      vertex 15.1861 -10.8995 -3.275
    endloop
  endfacet
  facet normal 0 -2.22045e-16 1
    outer loop
      vertex 11.6013 -5.96547 -3.275
      vertex 5.2872 -25 -3.275
      vertex 13.1344 -8.62085 -3.275
    endloop
  endfacet
  facet normal 0 -2.22045e-16 1
    outer loop
      vertex 10.6538 -3.04937 -3.275
      vertex 5.2872 -25 -3.275
      vertex 11.6013 -5.96547 -3.275
    endloop
  endfacet
  facet normal 0 -2.22045e-16 1
    outer loop
      vertex 32.3333 -12.7017 -3.275
      vertex 29.5322 -13.9488 -3.275
      vertex 44.7128 -25 -3.275
    endloop
  endfacet
  facet normal 0 -2.22045e-16 1
    outer loop
      vertex 15.1861 10.8995 -3.275
      vertex 17.6667 12.7017 -3.275
      vertex 5.2872 25 -3.275
    endloop
  endfacet
  facet normal 0 -2.22045e-16 1
    outer loop
      vertex 39.6667 1.72085e-16 -3.275
      vertex 39.3462 -3.04937 -3.275
      vertex 44.7128 -25 -3.275
    endloop
  endfacet
  facet normal 0 -2.22045e-16 1
    outer loop
      vertex 34.8139 -10.8995 -3.275
      vertex 32.3333 -12.7017 -3.275
      vertex 44.7128 -25 -3.275
    endloop
  endfacet
  facet normal -0.891006 1.00806e-16 -0.453991
    outer loop
      vertex 44.0321 -25 -1.93908
      vertex 44.0321 25 -1.93908
      vertex 44.7128 -25 -3.275
    endloop
  endfacet
  facet normal -0.891006 1.00806e-16 -0.453991
    outer loop
      vertex 44.7128 -25 -3.275
      vertex 44.0321 25 -1.93908
      vertex 44.7128 25 -3.275
    endloop
  endfacet
  facet normal -0.987688 3.47354e-17 -0.156434
    outer loop
      vertex 43.725 -25 -5.55112e-15
      vertex 43.725 25 5.55112e-15
      vertex 44.0321 -25 -1.93908
    endloop
  endfacet
  facet normal -0.987688 3.47354e-17 -0.156434
    outer loop
      vertex 44.0321 -25 -1.93908
      vertex 43.725 25 5.55112e-15
      vertex 44.0321 25 -1.93908
    endloop
  endfacet
  facet normal -0.987688 -3.47354e-17 0.156434
    outer loop
      vertex 43.725 -25 -5.55112e-15
      vertex 44.0321 -25 1.93908
      vertex 43.725 25 5.55112e-15
    endloop
  endfacet
  facet normal -0.987688 -3.47354e-17 0.156434
    outer loop
      vertex 43.725 25 5.55112e-15
      vertex 44.0321 -25 1.93908
      vertex 44.0321 25 1.93908
    endloop
  endfacet
  facet normal -0.891006 -1.00806e-16 0.453991
    outer loop
      vertex 44.0321 -25 1.93908
      vertex 44.9234 -25 3.68835
      vertex 44.0321 25 1.93908
    endloop
  endfacet
  facet normal -0.891006 -1.00806e-16 0.453991
    outer loop
      vertex 44.0321 25 1.93908
      vertex 44.9234 -25 3.68835
      vertex 44.9234 25 3.68835
    endloop
  endfacet
  facet normal -0.707107 -1.57009e-16 0.707107
    outer loop
      vertex 44.9234 -25 3.68835
      vertex 46.3116 -25 5.07658
      vertex 44.9234 25 3.68835
    endloop
  endfacet
  facet normal -0.707107 -1.57009e-16 0.707107
    outer loop
      vertex 44.9234 25 3.68835
      vertex 46.3116 -25 5.07658
      vertex 46.3116 25 5.07658
    endloop
  endfacet
  facet normal -0.453991 -1.97843e-16 0.891006
    outer loop
      vertex 46.3116 25 5.07658
      vertex 46.3116 -25 5.07658
      vertex 48.0609 -25 5.96788
    endloop
  endfacet
  facet normal -0.453991 -1.97843e-16 0.891006
    outer loop
      vertex 48.0609 25 5.96788
      vertex 46.3116 25 5.07658
      vertex 48.0609 -25 5.96788
    endloop
  endfacet
  facet normal -0.156434 -2.19311e-16 0.987688
    outer loop
      vertex 48.0609 25 5.96788
      vertex 48.0609 -25 5.96788
      vertex 50 -25 6.275
    endloop
  endfacet
  facet normal -0.156434 -2.19311e-16 0.987688
    outer loop
      vertex 50 25 6.275
      vertex 48.0609 25 5.96788
      vertex 50 -25 6.275
    endloop
  endfacet
  facet normal 0.156434 -2.19311e-16 0.987688
    outer loop
      vertex 50 25 6.275
      vertex 50 -25 6.275
      vertex 51.9391 -25 5.96788
    endloop
  endfacet
  facet normal 0.156434 -2.19311e-16 0.987688
    outer loop
      vertex 51.9391 25 5.96788
      vertex 50 25 6.275
      vertex 51.9391 -25 5.96788
    endloop
  endfacet
  facet normal 0.453991 -1.97843e-16 0.891006
    outer loop
      vertex 51.9391 25 5.96788
      vertex 51.9391 -25 5.96788
      vertex 53.6884 -25 5.07658
    endloop
  endfacet
  facet normal 0.453991 -1.97843e-16 0.891006
    outer loop
      vertex 53.6884 25 5.07658
      vertex 51.9391 25 5.96788
      vertex 53.6884 -25 5.07658
    endloop
  endfacet
  facet normal 0.707107 -1.57009e-16 0.707107
    outer loop
      vertex 53.6884 25 5.07658
      vertex 53.6884 -25 5.07658
      vertex 55.0766 -25 3.68835
    endloop
  endfacet
  facet normal 0.707107 -1.57009e-16 0.707107
    outer loop
      vertex 55.0766 25 3.68835
      vertex 53.6884 25 5.07658
      vertex 55.0766 -25 3.68835
    endloop
  endfacet
  facet normal 0.891006 -1.00806e-16 0.453991
    outer loop
      vertex 55.0766 25 3.68835
      vertex 55.0766 -25 3.68835
      vertex 55.9679 -25 1.93908
    endloop
  endfacet
  facet normal 0.891006 -1.00806e-16 0.453991
    outer loop
      vertex 55.9679 25 1.93908
      vertex 55.0766 25 3.68835
      vertex 55.9679 -25 1.93908
    endloop
  endfacet
  facet normal 0.987688 -3.47354e-17 0.156434
    outer loop
      vertex 55.9679 25 1.93908
      vertex 55.9679 -25 1.93908
      vertex 56.275 -25 -5.55112e-15
    endloop
  endfacet
  facet normal 0.987688 -3.47354e-17 0.156434
    outer loop
      vertex 56.275 25 5.55112e-15
      vertex 55.9679 25 1.93908
      vertex 56.275 -25 -5.55112e-15
    endloop
  endfacet
  facet normal 0.987688 3.47354e-17 -0.156434
    outer loop
      vertex 56.275 -25 -5.55112e-15
      vertex 55.9679 -25 -1.93908
      vertex 55.9679 25 -1.93908
    endloop
  endfacet
  facet normal 0.987688 3.47354e-17 -0.156434
    outer loop
      vertex 56.275 25 5.55112e-15
      vertex 56.275 -25 -5.55112e-15
      vertex 55.9679 25 -1.93908
    endloop
  endfacet
  facet normal 0.891006 1.00806e-16 -0.453991
    outer loop
      vertex 55.9679 -25 -1.93908
      vertex 55.0766 -25 -3.68835
      vertex 55.0766 25 -3.68835
    endloop
  endfacet
  facet normal 0.891006 1.00806e-16 -0.453991
    outer loop
      vertex 55.9679 25 -1.93908
      vertex 55.9679 -25 -1.93908
      vertex 55.0766 25 -3.68835
    endloop
  endfacet
  facet normal 0.707107 1.57009e-16 -0.707107
    outer loop
      vertex 55.0766 -25 -3.68835
      vertex 53.6884 -25 -5.07658
      vertex 53.6884 25 -5.07658
    endloop
  endfacet
  facet normal 0.707107 1.57009e-16 -0.707107
    outer loop
      vertex 55.0766 25 -3.68835
      vertex 55.0766 -25 -3.68835
      vertex 53.6884 25 -5.07658
    endloop
  endfacet
  facet normal 0.453991 1.97843e-16 -0.891006
    outer loop
      vertex 51.9391 -25 -5.96788
      vertex 51.9391 25 -5.96788
      vertex 53.6884 -25 -5.07658
    endloop
  endfacet
  facet normal 0.453991 1.97843e-16 -0.891006
    outer loop
      vertex 53.6884 -25 -5.07658
      vertex 51.9391 25 -5.96788
      vertex 53.6884 25 -5.07658
    endloop
  endfacet
  facet normal 0.156434 2.19311e-16 -0.987688
    outer loop
      vertex 50 -25 -6.275
      vertex 50 25 -6.275
      vertex 51.9391 -25 -5.96788
    endloop
  endfacet
  facet normal 0.156434 2.19311e-16 -0.987688
    outer loop
      vertex 51.9391 -25 -5.96788
      vertex 50 25 -6.275
      vertex 51.9391 25 -5.96788
    endloop
  endfacet
  facet normal 0 2.22045e-16 -1
    outer loop
      vertex 27.6765 2.97258 -6.275
      vertex 0 25 -6.275
      vertex 50 25 -6.275
    endloop
  endfacet
  facet normal 0 2.22045e-16 -1
    outer loop
      vertex 0 -25 -6.275
      vertex 0 25 -6.275
      vertex 21.0874 0.831647 -6.275
    endloop
  endfacet
  facet normal 0 2.22045e-16 -1
    outer loop
      vertex 0 -25 -6.275
      vertex 21.0874 0.831647 -6.275
      vertex 21.0874 -0.831647 -6.275
    endloop
  endfacet
  facet normal 0 2.22045e-16 -1
    outer loop
      vertex 0 -25 -6.275
      vertex 21.0874 -0.831647 -6.275
      vertex 21.7639 -2.35114 -6.275
    endloop
  endfacet
  facet normal 0 2.22045e-16 -1
    outer loop
      vertex 0 -25 -6.275
      vertex 21.7639 -2.35114 -6.275
      vertex 23 -3.4641 -6.275
    endloop
  endfacet
  facet normal 0 2.22045e-16 -1
    outer loop
      vertex 0 -25 -6.275
      vertex 23 -3.4641 -6.275
      vertex 50 -25 -6.275
    endloop
  endfacet
  facet normal 0 2.22045e-16 -1
    outer loop
      vertex 26.2361 -3.80423 -6.275
      vertex 50 -25 -6.275
      vertex 24.5819 -3.97809 -6.275
    endloop
  endfacet
  facet normal 0 2.22045e-16 -1
    outer loop
      vertex 27.6765 -2.97258 -6.275
      vertex 50 -25 -6.275
      vertex 26.2361 -3.80423 -6.275
    endloop
  endfacet
  facet normal 0 2.22045e-16 -1
    outer loop
      vertex 28.6542 -1.62695 -6.275
      vertex 50 -25 -6.275
      vertex 27.6765 -2.97258 -6.275
    endloop
  endfacet
  facet normal 0 2.22045e-16 -1
    outer loop
      vertex 21.7639 2.35114 -6.275
      vertex 0 25 -6.275
      vertex 23 3.4641 -6.275
    endloop
  endfacet
  facet normal 0 2.22045e-16 -1
    outer loop
      vertex 50 -25 -6.275
      vertex 28.6542 -1.62695 -6.275
      vertex 50 25 -6.275
    endloop
  endfacet
  facet normal 0 2.22045e-16 -1
    outer loop
      vertex 28.6542 -1.62695 -6.275
      vertex 29 0 -6.275
      vertex 50 25 -6.275
    endloop
  endfacet
  facet normal 0 2.22045e-16 -1
    outer loop
      vertex 23 3.4641 -6.275
      vertex 0 25 -6.275
      vertex 24.5819 3.97809 -6.275
    endloop
  endfacet
  facet normal 0 2.22045e-16 -1
    outer loop
      vertex 29 0 -6.275
      vertex 28.6542 1.62695 -6.275
      vertex 50 25 -6.275
    endloop
  endfacet
  facet normal 0 2.22045e-16 -1
    outer loop
      vertex 26.2361 3.80423 -6.275
      vertex 0 25 -6.275
      vertex 27.6765 2.97258 -6.275
    endloop
  endfacet
  facet normal 0 2.22045e-16 -1
    outer loop
      vertex 28.6542 1.62695 -6.275
      vertex 27.6765 2.97258 -6.275
      vertex 50 25 -6.275
    endloop
  endfacet
  facet normal 0 2.22045e-16 -1
    outer loop
      vertex 24.5819 3.97809 -6.275
      vertex 0 25 -6.275
      vertex 26.2361 3.80423 -6.275
    endloop
  endfacet
  facet normal 0 2.22045e-16 -1
    outer loop
      vertex 21.0874 0.831647 -6.275
      vertex 0 25 -6.275
      vertex 21.7639 2.35114 -6.275
    endloop
  endfacet
  facet normal 0 2.22045e-16 -1
    outer loop
      vertex 24.5819 -3.97809 -6.275
      vertex 50 -25 -6.275
      vertex 23 -3.4641 -6.275
    endloop
  endfacet
  facet normal -0.156434 2.19311e-16 -0.987688
    outer loop
      vertex -1.93908 -25 -5.96788
      vertex -1.93908 25 -5.96788
      vertex 0 -25 -6.275
    endloop
  endfacet
  facet normal -0.156434 2.19311e-16 -0.987688
    outer loop
      vertex 0 -25 -6.275
      vertex -1.93908 25 -5.96788
      vertex 0 25 -6.275
    endloop
  endfacet
  facet normal -0.453991 1.97843e-16 -0.891006
    outer loop
      vertex -3.68835 -25 -5.07658
      vertex -3.68835 25 -5.07658
      vertex -1.93908 -25 -5.96788
    endloop
  endfacet
  facet normal -0.453991 1.97843e-16 -0.891006
    outer loop
      vertex -1.93908 -25 -5.96788
      vertex -3.68835 25 -5.07658
      vertex -1.93908 25 -5.96788
    endloop
  endfacet
  facet normal -0.707107 1.57009e-16 -0.707107
    outer loop
      vertex -5.07658 -25 -3.68835
      vertex -5.07658 25 -3.68835
      vertex -3.68835 -25 -5.07658
    endloop
  endfacet
  facet normal -0.707107 1.57009e-16 -0.707107
    outer loop
      vertex -3.68835 -25 -5.07658
      vertex -5.07658 25 -3.68835
      vertex -3.68835 25 -5.07658
    endloop
  endfacet
  facet normal -0.891006 1.00806e-16 -0.453991
    outer loop
      vertex -5.96788 -25 -1.93908
      vertex -5.96788 25 -1.93908
      vertex -5.07658 -25 -3.68835
    endloop
  endfacet
  facet normal -0.891006 1.00806e-16 -0.453991
    outer loop
      vertex -5.07658 -25 -3.68835
      vertex -5.96788 25 -1.93908
      vertex -5.07658 25 -3.68835
    endloop
  endfacet
  facet normal 0.841254 -1.20046e-16 0.540641
    outer loop
      vertex -2.14467 -25 -2.47508
      vertex -2.14467 25 -2.47508
      vertex -3.14234 25 -0.922674
    endloop
  endfacet
  facet normal 0.841254 -1.20046e-16 0.540641
    outer loop
      vertex -3.14234 -25 -0.922674
      vertex -2.14467 -25 -2.47508
      vertex -3.14234 25 -0.922674
    endloop
  endfacet
  facet normal 1 0 0
    outer loop
      vertex -3.14234 -25 -0.922674
      vertex -3.14234 25 -0.922674
      vertex -3.14234 25 0.922674
    endloop
  endfacet
  facet normal 1 0 0
    outer loop
      vertex -3.14234 -25 0.922674
      vertex -3.14234 -25 -0.922674
      vertex -3.14234 25 0.922674
    endloop
  endfacet
  facet normal 0.415415 -2.01979e-16 0.909632
    outer loop
      vertex -0.466081 -25 -3.24167
      vertex -0.466081 25 -3.24166
      vertex -2.14467 25 -2.47508
    endloop
  endfacet
  facet normal 0.415415 -2.01979e-16 0.909632
    outer loop
      vertex -2.14467 -25 -2.47508
      vertex -0.466081 -25 -3.24167
      vertex -2.14467 25 -2.47508
    endloop
  endfacet
  facet normal -0.142315 -2.19785e-16 0.989821
    outer loop
      vertex 1.36048 -25 -2.97905
      vertex 1.36048 25 -2.97904
      vertex -0.466081 25 -3.24166
    endloop
  endfacet
  facet normal -0.142315 -2.19785e-16 0.989821
    outer loop
      vertex -0.466081 -25 -3.24167
      vertex 1.36048 -25 -2.97905
      vertex -0.466081 25 -3.24166
    endloop
  endfacet
  facet normal -0.654861 -1.6781e-16 0.75575
    outer loop
      vertex 2.7551 -25 -1.7706
      vertex 2.7551 25 -1.7706
      vertex 1.36048 25 -2.97904
    endloop
  endfacet
  facet normal -0.654861 -1.6781e-16 0.75575
    outer loop
      vertex 1.36048 -25 -2.97905
      vertex 2.7551 -25 -1.7706
      vertex 1.36048 25 -2.97904
    endloop
  endfacet
  facet normal -0.959493 -6.25572e-17 0.281733
    outer loop
      vertex 3.275 25 5.55112e-15
      vertex 2.7551 25 -1.7706
      vertex 3.275 -25 -5.55112e-15
    endloop
  endfacet
  facet normal -0.959493 -6.25572e-17 0.281733
    outer loop
      vertex 3.275 -25 -5.55112e-15
      vertex 2.7551 25 -1.7706
      vertex 2.7551 -25 -1.7706
    endloop
  endfacet
  facet normal -0.959493 6.25572e-17 -0.281733
    outer loop
      vertex 3.275 25 5.55112e-15
      vertex 3.275 -25 -5.55112e-15
      vertex 2.7551 25 1.7706
    endloop
  endfacet
  facet normal -0.959493 6.25572e-17 -0.281733
    outer loop
      vertex 2.7551 25 1.7706
      vertex 3.275 -25 -5.55112e-15
      vertex 2.7551 -25 1.7706
    endloop
  endfacet
  facet normal -0.654861 1.6781e-16 -0.75575
    outer loop
      vertex 2.7551 25 1.7706
      vertex 2.7551 -25 1.7706
      vertex 1.36048 25 2.97905
    endloop
  endfacet
  facet normal -0.654861 1.6781e-16 -0.75575
    outer loop
      vertex 1.36048 25 2.97905
      vertex 2.7551 -25 1.7706
      vertex 1.36048 -25 2.97904
    endloop
  endfacet
  facet normal -0.142315 2.19785e-16 -0.989821
    outer loop
      vertex 1.36048 25 2.97905
      vertex 1.36048 -25 2.97904
      vertex -0.466081 25 3.24167
    endloop
  endfacet
  facet normal -0.142315 2.19785e-16 -0.989821
    outer loop
      vertex -0.466081 25 3.24167
      vertex 1.36048 -25 2.97904
      vertex -0.466081 -25 3.24166
    endloop
  endfacet
  facet normal 0.415415 2.01979e-16 -0.909632
    outer loop
      vertex -0.466081 25 3.24167
      vertex -0.466081 -25 3.24166
      vertex -2.14467 25 2.47508
    endloop
  endfacet
  facet normal 0.415415 2.01979e-16 -0.909632
    outer loop
      vertex -2.14467 25 2.47508
      vertex -0.466081 -25 3.24166
      vertex -2.14467 -25 2.47508
    endloop
  endfacet
  facet normal 0.841254 1.20046e-16 -0.540641
    outer loop
      vertex -3.14234 25 0.922674
      vertex -2.14467 25 2.47508
      vertex -2.14467 -25 2.47508
    endloop
  endfacet
  facet normal 0.841254 1.20046e-16 -0.540641
    outer loop
      vertex -3.14234 -25 0.922674
      vertex -3.14234 25 0.922674
      vertex -2.14467 -25 2.47508
    endloop
  endfacet
  facet normal 0.841254 -1.20046e-16 0.540641
    outer loop
      vertex 47.8553 -25 -2.47508
      vertex 47.8553 25 -2.47508
      vertex 46.8577 25 -0.922674
    endloop
  endfacet
  facet normal 0.841254 -1.20046e-16 0.540641
    outer loop
      vertex 46.8577 -25 -0.922674
      vertex 47.8553 -25 -2.47508
      vertex 46.8577 25 -0.922674
    endloop
  endfacet
  facet normal 1 0 0
    outer loop
      vertex 46.8577 -25 -0.922674
      vertex 46.8577 25 -0.922674
      vertex 46.8577 25 0.922674
    endloop
  endfacet
  facet normal 1 0 0
    outer loop
      vertex 46.8577 -25 0.922674
      vertex 46.8577 -25 -0.922674
      vertex 46.8577 25 0.922674
    endloop
  endfacet
  facet normal 0.415415 -2.01979e-16 0.909632
    outer loop
      vertex 49.5339 -25 -3.24167
      vertex 49.5339 25 -3.24166
      vertex 47.8553 25 -2.47508
    endloop
  endfacet
  facet normal 0.415415 -2.01979e-16 0.909632
    outer loop
      vertex 47.8553 -25 -2.47508
      vertex 49.5339 -25 -3.24167
      vertex 47.8553 25 -2.47508
    endloop
  endfacet
  facet normal -0.142315 -2.19785e-16 0.989821
    outer loop
      vertex 51.3605 -25 -2.97905
      vertex 51.3605 25 -2.97904
      vertex 49.5339 25 -3.24166
    endloop
  endfacet
  facet normal -0.142315 -2.19785e-16 0.989821
    outer loop
      vertex 49.5339 -25 -3.24167
      vertex 51.3605 -25 -2.97905
      vertex 49.5339 25 -3.24166
    endloop
  endfacet
  facet normal -0.654861 -1.6781e-16 0.75575
    outer loop
      vertex 52.7551 -25 -1.7706
      vertex 52.7551 25 -1.7706
      vertex 51.3605 25 -2.97904
    endloop
  endfacet
  facet normal -0.654861 -1.6781e-16 0.75575
    outer loop
      vertex 51.3605 -25 -2.97905
      vertex 52.7551 -25 -1.7706
      vertex 51.3605 25 -2.97904
    endloop
  endfacet
  facet normal -0.959493 -6.25572e-17 0.281733
    outer loop
      vertex 53.275 25 5.55112e-15
      vertex 52.7551 25 -1.7706
      vertex 53.275 -25 -5.55112e-15
    endloop
  endfacet
  facet normal -0.959493 -6.25572e-17 0.281733
    outer loop
      vertex 53.275 -25 -5.55112e-15
      vertex 52.7551 25 -1.7706
      vertex 52.7551 -25 -1.7706
    endloop
  endfacet
  facet normal -0.959493 6.25572e-17 -0.281733
    outer loop
      vertex 53.275 25 5.55112e-15
      vertex 53.275 -25 -5.55112e-15
      vertex 52.7551 25 1.7706
    endloop
  endfacet
  facet normal -0.959493 6.25572e-17 -0.281733
    outer loop
      vertex 52.7551 25 1.7706
      vertex 53.275 -25 -5.55112e-15
      vertex 52.7551 -25 1.7706
    endloop
  endfacet
  facet normal -0.654861 1.6781e-16 -0.75575
    outer loop
      vertex 52.7551 25 1.7706
      vertex 52.7551 -25 1.7706
      vertex 51.3605 25 2.97905
    endloop
  endfacet
  facet normal -0.654861 1.6781e-16 -0.75575
    outer loop
      vertex 51.3605 25 2.97905
      vertex 52.7551 -25 1.7706
      vertex 51.3605 -25 2.97904
    endloop
  endfacet
  facet normal -0.142315 2.19785e-16 -0.989821
    outer loop
      vertex 51.3605 25 2.97905
      vertex 51.3605 -25 2.97904
      vertex 49.5339 25 3.24167
    endloop
  endfacet
  facet normal -0.142315 2.19785e-16 -0.989821
    outer loop
      vertex 49.5339 25 3.24167
      vertex 51.3605 -25 2.97904
      vertex 49.5339 -25 3.24166
    endloop
  endfacet
  facet normal 0.415415 2.01979e-16 -0.909632
    outer loop
      vertex 49.5339 25 3.24167
      vertex 49.5339 -25 3.24166
      vertex 47.8553 25 2.47508
    endloop
  endfacet
  facet normal 0.415415 2.01979e-16 -0.909632
    outer loop
      vertex 47.8553 25 2.47508
      vertex 49.5339 -25 3.24166
      vertex 47.8553 -25 2.47508
    endloop
  endfacet
  facet normal 0.841254 1.20046e-16 -0.540641
    outer loop
      vertex 46.8577 25 0.922674
      vertex 47.8553 25 2.47508
      vertex 47.8553 -25 2.47508
    endloop
  endfacet
  facet normal 0.841254 1.20046e-16 -0.540641
    outer loop
      vertex 46.8577 -25 0.922674
      vertex 46.8577 25 0.922674
      vertex 47.8553 -25 2.47508
    endloop
  endfacet
  facet normal 0 1 2.22045e-16
    outer loop
      vertex -6.275 25 5.55112e-15
      vertex -5.96788 25 1.93908
      vertex -5.96788 25 -1.93908
    endloop
  endfacet
  facet normal 0 1 2.22045e-16
    outer loop
      vertex -5.96788 25 -1.93908
      vertex -5.96788 25 1.93908
      vertex -5.07658 25 3.68835
    endloop
  endfacet
  facet normal 0 1 2.22045e-16
    outer loop
      vertex -5.96788 25 -1.93908
      vertex -5.07658 25 3.68835
      vertex -3.68835 25 5.07658
    endloop
  endfacet
  facet normal 0 1 2.22045e-16
    outer loop
      vertex -5.96788 25 -1.93908
      vertex -3.68835 25 5.07658
      vertex -1.93908 25 5.96788
    endloop
  endfacet
  facet normal 0 1 2.22045e-16
    outer loop
      vertex -5.96788 25 -1.93908
      vertex -1.93908 25 5.96788
      vertex 0 25 6.275
    endloop
  endfacet
  facet normal 0 1 2.22045e-16
    outer loop
      vertex -2.14467 25 2.47508
      vertex 0 25 6.275
      vertex 1.93908 25 5.96788
    endloop
  endfacet
  facet normal 0 1 2.22045e-16
    outer loop
      vertex -0.466081 25 3.24167
      vertex 1.93908 25 5.96788
      vertex 3.68835 25 5.07658
    endloop
  endfacet
  facet normal 0 1 2.22045e-16
    outer loop
      vertex 1.36048 25 2.97905
      vertex 3.68835 25 5.07658
      vertex 5.07658 25 3.68835
    endloop
  endfacet
  facet normal 0 1 2.22045e-16
    outer loop
      vertex 2.7551 25 1.7706
      vertex 5.07658 25 3.68835
      vertex 5.96788 25 1.93908
    endloop
  endfacet
  facet normal 0 1 2.22045e-16
    outer loop
      vertex 3.275 25 5.55112e-15
      vertex 5.96788 25 1.93908
      vertex 6.275 25 5.55112e-15
    endloop
  endfacet
  facet normal 0 1 2.22045e-16
    outer loop
      vertex 2.7551 25 -1.7706
      vertex 6.275 25 5.55112e-15
      vertex 5.96788 25 -1.93908
    endloop
  endfacet
  facet normal 0 1 2.22045e-16
    outer loop
      vertex 44.7128 25 -3.275
      vertex 44.0321 25 -1.93908
      vertex 43.725 25 5.55112e-15
    endloop
  endfacet
  facet normal 0 1 2.22045e-16
    outer loop
      vertex 43.725 25 5.55112e-15
      vertex 44.0321 25 1.93908
      vertex 44.7128 25 -3.275
    endloop
  endfacet
  facet normal 0 1 2.22045e-16
    outer loop
      vertex 44.7128 25 -3.275
      vertex 44.0321 25 1.93908
      vertex 44.9234 25 3.68835
    endloop
  endfacet
  facet normal 0 1 2.22045e-16
    outer loop
      vertex 44.7128 25 -3.275
      vertex 44.9234 25 3.68835
      vertex 46.3116 25 5.07658
    endloop
  endfacet
  facet normal 0 1 2.22045e-16
    outer loop
      vertex 44.7128 25 -3.275
      vertex 46.3116 25 5.07658
      vertex 48.0609 25 5.96788
    endloop
  endfacet
  facet normal 0 1 2.22045e-16
    outer loop
      vertex 46.8577 25 0.922674
      vertex 48.0609 25 5.96788
      vertex 50 25 6.275
    endloop
  endfacet
  facet normal 0 1 2.22045e-16
    outer loop
      vertex 49.5339 25 3.24167
      vertex 50 25 6.275
      vertex 51.9391 25 5.96788
    endloop
  endfacet
  facet normal 0 1 2.22045e-16
    outer loop
      vertex 52.7551 25 1.7706
      vertex 55.0766 25 3.68835
      vertex 55.9679 25 1.93908
    endloop
  endfacet
  facet normal 0 1 2.22045e-16
    outer loop
      vertex 53.275 25 5.55112e-15
      vertex 55.9679 25 1.93908
      vertex 56.275 25 5.55112e-15
    endloop
  endfacet
  facet normal 0 1 2.22045e-16
    outer loop
      vertex 52.7551 25 -1.7706
      vertex 56.275 25 5.55112e-15
      vertex 55.9679 25 -1.93908
    endloop
  endfacet
  facet normal 0 1 2.22045e-16
    outer loop
      vertex 51.3605 25 -2.97904
      vertex 55.9679 25 -1.93908
      vertex 55.0766 25 -3.68835
    endloop
  endfacet
  facet normal 0 1 2.22045e-16
    outer loop
      vertex 44.7128 25 -3.275
      vertex 55.0766 25 -3.68835
      vertex 5.2872 25 -3.275
    endloop
  endfacet
  facet normal 0 1 2.22045e-16
    outer loop
      vertex 5.2872 25 -3.275
      vertex 55.0766 25 -3.68835
      vertex 53.6884 25 -5.07658
    endloop
  endfacet
  facet normal 0 1 2.22045e-16
    outer loop
      vertex 5.2872 25 -3.275
      vertex 53.6884 25 -5.07658
      vertex 51.9391 25 -5.96788
    endloop
  endfacet
  facet normal 0 1 2.22045e-16
    outer loop
      vertex 5.2872 25 -3.275
      vertex 51.9391 25 -5.96788
      vertex 50 25 -6.275
    endloop
  endfacet
  facet normal 0 1 2.22045e-16
    outer loop
      vertex 5.2872 25 -3.275
      vertex 50 25 -6.275
      vertex 0 25 -6.275
    endloop
  endfacet
  facet normal 0 1 2.22045e-16
    outer loop
      vertex 47.8553 25 2.47508
      vertex 50 25 6.275
      vertex 49.5339 25 3.24167
    endloop
  endfacet
  facet normal 0 1 2.22045e-16
    outer loop
      vertex -2.14467 25 -2.47508
      vertex 0 25 -6.275
      vertex -5.96788 25 -1.93908
    endloop
  endfacet
  facet normal 0 1 2.22045e-16
    outer loop
      vertex -3.14234 25 -0.922674
      vertex -5.96788 25 -1.93908
      vertex -3.14234 25 0.922674
    endloop
  endfacet
  facet normal 0 1 2.22045e-16
    outer loop
      vertex -5.96788 25 -1.93908
      vertex -1.93908 25 -5.96788
      vertex -3.68835 25 -5.07658
    endloop
  endfacet
  facet normal 0 1 2.22045e-16
    outer loop
      vertex -5.96788 25 -1.93908
      vertex -3.68835 25 -5.07658
      vertex -5.07658 25 -3.68835
    endloop
  endfacet
  facet normal 0 1 2.22045e-16
    outer loop
      vertex -5.96788 25 -1.93908
      vertex 0 25 6.275
      vertex -3.14234 25 0.922674
    endloop
  endfacet
  facet normal 0 1 2.22045e-16
    outer loop
      vertex 3.275 25 5.55112e-15
      vertex 6.275 25 5.55112e-15
      vertex 2.7551 25 -1.7706
    endloop
  endfacet
  facet normal 0 1 2.22045e-16
    outer loop
      vertex -2.14467 25 -2.47508
      vertex -5.96788 25 -1.93908
      vertex -3.14234 25 -0.922674
    endloop
  endfacet
  facet normal 0 1 2.22045e-16
    outer loop
      vertex 52.7551 25 1.7706
      vertex 55.9679 25 1.93908
      vertex 53.275 25 5.55112e-15
    endloop
  endfacet
  facet normal 0 1 2.22045e-16
    outer loop
      vertex -0.466081 25 -3.24166
      vertex 0 25 -6.275
      vertex -2.14467 25 -2.47508
    endloop
  endfacet
  facet normal 0 1 2.22045e-16
    outer loop
      vertex 2.7551 25 -1.7706
      vertex 5.2872 25 -3.275
      vertex 1.36048 25 -2.97904
    endloop
  endfacet
  facet normal 0 1 2.22045e-16
    outer loop
      vertex 5.2872 25 -3.275
      vertex 0 25 -6.275
      vertex -0.466081 25 -3.24166
    endloop
  endfacet
  facet normal 0 1 2.22045e-16
    outer loop
      vertex 5.2872 25 -3.275
      vertex -0.466081 25 -3.24166
      vertex 1.36048 25 -2.97904
    endloop
  endfacet
  facet normal 0 1 2.22045e-16
    outer loop
      vertex 1.36048 25 2.97905
      vertex 5.07658 25 3.68835
      vertex 2.7551 25 1.7706
    endloop
  endfacet
  facet normal 0 1 2.22045e-16
    outer loop
      vertex 2.7551 25 1.7706
      vertex 5.96788 25 1.93908
      vertex 3.275 25 5.55112e-15
    endloop
  endfacet
  facet normal 0 1 2.22045e-16
    outer loop
      vertex 2.7551 25 -1.7706
      vertex 5.96788 25 -1.93908
      vertex 5.2872 25 -3.275
    endloop
  endfacet
  facet normal 0 1 2.22045e-16
    outer loop
      vertex -3.14234 25 0.922674
      vertex 0 25 6.275
      vertex -2.14467 25 2.47508
    endloop
  endfacet
  facet normal 0 1 2.22045e-16
    outer loop
      vertex 46.8577 25 -0.922674
      vertex 44.7128 25 -3.275
      vertex 46.8577 25 0.922674
    endloop
  endfacet
  facet normal 0 1 2.22045e-16
    outer loop
      vertex 44.7128 25 -3.275
      vertex 48.0609 25 5.96788
      vertex 46.8577 25 0.922674
    endloop
  endfacet
  facet normal 0 1 2.22045e-16
    outer loop
      vertex 47.8553 25 2.47508
      vertex 46.8577 25 0.922674
      vertex 50 25 6.275
    endloop
  endfacet
  facet normal 0 1 2.22045e-16
    outer loop
      vertex 47.8553 25 -2.47508
      vertex 44.7128 25 -3.275
      vertex 46.8577 25 -0.922674
    endloop
  endfacet
  facet normal 0 1 2.22045e-16
    outer loop
      vertex 49.5339 25 -3.24166
      vertex 44.7128 25 -3.275
      vertex 47.8553 25 -2.47508
    endloop
  endfacet
  facet normal 0 1 2.22045e-16
    outer loop
      vertex 52.7551 25 -1.7706
      vertex 55.9679 25 -1.93908
      vertex 51.3605 25 -2.97904
    endloop
  endfacet
  facet normal 0 1 2.22045e-16
    outer loop
      vertex 44.7128 25 -3.275
      vertex 49.5339 25 -3.24166
      vertex 55.0766 25 -3.68835
    endloop
  endfacet
  facet normal 0 1 2.22045e-16
    outer loop
      vertex 49.5339 25 -3.24166
      vertex 51.3605 25 -2.97904
      vertex 55.0766 25 -3.68835
    endloop
  endfacet
  facet normal 0 1 2.22045e-16
    outer loop
      vertex 53.275 25 5.55112e-15
      vertex 56.275 25 5.55112e-15
      vertex 52.7551 25 -1.7706
    endloop
  endfacet
  facet normal 0 1 2.22045e-16
    outer loop
      vertex 49.5339 25 3.24167
      vertex 51.9391 25 5.96788
      vertex 53.6884 25 5.07658
    endloop
  endfacet
  facet normal 0 1 2.22045e-16
    outer loop
      vertex 51.3605 25 2.97905
      vertex 53.6884 25 5.07658
      vertex 55.0766 25 3.68835
    endloop
  endfacet
  facet normal 0 1 2.22045e-16
    outer loop
      vertex 51.3605 25 2.97905
      vertex 55.0766 25 3.68835
      vertex 52.7551 25 1.7706
    endloop
  endfacet
  facet normal 0 1 2.22045e-16
    outer loop
      vertex 49.5339 25 3.24167
      vertex 53.6884 25 5.07658
      vertex 51.3605 25 2.97905
    endloop
  endfacet
  facet normal 0 1 2.22045e-16
    outer loop
      vertex -1.93908 25 -5.96788
      vertex -5.96788 25 -1.93908
      vertex 0 25 -6.275
    endloop
  endfacet
  facet normal 0 1 2.22045e-16
    outer loop
      vertex -2.14467 25 2.47508
      vertex 1.93908 25 5.96788
      vertex -0.466081 25 3.24167
    endloop
  endfacet
  facet normal 0 1 2.22045e-16
    outer loop
      vertex -0.466081 25 3.24167
      vertex 3.68835 25 5.07658
      vertex 1.36048 25 2.97905
    endloop
  endfacet
  facet normal -0.994522 -0.104529 0
    outer loop
      vertex 10.3333 1.72085e-16 3.225
      vertex 10.3333 1.72085e-16 -3.275
      vertex 10.6538 -3.04937 3.225
    endloop
  endfacet
  facet normal -0.994522 -0.104529 0
    outer loop
      vertex 10.6538 -3.04937 3.225
      vertex 10.3333 1.72085e-16 -3.275
      vertex 10.6538 -3.04937 -3.275
    endloop
  endfacet
  facet normal -0.951057 -0.309017 0
    outer loop
      vertex 10.6538 -3.04937 3.225
      vertex 10.6538 -3.04937 -3.275
      vertex 11.6013 -5.96547 3.225
    endloop
  endfacet
  facet normal -0.951057 -0.309017 0
    outer loop
      vertex 11.6013 -5.96547 3.225
      vertex 10.6538 -3.04937 -3.275
      vertex 11.6013 -5.96547 -3.275
    endloop
  endfacet
  facet normal -0.866025 -0.5 0
    outer loop
      vertex 11.6013 -5.96547 3.225
      vertex 11.6013 -5.96547 -3.275
      vertex 13.1344 -8.62085 3.225
    endloop
  endfacet
  facet normal -0.866025 -0.5 0
    outer loop
      vertex 13.1344 -8.62085 3.225
      vertex 11.6013 -5.96547 -3.275
      vertex 13.1344 -8.62085 -3.275
    endloop
  endfacet
  facet normal -0.743145 -0.669131 0
    outer loop
      vertex 13.1344 -8.62085 3.225
      vertex 13.1344 -8.62085 -3.275
      vertex 15.1861 -10.8995 3.225
    endloop
  endfacet
  facet normal -0.743145 -0.669131 0
    outer loop
      vertex 15.1861 -10.8995 3.225
      vertex 13.1344 -8.62085 -3.275
      vertex 15.1861 -10.8995 -3.275
    endloop
  endfacet
  facet normal -0.587785 -0.809017 0
    outer loop
      vertex 17.6667 -12.7017 3.225
      vertex 15.1861 -10.8995 3.225
      vertex 15.1861 -10.8995 -3.275
    endloop
  endfacet
  facet normal -0.587785 -0.809017 0
    outer loop
      vertex 17.6667 -12.7017 -3.275
      vertex 17.6667 -12.7017 3.225
      vertex 15.1861 -10.8995 -3.275
    endloop
  endfacet
  facet normal -0.406737 -0.913545 0
    outer loop
      vertex 20.4678 -13.9488 3.225
      vertex 17.6667 -12.7017 3.225
      vertex 17.6667 -12.7017 -3.275
    endloop
  endfacet
  facet normal -0.406737 -0.913545 0
    outer loop
      vertex 20.4678 -13.9488 -3.275
      vertex 20.4678 -13.9488 3.225
      vertex 17.6667 -12.7017 -3.275
    endloop
  endfacet
  facet normal -0.207912 -0.978148 0
    outer loop
      vertex 23.4669 -14.5863 3.225
      vertex 20.4678 -13.9488 3.225
      vertex 20.4678 -13.9488 -3.275
    endloop
  endfacet
  facet normal -0.207912 -0.978148 0
    outer loop
      vertex 23.4669 -14.5863 -3.275
      vertex 23.4669 -14.5863 3.225
      vertex 20.4678 -13.9488 -3.275
    endloop
  endfacet
  facet normal 0 -1 0
    outer loop
      vertex 26.5331 -14.5863 3.225
      vertex 23.4669 -14.5863 3.225
      vertex 23.4669 -14.5863 -3.275
    endloop
  endfacet
  facet normal 0 -1 0
    outer loop
      vertex 26.5331 -14.5863 -3.275
      vertex 26.5331 -14.5863 3.225
      vertex 23.4669 -14.5863 -3.275
    endloop
  endfacet
  facet normal 0.207912 -0.978148 0
    outer loop
      vertex 29.5322 -13.9488 3.225
      vertex 26.5331 -14.5863 3.225
      vertex 26.5331 -14.5863 -3.275
    endloop
  endfacet
  facet normal 0.207912 -0.978148 0
    outer loop
      vertex 29.5322 -13.9488 -3.275
      vertex 29.5322 -13.9488 3.225
      vertex 26.5331 -14.5863 -3.275
    endloop
  endfacet
  facet normal 0.406737 -0.913545 0
    outer loop
      vertex 32.3333 -12.7017 3.225
      vertex 29.5322 -13.9488 3.225
      vertex 29.5322 -13.9488 -3.275
    endloop
  endfacet
  facet normal 0.406737 -0.913545 0
    outer loop
      vertex 32.3333 -12.7017 -3.275
      vertex 32.3333 -12.7017 3.225
      vertex 29.5322 -13.9488 -3.275
    endloop
  endfacet
  facet normal 0.587785 -0.809017 0
    outer loop
      vertex 34.8139 -10.8995 3.225
      vertex 32.3333 -12.7017 3.225
      vertex 32.3333 -12.7017 -3.275
    endloop
  endfacet
  facet normal 0.587785 -0.809017 0
    outer loop
      vertex 34.8139 -10.8995 -3.275
      vertex 34.8139 -10.8995 3.225
      vertex 32.3333 -12.7017 -3.275
    endloop
  endfacet
  facet normal 0.743145 -0.669131 0
    outer loop
      vertex 36.8656 -8.62085 3.225
      vertex 34.8139 -10.8995 3.225
      vertex 34.8139 -10.8995 -3.275
    endloop
  endfacet
  facet normal 0.743145 -0.669131 0
    outer loop
      vertex 36.8656 -8.62085 -3.275
      vertex 36.8656 -8.62085 3.225
      vertex 34.8139 -10.8995 -3.275
    endloop
  endfacet
  facet normal 0.866025 -0.5 0
    outer loop
      vertex 38.3987 -5.96547 3.225
      vertex 36.8656 -8.62085 3.225
      vertex 36.8656 -8.62085 -3.275
    endloop
  endfacet
  facet normal 0.866025 -0.5 0
    outer loop
      vertex 38.3987 -5.96547 -3.275
      vertex 38.3987 -5.96547 3.225
      vertex 36.8656 -8.62085 -3.275
    endloop
  endfacet
  facet normal 0.951057 -0.309017 0
    outer loop
      vertex 39.3462 -3.04937 3.225
      vertex 38.3987 -5.96547 3.225
      vertex 38.3987 -5.96547 -3.275
    endloop
  endfacet
  facet normal 0.951057 -0.309017 0
    outer loop
      vertex 39.3462 -3.04937 -3.275
      vertex 39.3462 -3.04937 3.225
      vertex 38.3987 -5.96547 -3.275
    endloop
  endfacet
  facet normal 0.994522 -0.104529 0
    outer loop
      vertex 39.6667 1.72085e-16 3.225
      vertex 39.3462 -3.04937 3.225
      vertex 39.3462 -3.04937 -3.275
    endloop
  endfacet
  facet normal 0.994522 -0.104529 0
    outer loop
      vertex 39.6667 1.72085e-16 -3.275
      vertex 39.6667 1.72085e-16 3.225
      vertex 39.3462 -3.04937 -3.275
    endloop
  endfacet
  facet normal 0.994522 0.104529 0
    outer loop
      vertex 39.3462 3.04937 -3.275
      vertex 39.3462 3.04937 3.225
      vertex 39.6667 1.72085e-16 3.225
    endloop
  endfacet
  facet normal 0.994522 0.104529 0
    outer loop
      vertex 39.6667 1.72085e-16 -3.275
      vertex 39.3462 3.04937 -3.275
      vertex 39.6667 1.72085e-16 3.225
    endloop
  endfacet
  facet normal 0.951057 0.309017 0
    outer loop
      vertex 38.3987 5.96547 -3.275
      vertex 38.3987 5.96547 3.225
      vertex 39.3462 3.04937 3.225
    endloop
  endfacet
  facet normal 0.951057 0.309017 0
    outer loop
      vertex 39.3462 3.04937 -3.275
      vertex 38.3987 5.96547 -3.275
      vertex 39.3462 3.04937 3.225
    endloop
  endfacet
  facet normal 0.866025 0.5 0
    outer loop
      vertex 36.8656 8.62085 -3.275
      vertex 36.8656 8.62085 3.225
      vertex 38.3987 5.96547 3.225
    endloop
  endfacet
  facet normal 0.866025 0.5 0
    outer loop
      vertex 38.3987 5.96547 -3.275
      vertex 36.8656 8.62085 -3.275
      vertex 38.3987 5.96547 3.225
    endloop
  endfacet
  facet normal 0.743145 0.669131 0
    outer loop
      vertex 34.8139 10.8995 -3.275
      vertex 34.8139 10.8995 3.225
      vertex 36.8656 8.62085 3.225
    endloop
  endfacet
  facet normal 0.743145 0.669131 0
    outer loop
      vertex 36.8656 8.62085 -3.275
      vertex 34.8139 10.8995 -3.275
      vertex 36.8656 8.62085 3.225
    endloop
  endfacet
  facet normal 0.587785 0.809017 0
    outer loop
      vertex 32.3333 12.7017 3.225
      vertex 34.8139 10.8995 3.225
      vertex 32.3333 12.7017 -3.275
    endloop
  endfacet
  facet normal 0.587785 0.809017 0
    outer loop
      vertex 32.3333 12.7017 -3.275
      vertex 34.8139 10.8995 3.225
      vertex 34.8139 10.8995 -3.275
    endloop
  endfacet
  facet normal 0.406737 0.913545 0
    outer loop
      vertex 29.5322 13.9488 3.225
      vertex 32.3333 12.7017 3.225
      vertex 29.5322 13.9488 -3.275
    endloop
  endfacet
  facet normal 0.406737 0.913545 0
    outer loop
      vertex 29.5322 13.9488 -3.275
      vertex 32.3333 12.7017 3.225
      vertex 32.3333 12.7017 -3.275
    endloop
  endfacet
  facet normal 0.207912 0.978148 0
    outer loop
      vertex 26.5331 14.5863 3.225
      vertex 29.5322 13.9488 3.225
      vertex 26.5331 14.5863 -3.275
    endloop
  endfacet
  facet normal 0.207912 0.978148 0
    outer loop
      vertex 26.5331 14.5863 -3.275
      vertex 29.5322 13.9488 3.225
      vertex 29.5322 13.9488 -3.275
    endloop
  endfacet
  facet normal 0 1 0
    outer loop
      vertex 23.4669 14.5863 3.225
      vertex 26.5331 14.5863 3.225
      vertex 23.4669 14.5863 -3.275
    endloop
  endfacet
  facet normal 0 1 0
    outer loop
      vertex 23.4669 14.5863 -3.275
      vertex 26.5331 14.5863 3.225
      vertex 26.5331 14.5863 -3.275
    endloop
  endfacet
  facet normal -0.207912 0.978148 0
    outer loop
      vertex 20.4678 13.9488 3.225
      vertex 23.4669 14.5863 3.225
      vertex 20.4678 13.9488 -3.275
    endloop
  endfacet
  facet normal -0.207912 0.978148 0
    outer loop
      vertex 20.4678 13.9488 -3.275
      vertex 23.4669 14.5863 3.225
      vertex 23.4669 14.5863 -3.275
    endloop
  endfacet
  facet normal -0.406737 0.913545 0
    outer loop
      vertex 17.6667 12.7017 3.225
      vertex 20.4678 13.9488 3.225
      vertex 17.6667 12.7017 -3.275
    endloop
  endfacet
  facet normal -0.406737 0.913545 0
    outer loop
      vertex 17.6667 12.7017 -3.275
      vertex 20.4678 13.9488 3.225
      vertex 20.4678 13.9488 -3.275
    endloop
  endfacet
  facet normal -0.587785 0.809017 0
    outer loop
      vertex 15.1861 10.8995 3.225
      vertex 17.6667 12.7017 3.225
      vertex 15.1861 10.8995 -3.275
    endloop
  endfacet
  facet normal -0.587785 0.809017 0
    outer loop
      vertex 15.1861 10.8995 -3.275
      vertex 17.6667 12.7017 3.225
      vertex 17.6667 12.7017 -3.275
    endloop
  endfacet
  facet normal -0.743145 0.669131 0
    outer loop
      vertex 13.1344 8.62085 3.225
      vertex 15.1861 10.8995 3.225
      vertex 13.1344 8.62085 -3.275
    endloop
  endfacet
  facet normal -0.743145 0.669131 0
    outer loop
      vertex 13.1344 8.62085 -3.275
      vertex 15.1861 10.8995 3.225
      vertex 15.1861 10.8995 -3.275
    endloop
  endfacet
  facet normal -0.866025 0.5 0
    outer loop
      vertex 11.6013 5.96547 3.225
      vertex 13.1344 8.62085 3.225
      vertex 11.6013 5.96547 -3.275
    endloop
  endfacet
  facet normal -0.866025 0.5 0
    outer loop
      vertex 11.6013 5.96547 -3.275
      vertex 13.1344 8.62085 3.225
      vertex 13.1344 8.62085 -3.275
    endloop
  endfacet
  facet normal -0.951057 0.309017 0
    outer loop
      vertex 10.6538 3.04937 3.225
      vertex 11.6013 5.96547 3.225
      vertex 10.6538 3.04937 -3.275
    endloop
  endfacet
  facet normal -0.951057 0.309017 0
    outer loop
      vertex 10.6538 3.04937 -3.275
      vertex 11.6013 5.96547 3.225
      vertex 11.6013 5.96547 -3.275
    endloop
  endfacet
  facet normal -0.994522 0.104529 0
    outer loop
      vertex 10.3333 1.72085e-16 3.225
      vertex 10.6538 3.04937 3.225
      vertex 10.3333 1.72085e-16 -3.275
    endloop
  endfacet
  facet normal -0.994522 0.104529 0
    outer loop
      vertex 10.3333 1.72085e-16 -3.275
      vertex 10.6538 3.04937 3.225
      vertex 10.6538 3.04937 -3.275
    endloop
  endfacet
  facet normal 0.913546 -0.406736 0
    outer loop
      vertex 21.0874 0.831647 -6.275
      vertex 21.7639 2.35114 -6.275
      vertex 21.7639 2.35114 -3.275
    endloop
  endfacet
  facet normal 0.913546 -0.406736 0
    outer loop
      vertex 21.0874 0.831647 -3.275
      vertex 21.0874 0.831647 -6.275
      vertex 21.7639 2.35114 -3.275
    endloop
  endfacet
  facet normal 1 0 0
    outer loop
      vertex 21.0874 -0.831647 -6.275
      vertex 21.0874 0.831647 -6.275
      vertex 21.0874 0.831647 -3.275
    endloop
  endfacet
  facet normal 1 0 0
    outer loop
      vertex 21.0874 -0.831647 -3.275
      vertex 21.0874 -0.831647 -6.275
      vertex 21.0874 0.831647 -3.275
    endloop
  endfacet
  facet normal 0.669131 -0.743145 0
    outer loop
      vertex 21.7639 2.35114 -6.275
      vertex 23 3.4641 -6.275
      vertex 23 3.4641 -3.275
    endloop
  endfacet
  facet normal 0.669131 -0.743145 0
    outer loop
      vertex 21.7639 2.35114 -3.275
      vertex 21.7639 2.35114 -6.275
      vertex 23 3.4641 -3.275
    endloop
  endfacet
  facet normal 0.309017 -0.951057 0
    outer loop
      vertex 23 3.4641 -6.275
      vertex 24.5819 3.97809 -6.275
      vertex 24.5819 3.97809 -3.275
    endloop
  endfacet
  facet normal 0.309017 -0.951057 0
    outer loop
      vertex 23 3.4641 -3.275
      vertex 23 3.4641 -6.275
      vertex 24.5819 3.97809 -3.275
    endloop
  endfacet
  facet normal -0.104529 -0.994522 0
    outer loop
      vertex 24.5819 3.97809 -6.275
      vertex 26.2361 3.80423 -6.275
      vertex 26.2361 3.80423 -3.275
    endloop
  endfacet
  facet normal -0.104529 -0.994522 0
    outer loop
      vertex 24.5819 3.97809 -3.275
      vertex 24.5819 3.97809 -6.275
      vertex 26.2361 3.80423 -3.275
    endloop
  endfacet
  facet normal -0.5 -0.866025 0
    outer loop
      vertex 26.2361 3.80423 -6.275
      vertex 27.6765 2.97258 -6.275
      vertex 27.6765 2.97258 -3.275
    endloop
  endfacet
  facet normal -0.5 -0.866025 0
    outer loop
      vertex 26.2361 3.80423 -3.275
      vertex 26.2361 3.80423 -6.275
      vertex 27.6765 2.97258 -3.275
    endloop
  endfacet
  facet normal -0.809017 -0.587786 0
    outer loop
      vertex 28.6542 1.62695 -6.275
      vertex 28.6542 1.62695 -3.275
      vertex 27.6765 2.97258 -6.275
    endloop
  endfacet
  facet normal -0.809017 -0.587786 0
    outer loop
      vertex 27.6765 2.97258 -6.275
      vertex 28.6542 1.62695 -3.275
      vertex 27.6765 2.97258 -3.275
    endloop
  endfacet
  facet normal -0.978148 -0.207912 0
    outer loop
      vertex 29 0 -6.275
      vertex 29 0 -3.275
      vertex 28.6542 1.62695 -6.275
    endloop
  endfacet
  facet normal -0.978148 -0.207912 0
    outer loop
      vertex 28.6542 1.62695 -6.275
      vertex 29 0 -3.275
      vertex 28.6542 1.62695 -3.275
    endloop
  endfacet
  facet normal -0.978148 0.207912 0
    outer loop
      vertex 29 0 -6.275
      vertex 28.6542 -1.62695 -6.275
      vertex 29 0 -3.275
    endloop
  endfacet
  facet normal -0.978148 0.207912 0
    outer loop
      vertex 29 0 -3.275
      vertex 28.6542 -1.62695 -6.275
      vertex 28.6542 -1.62695 -3.275
    endloop
  endfacet
  facet normal -0.809017 0.587786 0
    outer loop
      vertex 28.6542 -1.62695 -6.275
      vertex 27.6765 -2.97258 -6.275
      vertex 28.6542 -1.62695 -3.275
    endloop
  endfacet
  facet normal -0.809017 0.587786 0
    outer loop
      vertex 28.6542 -1.62695 -3.275
      vertex 27.6765 -2.97258 -6.275
      vertex 27.6765 -2.97258 -3.275
    endloop
  endfacet
  facet normal -0.5 0.866025 0
    outer loop
      vertex 27.6765 -2.97258 -6.275
      vertex 26.2361 -3.80423 -6.275
      vertex 27.6765 -2.97258 -3.275
    endloop
  endfacet
  facet normal -0.5 0.866025 0
    outer loop
      vertex 27.6765 -2.97258 -3.275
      vertex 26.2361 -3.80423 -6.275
      vertex 26.2361 -3.80423 -3.275
    endloop
  endfacet
  facet normal -0.104529 0.994522 0
    outer loop
      vertex 26.2361 -3.80423 -6.275
      vertex 24.5819 -3.97809 -6.275
      vertex 26.2361 -3.80423 -3.275
    endloop
  endfacet
  facet normal -0.104529 0.994522 0
    outer loop
      vertex 26.2361 -3.80423 -3.275
      vertex 24.5819 -3.97809 -6.275
      vertex 24.5819 -3.97809 -3.275
    endloop
  endfacet
  facet normal 0.309017 0.951057 0
    outer loop
      vertex 24.5819 -3.97809 -6.275
      vertex 23 -3.4641 -6.275
      vertex 24.5819 -3.97809 -3.275
    endloop
  endfacet
  facet normal 0.309017 0.951057 0
    outer loop
      vertex 24.5819 -3.97809 -3.275
      vertex 23 -3.4641 -6.275
      vertex 23 -3.4641 -3.275
    endloop
  endfacet
  facet normal 0.669131 0.743145 0
    outer loop
      vertex 23 -3.4641 -6.275
      vertex 21.7639 -2.35114 -6.275
      vertex 23 -3.4641 -3.275
    endloop
  endfacet
  facet normal 0.669131 0.743145 0
    outer loop
      vertex 23 -3.4641 -3.275
      vertex 21.7639 -2.35114 -6.275
      vertex 21.7639 -2.35114 -3.275
    endloop
  endfacet
  facet normal 0.913546 0.406736 0
    outer loop
      vertex 21.7639 -2.35114 -3.275
      vertex 21.7639 -2.35114 -6.275
      vertex 21.0874 -0.831647 -6.275
    endloop
  endfacet
  facet normal 0.913546 0.406736 0
    outer loop
      vertex 21.0874 -0.831647 -3.275
      vertex 21.7639 -2.35114 -3.275
      vertex 21.0874 -0.831647 -6.275
    endloop
  endfacet
  facet normal 0 0 1
    outer loop
      vertex 10.6538 3.04937 3.225
      vertex 10.3333 1.72085e-16 3.225
      vertex 10.6538 -3.04937 3.225
    endloop
  endfacet
  facet normal 0 0 1
    outer loop
      vertex 13.1344 -8.62085 3.225
      vertex 10.6538 3.04937 3.225
      vertex 11.6013 -5.96547 3.225
    endloop
  endfacet
  facet normal 0 0 1
    outer loop
      vertex 11.6013 -5.96547 3.225
      vertex 10.6538 3.04937 3.225
      vertex 10.6538 -3.04937 3.225
    endloop
  endfacet
  facet normal 0 0 1
    outer loop
      vertex 15.1861 -10.8995 3.225
      vertex 10.6538 3.04937 3.225
      vertex 13.1344 -8.62085 3.225
    endloop
  endfacet
  facet normal 0 0 1
    outer loop
      vertex 17.6667 -12.7017 3.225
      vertex 10.6538 3.04937 3.225
      vertex 15.1861 -10.8995 3.225
    endloop
  endfacet
  facet normal 0 0 1
    outer loop
      vertex 14.951 -4.4741 3.225
      vertex 10.6538 3.04937 3.225
      vertex 17.6667 -12.7017 3.225
    endloop
  endfacet
  facet normal 0 0 1
    outer loop
      vertex 33.8992 -6.46564 3.225
      vertex 32.3604 -8.17459 3.225
      vertex 36.8656 -8.62085 3.225
    endloop
  endfacet
  facet normal 0 0 1
    outer loop
      vertex 14.2404 2.28703 3.225
      vertex 14.951 4.4741 3.225
      vertex 10.6538 3.04937 3.225
    endloop
  endfacet
  facet normal 0 0 1
    outer loop
      vertex 28.3992 -10.4616 3.225
      vertex 26.1498 -10.9397 3.225
      vertex 29.5322 -13.9488 3.225
    endloop
  endfacet
  facet normal 0 0 1
    outer loop
      vertex 35.049 4.4741 3.225
      vertex 35.7596 2.28703 3.225
      vertex 39.3462 3.04937 3.225
    endloop
  endfacet
  facet normal 0 0 1
    outer loop
      vertex 30.5 9.52628 3.225
      vertex 32.3604 8.17459 3.225
      vertex 34.8139 10.8995 3.225
    endloop
  endfacet
  facet normal 0 0 1
    outer loop
      vertex 19.5 9.52628 3.225
      vertex 21.6008 10.4616 3.225
      vertex 26.5331 14.5863 3.225
    endloop
  endfacet
  facet normal 0 0 1
    outer loop
      vertex 23.8502 10.9397 3.225
      vertex 26.1498 10.9397 3.225
      vertex 29.5322 13.9488 3.225
    endloop
  endfacet
  facet normal 0 0 1
    outer loop
      vertex 20.4678 13.9488 3.225
      vertex 10.6538 3.04937 3.225
      vertex 23.4669 14.5863 3.225
    endloop
  endfacet
  facet normal 0 0 1
    outer loop
      vertex 17.6667 12.7017 3.225
      vertex 10.6538 3.04937 3.225
      vertex 20.4678 13.9488 3.225
    endloop
  endfacet
  facet normal 0 0 1
    outer loop
      vertex 15.1861 10.8995 3.225
      vertex 10.6538 3.04937 3.225
      vertex 17.6667 12.7017 3.225
    endloop
  endfacet
  facet normal 0 0 1
    outer loop
      vertex 13.1344 8.62085 3.225
      vertex 10.6538 3.04937 3.225
      vertex 15.1861 10.8995 3.225
    endloop
  endfacet
  facet normal 0 0 1
    outer loop
      vertex 11.6013 5.96547 3.225
      vertex 10.6538 3.04937 3.225
      vertex 13.1344 8.62085 3.225
    endloop
  endfacet
  facet normal 0 0 1
    outer loop
      vertex 35.049 -4.4741 3.225
      vertex 33.8992 -6.46564 3.225
      vertex 38.3987 -5.96547 3.225
    endloop
  endfacet
  facet normal 0 0 1
    outer loop
      vertex 32.3604 8.17459 3.225
      vertex 33.8992 6.46564 3.225
      vertex 36.8656 8.62085 3.225
    endloop
  endfacet
  facet normal 0 0 1
    outer loop
      vertex 26.1498 10.9397 3.225
      vertex 28.3992 10.4616 3.225
      vertex 32.3333 12.7017 3.225
    endloop
  endfacet
  facet normal 0 0 1
    outer loop
      vertex 23.4669 14.5863 3.225
      vertex 10.6538 3.04937 3.225
      vertex 17.6396 8.17459 3.225
    endloop
  endfacet
  facet normal 0 0 1
    outer loop
      vertex 23.4669 14.5863 3.225
      vertex 19.5 9.52628 3.225
      vertex 26.5331 14.5863 3.225
    endloop
  endfacet
  facet normal 0 0 1
    outer loop
      vertex 23.4669 14.5863 3.225
      vertex 17.6396 8.17459 3.225
      vertex 19.5 9.52628 3.225
    endloop
  endfacet
  facet normal 0 0 1
    outer loop
      vertex 26.5331 14.5863 3.225
      vertex 21.6008 10.4616 3.225
      vertex 29.5322 13.9488 3.225
    endloop
  endfacet
  facet normal 0 0 1
    outer loop
      vertex 21.6008 10.4616 3.225
      vertex 23.8502 10.9397 3.225
      vertex 29.5322 13.9488 3.225
    endloop
  endfacet
  facet normal 0 0 1
    outer loop
      vertex 29.5322 13.9488 3.225
      vertex 26.1498 10.9397 3.225
      vertex 32.3333 12.7017 3.225
    endloop
  endfacet
  facet normal 0 0 1
    outer loop
      vertex 16.1008 6.46564 3.225
      vertex 17.6396 8.17459 3.225
      vertex 10.6538 3.04937 3.225
    endloop
  endfacet
  facet normal 0 0 1
    outer loop
      vertex 32.3333 12.7017 3.225
      vertex 28.3992 10.4616 3.225
      vertex 34.8139 10.8995 3.225
    endloop
  endfacet
  facet normal 0 0 1
    outer loop
      vertex 28.3992 10.4616 3.225
      vertex 30.5 9.52628 3.225
      vertex 34.8139 10.8995 3.225
    endloop
  endfacet
  facet normal 0 0 1
    outer loop
      vertex 34.8139 10.8995 3.225
      vertex 32.3604 8.17459 3.225
      vertex 36.8656 8.62085 3.225
    endloop
  endfacet
  facet normal 0 0 1
    outer loop
      vertex 35.7596 2.28703 3.225
      vertex 36 1.72085e-16 3.225
      vertex 39.6667 1.72085e-16 3.225
    endloop
  endfacet
  facet normal 0 0 1
    outer loop
      vertex 36.8656 8.62085 3.225
      vertex 33.8992 6.46564 3.225
      vertex 38.3987 5.96547 3.225
    endloop
  endfacet
  facet normal 0 0 1
    outer loop
      vertex 14.951 4.4741 3.225
      vertex 16.1008 6.46564 3.225
      vertex 10.6538 3.04937 3.225
    endloop
  endfacet
  facet normal 0 0 1
    outer loop
      vertex 38.3987 5.96547 3.225
      vertex 35.049 4.4741 3.225
      vertex 39.3462 3.04937 3.225
    endloop
  endfacet
  facet normal 0 0 1
    outer loop
      vertex 39.3462 3.04937 3.225
      vertex 35.7596 2.28703 3.225
      vertex 39.6667 1.72085e-16 3.225
    endloop
  endfacet
  facet normal 0 0 1
    outer loop
      vertex 39.6667 1.72085e-16 3.225
      vertex 36 1.72085e-16 3.225
      vertex 39.3462 -3.04937 3.225
    endloop
  endfacet
  facet normal 0 0 1
    outer loop
      vertex 39.3462 -3.04937 3.225
      vertex 35.7596 -2.28703 3.225
      vertex 38.3987 -5.96547 3.225
    endloop
  endfacet
  facet normal 0 0 1
    outer loop
      vertex 33.8992 6.46564 3.225
      vertex 35.049 4.4741 3.225
      vertex 38.3987 5.96547 3.225
    endloop
  endfacet
  facet normal 0 0 1
    outer loop
      vertex 35.7596 -2.28703 3.225
      vertex 35.049 -4.4741 3.225
      vertex 38.3987 -5.96547 3.225
    endloop
  endfacet
  facet normal 0 0 1
    outer loop
      vertex 38.3987 -5.96547 3.225
      vertex 33.8992 -6.46564 3.225
      vertex 36.8656 -8.62085 3.225
    endloop
  endfacet
  facet normal 0 0 1
    outer loop
      vertex 36.8656 -8.62085 3.225
      vertex 32.3604 -8.17459 3.225
      vertex 34.8139 -10.8995 3.225
    endloop
  endfacet
  facet normal 0 0 1
    outer loop
      vertex 34.8139 -10.8995 3.225
      vertex 30.5 -9.52628 3.225
      vertex 32.3333 -12.7017 3.225
    endloop
  endfacet
  facet normal 0 0 1
    outer loop
      vertex 36 1.72085e-16 3.225
      vertex 35.7596 -2.28703 3.225
      vertex 39.3462 -3.04937 3.225
    endloop
  endfacet
  facet normal 0 0 1
    outer loop
      vertex 32.3333 -12.7017 3.225
      vertex 28.3992 -10.4616 3.225
      vertex 29.5322 -13.9488 3.225
    endloop
  endfacet
  facet normal 0 0 1
    outer loop
      vertex 29.5322 -13.9488 3.225
      vertex 26.1498 -10.9397 3.225
      vertex 26.5331 -14.5863 3.225
    endloop
  endfacet
  facet normal 0 0 1
    outer loop
      vertex 26.1498 -10.9397 3.225
      vertex 23.8502 -10.9397 3.225
      vertex 26.5331 -14.5863 3.225
    endloop
  endfacet
  facet normal 0 0 1
    outer loop
      vertex 26.5331 -14.5863 3.225
      vertex 21.6008 -10.4616 3.225
      vertex 23.4669 -14.5863 3.225
    endloop
  endfacet
  facet normal 0 0 1
    outer loop
      vertex 23.4669 -14.5863 3.225
      vertex 19.5 -9.52628 3.225
      vertex 20.4678 -13.9488 3.225
    endloop
  endfacet
  facet normal 0 0 1
    outer loop
      vertex 19.5 -9.52628 3.225
      vertex 17.6396 -8.17459 3.225
      vertex 20.4678 -13.9488 3.225
    endloop
  endfacet
  facet normal 0 0 1
    outer loop
      vertex 20.4678 -13.9488 3.225
      vertex 16.1008 -6.46564 3.225
      vertex 17.6667 -12.7017 3.225
    endloop
  endfacet
  facet normal 0 0 1
    outer loop
      vertex 16.1008 -6.46564 3.225
      vertex 14.951 -4.4741 3.225
      vertex 17.6667 -12.7017 3.225
    endloop
  endfacet
  facet normal 0 0 1
    outer loop
      vertex 17.6396 -8.17459 3.225
      vertex 16.1008 -6.46564 3.225
      vertex 20.4678 -13.9488 3.225
    endloop
  endfacet
  facet normal 0 0 1
    outer loop
      vertex 14.951 -4.4741 3.225
      vertex 14.2404 -2.28703 3.225
      vertex 10.6538 3.04937 3.225
    endloop
  endfacet
  facet normal 0 0 1
    outer loop
      vertex 14.2404 -2.28703 3.225
      vertex 14 1.72085e-16 3.225
      vertex 10.6538 3.04937 3.225
    endloop
  endfacet
  facet normal 0 0 1
    outer loop
      vertex 32.3604 -8.17459 3.225
      vertex 30.5 -9.52628 3.225
      vertex 34.8139 -10.8995 3.225
    endloop
  endfacet
  facet normal 0 0 1
    outer loop
      vertex 30.5 -9.52628 3.225
      vertex 28.3992 -10.4616 3.225
      vertex 32.3333 -12.7017 3.225
    endloop
  endfacet
  facet normal 0 0 1
    outer loop
      vertex 21.6008 -10.4616 3.225
      vertex 19.5 -9.52628 3.225
      vertex 23.4669 -14.5863 3.225
    endloop
  endfacet
  facet normal 0 0 1
    outer loop
      vertex 23.8502 -10.9397 3.225
      vertex 21.6008 -10.4616 3.225
      vertex 26.5331 -14.5863 3.225
    endloop
  endfacet
  facet normal 0 0 1
    outer loop
      vertex 14 1.72085e-16 3.225
      vertex 14.2404 2.28703 3.225
      vertex 10.6538 3.04937 3.225
    endloop
  endfacet
  facet normal 0 -2.22045e-16 1
    outer loop
      vertex 14.2404 2.28703 -3.275
      vertex 14 1.72085e-16 -3.275
      vertex 14.2404 -2.28703 -3.275
    endloop
  endfacet
  facet normal 0 -2.22045e-16 1
    outer loop
      vertex 16.1008 -6.46564 -3.275
      vertex 14.2404 2.28703 -3.275
      vertex 14.951 -4.4741 -3.275
    endloop
  endfacet
  facet normal 0 -2.22045e-16 1
    outer loop
      vertex 14.951 -4.4741 -3.275
      vertex 14.2404 2.28703 -3.275
      vertex 14.2404 -2.28703 -3.275
    endloop
  endfacet
  facet normal 0 -2.22045e-16 1
    outer loop
      vertex 17.6396 -8.17459 -3.275
      vertex 14.2404 2.28703 -3.275
      vertex 16.1008 -6.46564 -3.275
    endloop
  endfacet
  facet normal 0 -2.22045e-16 1
    outer loop
      vertex 19.5 -9.52628 -3.275
      vertex 14.2404 2.28703 -3.275
      vertex 17.6396 -8.17459 -3.275
    endloop
  endfacet
  facet normal 0 -2.22045e-16 1
    outer loop
      vertex 21.6008 -10.4616 -3.275
      vertex 14.2404 2.28703 -3.275
      vertex 19.5 -9.52628 -3.275
    endloop
  endfacet
  facet normal 0 -2.22045e-16 1
    outer loop
      vertex 23.8502 -10.9397 -3.275
      vertex 14.2404 2.28703 -3.275
      vertex 21.6008 -10.4616 -3.275
    endloop
  endfacet
  facet normal 0 -2.22045e-16 1
    outer loop
      vertex 26.1498 -10.9397 -3.275
      vertex 14.2404 2.28703 -3.275
      vertex 23.8502 -10.9397 -3.275
    endloop
  endfacet
  facet normal 0 -2.22045e-16 1
    outer loop
      vertex 28.3992 -10.4616 -3.275
      vertex 14.2404 2.28703 -3.275
      vertex 26.1498 -10.9397 -3.275
    endloop
  endfacet
  facet normal 0 -2.22045e-16 1
    outer loop
      vertex 30.5 -9.52628 -3.275
      vertex 14.2404 2.28703 -3.275
      vertex 28.3992 -10.4616 -3.275
    endloop
  endfacet
  facet normal 0 -2.22045e-16 1
    outer loop
      vertex 23 -3.4641 -3.275
      vertex 14.2404 2.28703 -3.275
      vertex 30.5 -9.52628 -3.275
    endloop
  endfacet
  facet normal 0 -2.22045e-16 1
    outer loop
      vertex 29 0 -3.275
      vertex 28.6542 -1.62695 -3.275
      vertex 35.7596 -2.28703 -3.275
    endloop
  endfacet
  facet normal 0 -2.22045e-16 1
    outer loop
      vertex 26.2361 3.80423 -3.275
      vertex 27.6765 2.97258 -3.275
      vertex 35.049 4.4741 -3.275
    endloop
  endfacet
  facet normal 0 -2.22045e-16 1
    outer loop
      vertex 27.6765 2.97258 -3.275
      vertex 28.6542 1.62695 -3.275
      vertex 35.7596 2.28703 -3.275
    endloop
  endfacet
  facet normal 0 -2.22045e-16 1
    outer loop
      vertex 32.3604 8.17459 -3.275
      vertex 14.2404 2.28703 -3.275
      vertex 33.8992 6.46564 -3.275
    endloop
  endfacet
  facet normal 0 -2.22045e-16 1
    outer loop
      vertex 30.5 9.52628 -3.275
      vertex 14.2404 2.28703 -3.275
      vertex 32.3604 8.17459 -3.275
    endloop
  endfacet
  facet normal 0 -2.22045e-16 1
    outer loop
      vertex 28.3992 10.4616 -3.275
      vertex 14.2404 2.28703 -3.275
      vertex 30.5 9.52628 -3.275
    endloop
  endfacet
  facet normal 0 -2.22045e-16 1
    outer loop
      vertex 26.1498 10.9397 -3.275
      vertex 14.2404 2.28703 -3.275
      vertex 28.3992 10.4616 -3.275
    endloop
  endfacet
  facet normal 0 -2.22045e-16 1
    outer loop
      vertex 23.8502 10.9397 -3.275
      vertex 14.2404 2.28703 -3.275
      vertex 26.1498 10.9397 -3.275
    endloop
  endfacet
  facet normal 0 -2.22045e-16 1
    outer loop
      vertex 21.6008 10.4616 -3.275
      vertex 14.2404 2.28703 -3.275
      vertex 23.8502 10.9397 -3.275
    endloop
  endfacet
  facet normal 0 -2.22045e-16 1
    outer loop
      vertex 19.5 9.52628 -3.275
      vertex 14.2404 2.28703 -3.275
      vertex 21.6008 10.4616 -3.275
    endloop
  endfacet
  facet normal 0 -2.22045e-16 1
    outer loop
      vertex 17.6396 8.17459 -3.275
      vertex 14.2404 2.28703 -3.275
      vertex 19.5 9.52628 -3.275
    endloop
  endfacet
  facet normal 0 -2.22045e-16 1
    outer loop
      vertex 16.1008 6.46564 -3.275
      vertex 14.2404 2.28703 -3.275
      vertex 17.6396 8.17459 -3.275
    endloop
  endfacet
  facet normal 0 -2.22045e-16 1
    outer loop
      vertex 14.951 4.4741 -3.275
      vertex 14.2404 2.28703 -3.275
      vertex 16.1008 6.46564 -3.275
    endloop
  endfacet
  facet normal 0 -2.22045e-16 1
    outer loop
      vertex 28.6542 -1.62695 -3.275
      vertex 27.6765 -2.97258 -3.275
      vertex 35.049 -4.4741 -3.275
    endloop
  endfacet
  facet normal 0 -2.22045e-16 1
    outer loop
      vertex 24.5819 3.97809 -3.275
      vertex 26.2361 3.80423 -3.275
      vertex 33.8992 6.46564 -3.275
    endloop
  endfacet
  facet normal 0 -2.22045e-16 1
    outer loop
      vertex 28.6542 1.62695 -3.275
      vertex 29 0 -3.275
      vertex 36 1.72085e-16 -3.275
    endloop
  endfacet
  facet normal 0 -2.22045e-16 1
    outer loop
      vertex 24.5819 3.97809 -3.275
      vertex 14.2404 2.28703 -3.275
      vertex 23 3.4641 -3.275
    endloop
  endfacet
  facet normal 0 -2.22045e-16 1
    outer loop
      vertex 33.8992 6.46564 -3.275
      vertex 14.2404 2.28703 -3.275
      vertex 24.5819 3.97809 -3.275
    endloop
  endfacet
  facet normal 0 -2.22045e-16 1
    outer loop
      vertex 33.8992 6.46564 -3.275
      vertex 26.2361 3.80423 -3.275
      vertex 35.049 4.4741 -3.275
    endloop
  endfacet
  facet normal 0 -2.22045e-16 1
    outer loop
      vertex 35.049 4.4741 -3.275
      vertex 27.6765 2.97258 -3.275
      vertex 35.7596 2.28703 -3.275
    endloop
  endfacet
  facet normal 0 -2.22045e-16 1
    outer loop
      vertex 35.7596 2.28703 -3.275
      vertex 28.6542 1.62695 -3.275
      vertex 36 1.72085e-16 -3.275
    endloop
  endfacet
  facet normal 0 -2.22045e-16 1
    outer loop
      vertex 21.7639 2.35114 -3.275
      vertex 23 3.4641 -3.275
      vertex 14.2404 2.28703 -3.275
    endloop
  endfacet
  facet normal 0 -2.22045e-16 1
    outer loop
      vertex 36 1.72085e-16 -3.275
      vertex 29 0 -3.275
      vertex 35.7596 -2.28703 -3.275
    endloop
  endfacet
  facet normal 0 -2.22045e-16 1
    outer loop
      vertex 35.7596 -2.28703 -3.275
      vertex 28.6542 -1.62695 -3.275
      vertex 35.049 -4.4741 -3.275
    endloop
  endfacet
  facet normal 0 -2.22045e-16 1
    outer loop
      vertex 35.049 -4.4741 -3.275
      vertex 27.6765 -2.97258 -3.275
      vertex 33.8992 -6.46564 -3.275
    endloop
  endfacet
  facet normal 0 -2.22045e-16 1
    outer loop
      vertex 21.0874 0.831647 -3.275
      vertex 21.7639 2.35114 -3.275
      vertex 14.2404 2.28703 -3.275
    endloop
  endfacet
  facet normal 0 -2.22045e-16 1
    outer loop
      vertex 33.8992 -6.46564 -3.275
      vertex 26.2361 -3.80423 -3.275
      vertex 32.3604 -8.17459 -3.275
    endloop
  endfacet
  facet normal 0 -2.22045e-16 1
    outer loop
      vertex 32.3604 -8.17459 -3.275
      vertex 24.5819 -3.97809 -3.275
      vertex 30.5 -9.52628 -3.275
    endloop
  endfacet
  facet normal 0 -2.22045e-16 1
    outer loop
      vertex 27.6765 -2.97258 -3.275
      vertex 26.2361 -3.80423 -3.275
      vertex 33.8992 -6.46564 -3.275
    endloop
  endfacet
  facet normal 0 -2.22045e-16 1
    outer loop
      vertex 24.5819 -3.97809 -3.275
      vertex 23 -3.4641 -3.275
      vertex 30.5 -9.52628 -3.275
    endloop
  endfacet
  facet normal 0 -2.22045e-16 1
    outer loop
      vertex 21.7639 -2.35114 -3.275
      vertex 14.2404 2.28703 -3.275
      vertex 23 -3.4641 -3.275
    endloop
  endfacet
  facet normal 0 -2.22045e-16 1
    outer loop
      vertex 21.7639 -2.35114 -3.275
      vertex 21.0874 -0.831647 -3.275
      vertex 14.2404 2.28703 -3.275
    endloop
  endfacet
  facet normal 0 -2.22045e-16 1
    outer loop
      vertex 26.2361 -3.80423 -3.275
      vertex 24.5819 -3.97809 -3.275
      vertex 32.3604 -8.17459 -3.275
    endloop
  endfacet
  facet normal 0 -2.22045e-16 1
    outer loop
      vertex 21.0874 -0.831647 -3.275
      vertex 21.0874 0.831647 -3.275
      vertex 14.2404 2.28703 -3.275
    endloop
  endfacet
  facet normal 0.994522 0.104528 0
    outer loop
      vertex 14.2404 -2.28703 3.225
      vertex 14.2404 -2.28703 -3.275
      vertex 14 1.72085e-16 -3.275
    endloop
  endfacet
  facet normal 0.994522 0.104528 0
    outer loop
      vertex 14 1.72085e-16 3.225
      vertex 14.2404 -2.28703 3.225
      vertex 14 1.72085e-16 -3.275
    endloop
  endfacet
  facet normal 0.951056 0.309017 0
    outer loop
      vertex 14.951 -4.4741 3.225
      vertex 14.951 -4.4741 -3.275
      vertex 14.2404 -2.28703 -3.275
    endloop
  endfacet
  facet normal 0.951056 0.309017 0
    outer loop
      vertex 14.2404 -2.28703 3.225
      vertex 14.951 -4.4741 3.225
      vertex 14.2404 -2.28703 -3.275
    endloop
  endfacet
  facet normal 0.866025 0.5 0
    outer loop
      vertex 16.1008 -6.46564 3.225
      vertex 16.1008 -6.46564 -3.275
      vertex 14.951 -4.4741 -3.275
    endloop
  endfacet
  facet normal 0.866025 0.5 0
    outer loop
      vertex 14.951 -4.4741 3.225
      vertex 16.1008 -6.46564 3.225
      vertex 14.951 -4.4741 -3.275
    endloop
  endfacet
  facet normal 0.743145 0.669131 0
    outer loop
      vertex 17.6396 -8.17459 3.225
      vertex 17.6396 -8.17459 -3.275
      vertex 16.1008 -6.46564 -3.275
    endloop
  endfacet
  facet normal 0.743145 0.669131 0
    outer loop
      vertex 16.1008 -6.46564 3.225
      vertex 17.6396 -8.17459 3.225
      vertex 16.1008 -6.46564 -3.275
    endloop
  endfacet
  facet normal 0.587785 0.809017 0
    outer loop
      vertex 19.5 -9.52628 -3.275
      vertex 17.6396 -8.17459 -3.275
      vertex 19.5 -9.52628 3.225
    endloop
  endfacet
  facet normal 0.587785 0.809017 0
    outer loop
      vertex 19.5 -9.52628 3.225
      vertex 17.6396 -8.17459 -3.275
      vertex 17.6396 -8.17459 3.225
    endloop
  endfacet
  facet normal 0.406737 0.913545 0
    outer loop
      vertex 21.6008 -10.4616 -3.275
      vertex 19.5 -9.52628 -3.275
      vertex 21.6008 -10.4616 3.225
    endloop
  endfacet
  facet normal 0.406737 0.913545 0
    outer loop
      vertex 21.6008 -10.4616 3.225
      vertex 19.5 -9.52628 -3.275
      vertex 19.5 -9.52628 3.225
    endloop
  endfacet
  facet normal 0.207912 0.978148 0
    outer loop
      vertex 23.8502 -10.9397 -3.275
      vertex 21.6008 -10.4616 -3.275
      vertex 23.8502 -10.9397 3.225
    endloop
  endfacet
  facet normal 0.207912 0.978148 0
    outer loop
      vertex 23.8502 -10.9397 3.225
      vertex 21.6008 -10.4616 -3.275
      vertex 21.6008 -10.4616 3.225
    endloop
  endfacet
  facet normal 0 1 0
    outer loop
      vertex 26.1498 -10.9397 -3.275
      vertex 23.8502 -10.9397 -3.275
      vertex 26.1498 -10.9397 3.225
    endloop
  endfacet
  facet normal 0 1 0
    outer loop
      vertex 26.1498 -10.9397 3.225
      vertex 23.8502 -10.9397 -3.275
      vertex 23.8502 -10.9397 3.225
    endloop
  endfacet
  facet normal -0.207912 0.978148 0
    outer loop
      vertex 28.3992 -10.4616 -3.275
      vertex 26.1498 -10.9397 -3.275
      vertex 28.3992 -10.4616 3.225
    endloop
  endfacet
  facet normal -0.207912 0.978148 0
    outer loop
      vertex 28.3992 -10.4616 3.225
      vertex 26.1498 -10.9397 -3.275
      vertex 26.1498 -10.9397 3.225
    endloop
  endfacet
  facet normal -0.406737 0.913545 0
    outer loop
      vertex 30.5 -9.52628 -3.275
      vertex 28.3992 -10.4616 -3.275
      vertex 30.5 -9.52628 3.225
    endloop
  endfacet
  facet normal -0.406737 0.913545 0
    outer loop
      vertex 30.5 -9.52628 3.225
      vertex 28.3992 -10.4616 -3.275
      vertex 28.3992 -10.4616 3.225
    endloop
  endfacet
  facet normal -0.587785 0.809017 0
    outer loop
      vertex 32.3604 -8.17459 -3.275
      vertex 30.5 -9.52628 -3.275
      vertex 32.3604 -8.17459 3.225
    endloop
  endfacet
  facet normal -0.587785 0.809017 0
    outer loop
      vertex 32.3604 -8.17459 3.225
      vertex 30.5 -9.52628 -3.275
      vertex 30.5 -9.52628 3.225
    endloop
  endfacet
  facet normal -0.743145 0.669131 0
    outer loop
      vertex 33.8992 -6.46564 -3.275
      vertex 32.3604 -8.17459 -3.275
      vertex 33.8992 -6.46564 3.225
    endloop
  endfacet
  facet normal -0.743145 0.669131 0
    outer loop
      vertex 33.8992 -6.46564 3.225
      vertex 32.3604 -8.17459 -3.275
      vertex 32.3604 -8.17459 3.225
    endloop
  endfacet
  facet normal -0.866025 0.5 0
    outer loop
      vertex 35.049 -4.4741 -3.275
      vertex 33.8992 -6.46564 -3.275
      vertex 35.049 -4.4741 3.225
    endloop
  endfacet
  facet normal -0.866025 0.5 0
    outer loop
      vertex 35.049 -4.4741 3.225
      vertex 33.8992 -6.46564 -3.275
      vertex 33.8992 -6.46564 3.225
    endloop
  endfacet
  facet normal -0.951056 0.309017 0
    outer loop
      vertex 35.7596 -2.28703 -3.275
      vertex 35.049 -4.4741 -3.275
      vertex 35.7596 -2.28703 3.225
    endloop
  endfacet
  facet normal -0.951056 0.309017 0
    outer loop
      vertex 35.7596 -2.28703 3.225
      vertex 35.049 -4.4741 -3.275
      vertex 35.049 -4.4741 3.225
    endloop
  endfacet
  facet normal -0.994522 0.104528 0
    outer loop
      vertex 36 1.72085e-16 -3.275
      vertex 35.7596 -2.28703 -3.275
      vertex 36 1.72085e-16 3.225
    endloop
  endfacet
  facet normal -0.994522 0.104528 0
    outer loop
      vertex 36 1.72085e-16 3.225
      vertex 35.7596 -2.28703 -3.275
      vertex 35.7596 -2.28703 3.225
    endloop
  endfacet
  facet normal -0.994522 -0.104528 0
    outer loop
      vertex 36 1.72085e-16 -3.275
      vertex 36 1.72085e-16 3.225
      vertex 35.7596 2.28703 -3.275
    endloop
  endfacet
  facet normal -0.994522 -0.104528 0
    outer loop
      vertex 35.7596 2.28703 -3.275
      vertex 36 1.72085e-16 3.225
      vertex 35.7596 2.28703 3.225
    endloop
  endfacet
  facet normal -0.951056 -0.309017 0
    outer loop
      vertex 35.7596 2.28703 -3.275
      vertex 35.7596 2.28703 3.225
      vertex 35.049 4.4741 -3.275
    endloop
  endfacet
  facet normal -0.951056 -0.309017 0
    outer loop
      vertex 35.049 4.4741 -3.275
      vertex 35.7596 2.28703 3.225
      vertex 35.049 4.4741 3.225
    endloop
  endfacet
  facet normal -0.866025 -0.5 0
    outer loop
      vertex 35.049 4.4741 -3.275
      vertex 35.049 4.4741 3.225
      vertex 33.8992 6.46564 -3.275
    endloop
  endfacet
  facet normal -0.866025 -0.5 0
    outer loop
      vertex 33.8992 6.46564 -3.275
      vertex 35.049 4.4741 3.225
      vertex 33.8992 6.46564 3.225
    endloop
  endfacet
  facet normal -0.743145 -0.669131 0
    outer loop
      vertex 33.8992 6.46564 -3.275
      vertex 33.8992 6.46564 3.225
      vertex 32.3604 8.17459 -3.275
    endloop
  endfacet
  facet normal -0.743145 -0.669131 0
    outer loop
      vertex 32.3604 8.17459 -3.275
      vertex 33.8992 6.46564 3.225
      vertex 32.3604 8.17459 3.225
    endloop
  endfacet
  facet normal -0.587785 -0.809017 0
    outer loop
      vertex 30.5 9.52628 -3.275
      vertex 32.3604 8.17459 -3.275
      vertex 32.3604 8.17459 3.225
    endloop
  endfacet
  facet normal -0.587785 -0.809017 0
    outer loop
      vertex 30.5 9.52628 3.225
      vertex 30.5 9.52628 -3.275
      vertex 32.3604 8.17459 3.225
    endloop
  endfacet
  facet normal -0.406737 -0.913545 0
    outer loop
      vertex 28.3992 10.4616 -3.275
      vertex 30.5 9.52628 -3.275
      vertex 30.5 9.52628 3.225
    endloop
  endfacet
  facet normal -0.406737 -0.913545 0
    outer loop
      vertex 28.3992 10.4616 3.225
      vertex 28.3992 10.4616 -3.275
      vertex 30.5 9.52628 3.225
    endloop
  endfacet
  facet normal -0.207912 -0.978148 0
    outer loop
      vertex 26.1498 10.9397 -3.275
      vertex 28.3992 10.4616 -3.275
      vertex 28.3992 10.4616 3.225
    endloop
  endfacet
  facet normal -0.207912 -0.978148 0
    outer loop
      vertex 26.1498 10.9397 3.225
      vertex 26.1498 10.9397 -3.275
      vertex 28.3992 10.4616 3.225
    endloop
  endfacet
  facet normal 0 -1 0
    outer loop
      vertex 23.8502 10.9397 -3.275
      vertex 26.1498 10.9397 -3.275
      vertex 26.1498 10.9397 3.225
    endloop
  endfacet
  facet normal 0 -1 0
    outer loop
      vertex 23.8502 10.9397 3.225
      vertex 23.8502 10.9397 -3.275
      vertex 26.1498 10.9397 3.225
    endloop
  endfacet
  facet normal 0.207912 -0.978148 0
    outer loop
      vertex 21.6008 10.4616 -3.275
      vertex 23.8502 10.9397 -3.275
      vertex 23.8502 10.9397 3.225
    endloop
  endfacet
  facet normal 0.207912 -0.978148 0
    outer loop
      vertex 21.6008 10.4616 3.225
      vertex 21.6008 10.4616 -3.275
      vertex 23.8502 10.9397 3.225
    endloop
  endfacet
  facet normal 0.406737 -0.913545 0
    outer loop
      vertex 19.5 9.52628 -3.275
      vertex 21.6008 10.4616 -3.275
      vertex 21.6008 10.4616 3.225
    endloop
  endfacet
  facet normal 0.406737 -0.913545 0
    outer loop
      vertex 19.5 9.52628 3.225
      vertex 19.5 9.52628 -3.275
      vertex 21.6008 10.4616 3.225
    endloop
  endfacet
  facet normal 0.587785 -0.809017 0
    outer loop
      vertex 17.6396 8.17459 -3.275
      vertex 19.5 9.52628 -3.275
      vertex 19.5 9.52628 3.225
    endloop
  endfacet
  facet normal 0.587785 -0.809017 0
    outer loop
      vertex 17.6396 8.17459 3.225
      vertex 17.6396 8.17459 -3.275
      vertex 19.5 9.52628 3.225
    endloop
  endfacet
  facet normal 0.743145 -0.669131 0
    outer loop
      vertex 16.1008 6.46564 -3.275
      vertex 17.6396 8.17459 -3.275
      vertex 17.6396 8.17459 3.225
    endloop
  endfacet
  facet normal 0.743145 -0.669131 0
    outer loop
      vertex 16.1008 6.46564 3.225
      vertex 16.1008 6.46564 -3.275
      vertex 17.6396 8.17459 3.225
    endloop
  endfacet
  facet normal 0.866025 -0.5 0
    outer loop
      vertex 14.951 4.4741 -3.275
      vertex 16.1008 6.46564 -3.275
      vertex 16.1008 6.46564 3.225
    endloop
  endfacet
  facet normal 0.866025 -0.5 0
    outer loop
      vertex 14.951 4.4741 3.225
      vertex 14.951 4.4741 -3.275
      vertex 16.1008 6.46564 3.225
    endloop
  endfacet
  facet normal 0.951056 -0.309017 0
    outer loop
      vertex 14.2404 2.28703 -3.275
      vertex 14.951 4.4741 -3.275
      vertex 14.951 4.4741 3.225
    endloop
  endfacet
  facet normal 0.951056 -0.309017 0
    outer loop
      vertex 14.2404 2.28703 3.225
      vertex 14.2404 2.28703 -3.275
      vertex 14.951 4.4741 3.225
    endloop
  endfacet
  facet normal 0.994522 -0.104528 0
    outer loop
      vertex 14 1.72085e-16 -3.275
      vertex 14.2404 2.28703 -3.275
      vertex 14.2404 2.28703 3.225
    endloop
  endfacet
  facet normal 0.994522 -0.104528 0
    outer loop
      vertex 14 1.72085e-16 3.225
      vertex 14 1.72085e-16 -3.275
      vertex 14.2404 2.28703 3.225
    endloop
  endfacet
endsolid OpenSCAD_Model
