solid OpenSCAD_Model
  facet normal -0.707107 -0.707107 0
    outer loop
      vertex -31.8198 24.7487 1
      vertex -31.8198 24.7487 -5
      vertex -12.7808 5.70969 -5
    endloop
  endfacet
  facet normal -0.707107 -0.707107 0
    outer loop
      vertex -12.7808 5.70969 1
      vertex -31.8198 24.7487 1
      vertex -12.7808 5.70969 -5
    endloop
  endfacet
  facet normal 0 0 -1
    outer loop
      vertex -23.6881 25.8094 -5
      vertex -24.7487 31.8198 -5
      vertex -12.7808 5.70969 -5
    endloop
  endfacet
  facet normal 0 0 -1
    outer loop
      vertex -12.7808 5.70969 -5
      vertex -24.7487 31.8198 -5
      vertex -5.65301 12.7241 -5
    endloop
  endfacet
  facet normal 0 0 -1
    outer loop
      vertex -12.7808 5.70969 -5
      vertex -5.65301 12.7241 -5
      vertex -4.32624 13.3148 -5
    endloop
  endfacet
  facet normal 0 0 -1
    outer loop
      vertex -12.7808 5.70969 -5
      vertex -4.32624 13.3148 -5
      vertex -1.4634 13.9233 -5
    endloop
  endfacet
  facet normal 0 0 -1
    outer loop
      vertex -12.7808 5.70969 -5
      vertex -1.4634 13.9233 -5
      vertex 1.4634 13.9233 -5
    endloop
  endfacet
  facet normal 0 0 -1
    outer loop
      vertex -12.7808 5.70969 -5
      vertex 1.4634 13.9233 -5
      vertex 4.32624 13.3148 -5
    endloop
  endfacet
  facet normal 0 0 -1
    outer loop
      vertex -12.7808 5.70969 -5
      vertex 4.32624 13.3148 -5
      vertex 5.65301 12.7241 -5
    endloop
  endfacet
  facet normal 0 0 -1
    outer loop
      vertex 25.8094 25.8094 -5
      vertex 24.7487 31.8198 -5
      vertex 31.8198 24.7487 -5
    endloop
  endfacet
  facet normal 0 0 -1
    outer loop
      vertex 5.65301 12.7241 -5
      vertex 31.8198 24.7487 -5
      vertex 12.7808 5.70969 -5
    endloop
  endfacet
  facet normal 0 0 -1
    outer loop
      vertex 5.65301 12.7241 -5
      vertex 12.7808 5.70969 -5
      vertex -12.7808 5.70969 -5
    endloop
  endfacet
  facet normal 0 0 -1
    outer loop
      vertex -12.7808 5.70969 -5
      vertex 12.7808 5.70969 -5
      vertex 12.7896 5.69431 -5
    endloop
  endfacet
  facet normal 0 0 -1
    outer loop
      vertex -12.7808 5.70969 -5
      vertex 12.7896 5.69431 -5
      vertex 13.6941 2.91076 -5
    endloop
  endfacet
  facet normal 0 0 -1
    outer loop
      vertex 0.927051 2.85317 -5
      vertex 13.6941 2.91076 -5
      vertex 14 0 -5
    endloop
  endfacet
  facet normal 0 0 -1
    outer loop
      vertex 2.42705 1.76336 -5
      vertex 14 0 -5
      vertex 13.6941 -2.91076 -5
    endloop
  endfacet
  facet normal 0 0 -1
    outer loop
      vertex 3 0 -5
      vertex 13.6941 -2.91076 -5
      vertex 12.7896 -5.69431 -5
    endloop
  endfacet
  facet normal 0 0 -1
    outer loop
      vertex 24.5141 -26.2303 -5
      vertex 31.8198 -24.7487 -5
      vertex 24.7487 -31.8198 -5
    endloop
  endfacet
  facet normal 0 0 -1
    outer loop
      vertex -0.927051 -2.85317 -5
      vertex 31.8198 -24.7487 -5
      vertex 5.65301 -12.7241 -5
    endloop
  endfacet
  facet normal 0 0 -1
    outer loop
      vertex -25.4297 26.0852 -5
      vertex -24.7487 31.8198 -5
      vertex -23.6881 25.8094 -5
    endloop
  endfacet
  facet normal 0 0 -1
    outer loop
      vertex 5.65301 -12.7241 -5
      vertex 4.32624 -13.3148 -5
      vertex -12.7808 5.70969 -5
    endloop
  endfacet
  facet normal 0 0 -1
    outer loop
      vertex -12.7896 5.69431 -5
      vertex 4.32624 -13.3148 -5
      vertex 1.4634 -13.9233 -5
    endloop
  endfacet
  facet normal 0 0 -1
    outer loop
      vertex -12.7896 5.69431 -5
      vertex 1.4634 -13.9233 -5
      vertex -13.6941 2.91076 -5
    endloop
  endfacet
  facet normal 0 0 -1
    outer loop
      vertex -13.6941 2.91076 -5
      vertex -1.4634 -13.9233 -5
      vertex -4.32624 -13.3148 -5
    endloop
  endfacet
  facet normal 0 0 -1
    outer loop
      vertex -5.65301 -12.7241 -5
      vertex -24.7487 -31.8198 -5
      vertex -12.7808 -5.70969 -5
    endloop
  endfacet
  facet normal 0 0 -1
    outer loop
      vertex -5.65301 -12.7241 -5
      vertex -12.7808 -5.70969 -5
      vertex -12.7896 -5.69431 -5
    endloop
  endfacet
  facet normal 0 0 -1
    outer loop
      vertex -5.65301 -12.7241 -5
      vertex -12.7896 -5.69431 -5
      vertex -13.6941 -2.91076 -5
    endloop
  endfacet
  facet normal 0 0 -1
    outer loop
      vertex -13.6941 2.91076 -5
      vertex -4.32624 -13.3148 -5
      vertex -14 0 -5
    endloop
  endfacet
  facet normal 0 0 -1
    outer loop
      vertex -4.32624 -13.3148 -5
      vertex -5.65301 -12.7241 -5
      vertex -14 0 -5
    endloop
  endfacet
  facet normal 0 0 -1
    outer loop
      vertex 1.4634 -13.9233 -5
      vertex -1.4634 -13.9233 -5
      vertex -13.6941 2.91076 -5
    endloop
  endfacet
  facet normal 0 0 -1
    outer loop
      vertex -12.7808 5.70969 -5
      vertex 4.32624 -13.3148 -5
      vertex -12.7896 5.69431 -5
    endloop
  endfacet
  facet normal 0 0 -1
    outer loop
      vertex -31.8198 24.7487 -5
      vertex -24.7487 31.8198 -5
      vertex -25.4297 26.0852 -5
    endloop
  endfacet
  facet normal 0 0 -1
    outer loop
      vertex -31.8198 24.7487 -5
      vertex -25.4297 26.0852 -5
      vertex -26.2303 24.5141 -5
    endloop
  endfacet
  facet normal 0 0 -1
    outer loop
      vertex -31.8198 24.7487 -5
      vertex -26.2303 24.5141 -5
      vertex -12.7808 5.70969 -5
    endloop
  endfacet
  facet normal 0 0 -1
    outer loop
      vertex -26.2303 24.5141 -5
      vertex -24.9834 23.2672 -5
      vertex -12.7808 5.70969 -5
    endloop
  endfacet
  facet normal 0 0 -1
    outer loop
      vertex -23.4122 24.0678 -5
      vertex -12.7808 5.70969 -5
      vertex -24.9834 23.2672 -5
    endloop
  endfacet
  facet normal 0 0 -1
    outer loop
      vertex -24.9834 -26.2303 -5
      vertex -24.7487 -31.8198 -5
      vertex -26.2303 -24.9834 -5
    endloop
  endfacet
  facet normal 0 0 -1
    outer loop
      vertex -23.4122 24.0678 -5
      vertex -23.6881 25.8094 -5
      vertex -12.7808 5.70969 -5
    endloop
  endfacet
  facet normal 0 0 -1
    outer loop
      vertex -23.6881 -23.6881 -5
      vertex -12.7808 -5.70969 -5
      vertex -23.4122 -25.4297 -5
    endloop
  endfacet
  facet normal 0 0 -1
    outer loop
      vertex -14 0 -5
      vertex -5.65301 -12.7241 -5
      vertex -13.6941 -2.91076 -5
    endloop
  endfacet
  facet normal 0 0 -1
    outer loop
      vertex -24.7487 -31.8198 -5
      vertex -31.8198 -24.7487 -5
      vertex -26.2303 -24.9834 -5
    endloop
  endfacet
  facet normal 0 0 -1
    outer loop
      vertex -23.4122 -25.4297 -5
      vertex -24.7487 -31.8198 -5
      vertex -24.9834 -26.2303 -5
    endloop
  endfacet
  facet normal 0 0 -1
    outer loop
      vertex -12.7808 -5.70969 -5
      vertex -24.7487 -31.8198 -5
      vertex -23.4122 -25.4297 -5
    endloop
  endfacet
  facet normal 0 0 -1
    outer loop
      vertex -3 0 -5
      vertex -12.7808 5.70969 -5
      vertex -2.42705 1.76336 -5
    endloop
  endfacet
  facet normal 0 0 -1
    outer loop
      vertex -12.7808 -5.70969 -5
      vertex -23.6881 -23.6881 -5
      vertex -25.4297 -23.4122 -5
    endloop
  endfacet
  facet normal 0 0 -1
    outer loop
      vertex 3 0 -5
      vertex 12.7808 -5.70969 -5
      vertex 2.42705 -1.76336 -5
    endloop
  endfacet
  facet normal 0 0 -1
    outer loop
      vertex -2.42705 -1.76336 -5
      vertex -12.7808 5.70969 -5
      vertex -3 0 -5
    endloop
  endfacet
  facet normal 0 0 -1
    outer loop
      vertex 0.927051 -2.85317 -5
      vertex 31.8198 -24.7487 -5
      vertex -0.927051 -2.85317 -5
    endloop
  endfacet
  facet normal 0 0 -1
    outer loop
      vertex -12.7808 5.70969 -5
      vertex -2.42705 -1.76336 -5
      vertex 5.65301 -12.7241 -5
    endloop
  endfacet
  facet normal 0 0 -1
    outer loop
      vertex 2.42705 -1.76336 -5
      vertex 31.8198 -24.7487 -5
      vertex 0.927051 -2.85317 -5
    endloop
  endfacet
  facet normal 0 0 -1
    outer loop
      vertex -2.42705 -1.76336 -5
      vertex -0.927051 -2.85317 -5
      vertex 5.65301 -12.7241 -5
    endloop
  endfacet
  facet normal 0 0 -1
    outer loop
      vertex 3 0 -5
      vertex 12.7896 -5.69431 -5
      vertex 12.7808 -5.70969 -5
    endloop
  endfacet
  facet normal 0 0 -1
    outer loop
      vertex 2.42705 -1.76336 -5
      vertex 12.7808 -5.70969 -5
      vertex 31.8198 -24.7487 -5
    endloop
  endfacet
  facet normal 0 0 -1
    outer loop
      vertex -0.927051 2.85317 -5
      vertex -12.7808 5.70969 -5
      vertex 0.927051 2.85317 -5
    endloop
  endfacet
  facet normal 0 0 -1
    outer loop
      vertex 2.42705 1.76336 -5
      vertex 13.6941 -2.91076 -5
      vertex 3 0 -5
    endloop
  endfacet
  facet normal 0 0 -1
    outer loop
      vertex 0.927051 2.85317 -5
      vertex 14 0 -5
      vertex 2.42705 1.76336 -5
    endloop
  endfacet
  facet normal 0 0 -1
    outer loop
      vertex -12.7808 5.70969 -5
      vertex 13.6941 2.91076 -5
      vertex 0.927051 2.85317 -5
    endloop
  endfacet
  facet normal 0 0 -1
    outer loop
      vertex -2.42705 1.76336 -5
      vertex -12.7808 5.70969 -5
      vertex -0.927051 2.85317 -5
    endloop
  endfacet
  facet normal 0 0 -1
    outer loop
      vertex 25.8094 25.8094 -5
      vertex 31.8198 24.7487 -5
      vertex 26.0852 24.0678 -5
    endloop
  endfacet
  facet normal 0 0 -1
    outer loop
      vertex 5.65301 12.7241 -5
      vertex 24.7487 31.8198 -5
      vertex 24.0678 26.0852 -5
    endloop
  endfacet
  facet normal 0 0 -1
    outer loop
      vertex 5.65301 12.7241 -5
      vertex 24.0678 26.0852 -5
      vertex 23.2672 24.5141 -5
    endloop
  endfacet
  facet normal 0 0 -1
    outer loop
      vertex 5.65301 12.7241 -5
      vertex 23.2672 24.5141 -5
      vertex 24.5141 23.2672 -5
    endloop
  endfacet
  facet normal 0 0 -1
    outer loop
      vertex 5.65301 12.7241 -5
      vertex 24.5141 23.2672 -5
      vertex 31.8198 24.7487 -5
    endloop
  endfacet
  facet normal 0 0 -1
    outer loop
      vertex 24.5141 23.2672 -5
      vertex 26.0852 24.0678 -5
      vertex 31.8198 24.7487 -5
    endloop
  endfacet
  facet normal 0 0 -1
    outer loop
      vertex 24.0678 26.0852 -5
      vertex 24.7487 31.8198 -5
      vertex 25.8094 25.8094 -5
    endloop
  endfacet
  facet normal 0 0 -1
    outer loop
      vertex 24.5141 -26.2303 -5
      vertex 24.7487 -31.8198 -5
      vertex 23.2672 -24.9834 -5
    endloop
  endfacet
  facet normal 0 0 -1
    outer loop
      vertex 5.65301 -12.7241 -5
      vertex 24.0678 -23.4122 -5
      vertex 23.2672 -24.9834 -5
    endloop
  endfacet
  facet normal 0 0 -1
    outer loop
      vertex 5.65301 -12.7241 -5
      vertex 23.2672 -24.9834 -5
      vertex 24.7487 -31.8198 -5
    endloop
  endfacet
  facet normal 0 0 -1
    outer loop
      vertex 26.0852 -25.4297 -5
      vertex 31.8198 -24.7487 -5
      vertex 24.5141 -26.2303 -5
    endloop
  endfacet
  facet normal 0 0 -1
    outer loop
      vertex 25.8094 -23.6881 -5
      vertex 31.8198 -24.7487 -5
      vertex 26.0852 -25.4297 -5
    endloop
  endfacet
  facet normal 0 0 -1
    outer loop
      vertex 5.65301 -12.7241 -5
      vertex 31.8198 -24.7487 -5
      vertex 25.8094 -23.6881 -5
    endloop
  endfacet
  facet normal 0 0 -1
    outer loop
      vertex 5.65301 -12.7241 -5
      vertex 25.8094 -23.6881 -5
      vertex 24.0678 -23.4122 -5
    endloop
  endfacet
  facet normal 0 0 -1
    outer loop
      vertex -25.4297 -23.4122 -5
      vertex -26.2303 -24.9834 -5
      vertex -31.8198 -24.7487 -5
    endloop
  endfacet
  facet normal 0 0 -1
    outer loop
      vertex -12.7808 -5.70969 -5
      vertex -25.4297 -23.4122 -5
      vertex -31.8198 -24.7487 -5
    endloop
  endfacet
  facet normal -0.707107 0.707107 0
    outer loop
      vertex -31.8198 24.7487 -5
      vertex -31.8198 24.7487 1
      vertex -24.7487 31.8198 -5
    endloop
  endfacet
  facet normal -0.707107 0.707107 0
    outer loop
      vertex -24.7487 31.8198 -5
      vertex -31.8198 24.7487 1
      vertex -24.7487 31.8198 1
    endloop
  endfacet
  facet normal 0 0 1
    outer loop
      vertex -26.2303 24.5141 1
      vertex -31.8198 24.7487 1
      vertex -12.7808 5.70969 1
    endloop
  endfacet
  facet normal 0 0 1
    outer loop
      vertex -9.36783 10.404 1
      vertex -24.7487 31.8198 1
      vertex -11.3262 8.22899 1
    endloop
  endfacet
  facet normal 0 0 1
    outer loop
      vertex -11.3262 8.22899 1
      vertex -24.7487 31.8198 1
      vertex -12.7808 5.70969 1
    endloop
  endfacet
  facet normal 0 0 1
    outer loop
      vertex -7 12.1244 1
      vertex -24.7487 31.8198 1
      vertex -9.36783 10.404 1
    endloop
  endfacet
  facet normal 0 0 1
    outer loop
      vertex -5.65301 12.7241 1
      vertex -24.7487 31.8198 1
      vertex -7 12.1244 1
    endloop
  endfacet
  facet normal 0 0 1
    outer loop
      vertex -24.9834 23.2672 1
      vertex -26.2303 24.5141 1
      vertex -12.7808 5.70969 1
    endloop
  endfacet
  facet normal 0 0 1
    outer loop
      vertex -24.7487 31.8198 1
      vertex -31.8198 24.7487 1
      vertex -26.2303 24.5141 1
    endloop
  endfacet
  facet normal 0 0 1
    outer loop
      vertex -24.7487 31.8198 1
      vertex -26.2303 24.5141 1
      vertex -25.4297 26.0852 1
    endloop
  endfacet
  facet normal 0 0 1
    outer loop
      vertex -24.7487 31.8198 1
      vertex -23.6881 25.8094 1
      vertex -12.7808 5.70969 1
    endloop
  endfacet
  facet normal 0 0 1
    outer loop
      vertex -24.7487 31.8198 1
      vertex -25.4297 26.0852 1
      vertex -23.6881 25.8094 1
    endloop
  endfacet
  facet normal 0 0 1
    outer loop
      vertex -23.6881 25.8094 1
      vertex -23.4122 24.0678 1
      vertex -12.7808 5.70969 1
    endloop
  endfacet
  facet normal 0 0 1
    outer loop
      vertex -23.4122 24.0678 1
      vertex -24.9834 23.2672 1
      vertex -12.7808 5.70969 1
    endloop
  endfacet
  facet normal -0.866026 0.5 0
    outer loop
      vertex -12.7896 5.69431 -5
      vertex -12.7896 5.69431 5
      vertex -12.7808 5.70969 -5
    endloop
  endfacet
  facet normal -0.866026 0.5 0
    outer loop
      vertex -12.7808 5.70969 1
      vertex -12.7896 5.69431 5
      vertex -11.3262 8.22899 5
    endloop
  endfacet
  facet normal -0.866026 0.5 0
    outer loop
      vertex -12.7808 5.70969 -5
      vertex -12.7896 5.69431 5
      vertex -12.7808 5.70969 1
    endloop
  endfacet
  facet normal -0.866026 0.5 0
    outer loop
      vertex -12.7808 5.70969 1
      vertex -11.3262 8.22899 5
      vertex -11.3262 8.22899 1
    endloop
  endfacet
  facet normal -0.951057 0.309017 0
    outer loop
      vertex -13.6941 2.91076 -5
      vertex -13.6941 2.91076 5
      vertex -12.7896 5.69431 -5
    endloop
  endfacet
  facet normal -0.951057 0.309017 0
    outer loop
      vertex -12.7896 5.69431 -5
      vertex -13.6941 2.91076 5
      vertex -12.7896 5.69431 5
    endloop
  endfacet
  facet normal -0.994522 0.104529 0
    outer loop
      vertex -14 0 -5
      vertex -14 0 5
      vertex -13.6941 2.91076 -5
    endloop
  endfacet
  facet normal -0.994522 0.104529 0
    outer loop
      vertex -13.6941 2.91076 -5
      vertex -14 0 5
      vertex -13.6941 2.91076 5
    endloop
  endfacet
  facet normal -0.994522 -0.104529 0
    outer loop
      vertex -14 0 -5
      vertex -13.6941 -2.91076 -5
      vertex -14 0 5
    endloop
  endfacet
  facet normal -0.994522 -0.104529 0
    outer loop
      vertex -14 0 5
      vertex -13.6941 -2.91076 -5
      vertex -13.6941 -2.91076 5
    endloop
  endfacet
  facet normal -0.951057 -0.309017 0
    outer loop
      vertex -13.6941 -2.91076 -5
      vertex -12.7896 -5.69431 -5
      vertex -13.6941 -2.91076 5
    endloop
  endfacet
  facet normal -0.951057 -0.309017 0
    outer loop
      vertex -13.6941 -2.91076 5
      vertex -12.7896 -5.69431 -5
      vertex -12.7896 -5.69431 5
    endloop
  endfacet
  facet normal -0.866026 -0.5 0
    outer loop
      vertex -12.7896 -5.69431 -5
      vertex -12.7808 -5.70969 -5
      vertex -12.7896 -5.69431 5
    endloop
  endfacet
  facet normal -0.866026 -0.5 0
    outer loop
      vertex -12.7896 -5.69431 5
      vertex -12.7808 -5.70969 -5
      vertex -12.7808 -5.70969 1
    endloop
  endfacet
  facet normal -0.866026 -0.5 0
    outer loop
      vertex -12.7896 -5.69431 5
      vertex -12.7808 -5.70969 1
      vertex -11.3262 -8.22899 1
    endloop
  endfacet
  facet normal -0.866026 -0.5 0
    outer loop
      vertex -12.7896 -5.69431 5
      vertex -11.3262 -8.22899 1
      vertex -11.3262 -8.22899 5
    endloop
  endfacet
  facet normal -0.707107 0.707107 0
    outer loop
      vertex -31.8198 -24.7487 -5
      vertex -31.8198 -24.7487 1
      vertex -12.7808 -5.70969 -5
    endloop
  endfacet
  facet normal -0.707107 0.707107 0
    outer loop
      vertex -12.7808 -5.70969 -5
      vertex -31.8198 -24.7487 1
      vertex -12.7808 -5.70969 1
    endloop
  endfacet
  facet normal -0.707107 -0.707107 0
    outer loop
      vertex -31.8198 -24.7487 1
      vertex -31.8198 -24.7487 -5
      vertex -24.7487 -31.8198 -5
    endloop
  endfacet
  facet normal -0.707107 -0.707107 0
    outer loop
      vertex -24.7487 -31.8198 1
      vertex -31.8198 -24.7487 1
      vertex -24.7487 -31.8198 -5
    endloop
  endfacet
  facet normal 0.707107 -0.707107 0
    outer loop
      vertex -24.7487 -31.8198 1
      vertex -24.7487 -31.8198 -5
      vertex -5.65301 -12.7241 -5
    endloop
  endfacet
  facet normal 0.707107 -0.707107 0
    outer loop
      vertex -5.65301 -12.7241 1
      vertex -24.7487 -31.8198 1
      vertex -5.65301 -12.7241 -5
    endloop
  endfacet
  facet normal -0.406736 -0.913546 0
    outer loop
      vertex -7 -12.1244 5
      vertex -7 -12.1244 1
      vertex -5.65301 -12.7241 1
    endloop
  endfacet
  facet normal -0.406736 -0.913546 0
    outer loop
      vertex -4.32624 -13.3148 5
      vertex -7 -12.1244 5
      vertex -5.65301 -12.7241 1
    endloop
  endfacet
  facet normal -0.406736 -0.913546 0
    outer loop
      vertex -5.65301 -12.7241 -5
      vertex -4.32624 -13.3148 -5
      vertex -5.65301 -12.7241 1
    endloop
  endfacet
  facet normal -0.406736 -0.913546 0
    outer loop
      vertex -4.32624 -13.3148 -5
      vertex -4.32624 -13.3148 5
      vertex -5.65301 -12.7241 1
    endloop
  endfacet
  facet normal -0.207912 -0.978148 0
    outer loop
      vertex -4.32624 -13.3148 5
      vertex -4.32624 -13.3148 -5
      vertex -1.4634 -13.9233 -5
    endloop
  endfacet
  facet normal -0.207912 -0.978148 0
    outer loop
      vertex -1.4634 -13.9233 5
      vertex -4.32624 -13.3148 5
      vertex -1.4634 -13.9233 -5
    endloop
  endfacet
  facet normal 0 -1 0
    outer loop
      vertex -1.4634 -13.9233 5
      vertex -1.4634 -13.9233 -5
      vertex 1.4634 -13.9233 -5
    endloop
  endfacet
  facet normal 0 -1 0
    outer loop
      vertex 1.4634 -13.9233 5
      vertex -1.4634 -13.9233 5
      vertex 1.4634 -13.9233 -5
    endloop
  endfacet
  facet normal 0.207912 -0.978148 0
    outer loop
      vertex 1.4634 -13.9233 5
      vertex 1.4634 -13.9233 -5
      vertex 4.32624 -13.3148 -5
    endloop
  endfacet
  facet normal 0.207912 -0.978148 0
    outer loop
      vertex 4.32624 -13.3148 5
      vertex 1.4634 -13.9233 5
      vertex 4.32624 -13.3148 -5
    endloop
  endfacet
  facet normal 0.406736 -0.913546 0
    outer loop
      vertex 4.32624 -13.3148 5
      vertex 4.32624 -13.3148 -5
      vertex 5.65301 -12.7241 -5
    endloop
  endfacet
  facet normal 0.406736 -0.913546 0
    outer loop
      vertex 7 -12.1244 1
      vertex 4.32624 -13.3148 5
      vertex 5.65301 -12.7241 1
    endloop
  endfacet
  facet normal 0.406736 -0.913546 0
    outer loop
      vertex 5.65301 -12.7241 1
      vertex 4.32624 -13.3148 5
      vertex 5.65301 -12.7241 -5
    endloop
  endfacet
  facet normal 0.406736 -0.913546 0
    outer loop
      vertex 7 -12.1244 5
      vertex 4.32624 -13.3148 5
      vertex 7 -12.1244 1
    endloop
  endfacet
  facet normal -0.707107 -0.707107 0
    outer loop
      vertex 5.65301 -12.7241 1
      vertex 5.65301 -12.7241 -5
      vertex 24.7487 -31.8198 -5
    endloop
  endfacet
  facet normal -0.707107 -0.707107 0
    outer loop
      vertex 24.7487 -31.8198 1
      vertex 5.65301 -12.7241 1
      vertex 24.7487 -31.8198 -5
    endloop
  endfacet
  facet normal 0.707107 -0.707107 0
    outer loop
      vertex 24.7487 -31.8198 1
      vertex 24.7487 -31.8198 -5
      vertex 31.8198 -24.7487 -5
    endloop
  endfacet
  facet normal 0.707107 -0.707107 0
    outer loop
      vertex 31.8198 -24.7487 1
      vertex 24.7487 -31.8198 1
      vertex 31.8198 -24.7487 -5
    endloop
  endfacet
  facet normal 0.707107 0.707107 0
    outer loop
      vertex 12.7808 -5.70969 -5
      vertex 12.7808 -5.70969 1
      vertex 31.8198 -24.7487 -5
    endloop
  endfacet
  facet normal 0.707107 0.707107 0
    outer loop
      vertex 31.8198 -24.7487 -5
      vertex 12.7808 -5.70969 1
      vertex 31.8198 -24.7487 1
    endloop
  endfacet
  facet normal 0.866026 -0.5 0
    outer loop
      vertex 11.3262 -8.22899 5
      vertex 11.3262 -8.22899 1
      vertex 12.7808 -5.70969 1
    endloop
  endfacet
  facet normal 0.866026 -0.5 0
    outer loop
      vertex 12.7896 -5.69431 5
      vertex 11.3262 -8.22899 5
      vertex 12.7808 -5.70969 1
    endloop
  endfacet
  facet normal 0.866026 -0.5 0
    outer loop
      vertex 12.7808 -5.70969 -5
      vertex 12.7896 -5.69431 -5
      vertex 12.7808 -5.70969 1
    endloop
  endfacet
  facet normal 0.866026 -0.5 0
    outer loop
      vertex 12.7896 -5.69431 -5
      vertex 12.7896 -5.69431 5
      vertex 12.7808 -5.70969 1
    endloop
  endfacet
  facet normal 0.951057 -0.309017 0
    outer loop
      vertex 12.7896 -5.69431 5
      vertex 12.7896 -5.69431 -5
      vertex 13.6941 -2.91076 -5
    endloop
  endfacet
  facet normal 0.951057 -0.309017 0
    outer loop
      vertex 13.6941 -2.91076 5
      vertex 12.7896 -5.69431 5
      vertex 13.6941 -2.91076 -5
    endloop
  endfacet
  facet normal 0.994522 -0.104529 0
    outer loop
      vertex 13.8362 -1.55885 0.1
      vertex 13.6941 -2.91076 -5
      vertex 14 0 -5
    endloop
  endfacet
  facet normal 0.994522 -0.104529 0
    outer loop
      vertex 13.8362 -1.55885 1.9
      vertex 14 0 2.8
      vertex 13.6941 -2.91076 5
    endloop
  endfacet
  facet normal 0.994522 -0.104529 0
    outer loop
      vertex 13.6941 -2.91076 5
      vertex 13.6941 -2.91076 -5
      vertex 13.8362 -1.55885 0.1
    endloop
  endfacet
  facet normal 0.994522 -0.104529 0
    outer loop
      vertex 14 0 5
      vertex 13.6941 -2.91076 5
      vertex 14 0 2.8
    endloop
  endfacet
  facet normal 0.994522 -0.104529 0
    outer loop
      vertex 13.8362 -1.55885 0.1
      vertex 13.8362 -1.55885 1.9
      vertex 13.6941 -2.91076 5
    endloop
  endfacet
  facet normal 0.994522 -0.104529 0
    outer loop
      vertex 14 0 -0.8
      vertex 13.8362 -1.55885 0.1
      vertex 14 0 -5
    endloop
  endfacet
  facet normal 0.994522 0.104529 0
    outer loop
      vertex 13.8362 1.55885 0.1
      vertex 13.6941 2.91076 -5
      vertex 13.6941 2.91076 5
    endloop
  endfacet
  facet normal 0.994522 0.104529 0
    outer loop
      vertex 13.8362 1.55885 0.1
      vertex 14 0 -0.8
      vertex 14 0 -5
    endloop
  endfacet
  facet normal 0.994522 0.104529 0
    outer loop
      vertex 14 0 5
      vertex 14 0 2.8
      vertex 13.6941 2.91076 5
    endloop
  endfacet
  facet normal 0.994522 0.104529 0
    outer loop
      vertex 14 0 2.8
      vertex 13.8362 1.55885 1.9
      vertex 13.6941 2.91076 5
    endloop
  endfacet
  facet normal 0.994522 0.104529 0
    outer loop
      vertex 14 0 -5
      vertex 13.6941 2.91076 -5
      vertex 13.8362 1.55885 0.1
    endloop
  endfacet
  facet normal 0.994522 0.104529 0
    outer loop
      vertex 13.8362 1.55885 1.9
      vertex 13.8362 1.55885 0.1
      vertex 13.6941 2.91076 5
    endloop
  endfacet
  facet normal 0.951057 0.309017 0
    outer loop
      vertex 13.6941 2.91076 -5
      vertex 12.7896 5.69431 -5
      vertex 12.7896 5.69431 5
    endloop
  endfacet
  facet normal 0.951057 0.309017 0
    outer loop
      vertex 13.6941 2.91076 5
      vertex 13.6941 2.91076 -5
      vertex 12.7896 5.69431 5
    endloop
  endfacet
  facet normal 0.866026 0.5 0
    outer loop
      vertex 12.7808 5.70969 1
      vertex 11.3262 8.22899 1
      vertex 11.3262 8.22899 5
    endloop
  endfacet
  facet normal 0.866026 0.5 0
    outer loop
      vertex 12.7896 5.69431 -5
      vertex 12.7808 5.70969 1
      vertex 12.7896 5.69431 5
    endloop
  endfacet
  facet normal 0.866026 0.5 0
    outer loop
      vertex 12.7896 5.69431 5
      vertex 12.7808 5.70969 1
      vertex 11.3262 8.22899 5
    endloop
  endfacet
  facet normal 0.866026 0.5 0
    outer loop
      vertex 12.7808 5.70969 -5
      vertex 12.7808 5.70969 1
      vertex 12.7896 5.69431 -5
    endloop
  endfacet
  facet normal 0.707107 -0.707107 0
    outer loop
      vertex 12.7808 5.70969 1
      vertex 12.7808 5.70969 -5
      vertex 31.8198 24.7487 -5
    endloop
  endfacet
  facet normal 0.707107 -0.707107 0
    outer loop
      vertex 31.8198 24.7487 1
      vertex 12.7808 5.70969 1
      vertex 31.8198 24.7487 -5
    endloop
  endfacet
  facet normal 0.707107 0.707107 0
    outer loop
      vertex 24.7487 31.8198 -5
      vertex 24.7487 31.8198 1
      vertex 31.8198 24.7487 -5
    endloop
  endfacet
  facet normal 0.707107 0.707107 0
    outer loop
      vertex 31.8198 24.7487 -5
      vertex 24.7487 31.8198 1
      vertex 31.8198 24.7487 1
    endloop
  endfacet
  facet normal -0.707107 0.707107 0
    outer loop
      vertex 5.65301 12.7241 -5
      vertex 5.65301 12.7241 1
      vertex 24.7487 31.8198 -5
    endloop
  endfacet
  facet normal -0.707107 0.707107 0
    outer loop
      vertex 24.7487 31.8198 -5
      vertex 5.65301 12.7241 1
      vertex 24.7487 31.8198 1
    endloop
  endfacet
  facet normal 0.406736 0.913546 0
    outer loop
      vertex 4.32624 13.3148 -5
      vertex 4.32624 13.3148 5
      vertex 5.65301 12.7241 -5
    endloop
  endfacet
  facet normal 0.406736 0.913546 0
    outer loop
      vertex 5.65301 12.7241 1
      vertex 4.32624 13.3148 5
      vertex 7 12.1244 5
    endloop
  endfacet
  facet normal 0.406736 0.913546 0
    outer loop
      vertex 5.65301 12.7241 -5
      vertex 4.32624 13.3148 5
      vertex 5.65301 12.7241 1
    endloop
  endfacet
  facet normal 0.406736 0.913546 0
    outer loop
      vertex 5.65301 12.7241 1
      vertex 7 12.1244 5
      vertex 7 12.1244 1
    endloop
  endfacet
  facet normal 0.207912 0.978148 0
    outer loop
      vertex 1.4634 13.9233 -5
      vertex 1.4634 13.9233 0.0448931
      vertex 4.32624 13.3148 -5
    endloop
  endfacet
  facet normal 0.207912 0.978148 0
    outer loop
      vertex 4.32624 13.3148 -5
      vertex 1.4634 13.9233 0.0448931
      vertex 1.55885 13.903 0.1
    endloop
  endfacet
  facet normal 0.207912 0.978148 0
    outer loop
      vertex 4.32624 13.3148 -5
      vertex 1.55885 13.903 0.1
      vertex 1.55885 13.903 1.9
    endloop
  endfacet
  facet normal 0.207912 0.978148 0
    outer loop
      vertex 1.55885 13.903 1.9
      vertex 1.4634 13.9233 1.95511
      vertex 1.4634 13.9233 5
    endloop
  endfacet
  facet normal 0.207912 0.978148 0
    outer loop
      vertex 1.55885 13.903 1.9
      vertex 1.4634 13.9233 5
      vertex 4.32624 13.3148 -5
    endloop
  endfacet
  facet normal 0.207912 0.978148 0
    outer loop
      vertex 4.32624 13.3148 -5
      vertex 1.4634 13.9233 5
      vertex 4.32624 13.3148 5
    endloop
  endfacet
  facet normal 0 1 0
    outer loop
      vertex -1.4634 13.9233 -5
      vertex -1.4634 13.9233 0.0448931
      vertex 1.4634 13.9233 -5
    endloop
  endfacet
  facet normal 0 1 0
    outer loop
      vertex 1.4634 13.9233 -5
      vertex -1.4634 13.9233 0.0448931
      vertex 3.0916e-15 13.9233 -0.8
    endloop
  endfacet
  facet normal 0 1 0
    outer loop
      vertex 1.4634 13.9233 -5
      vertex 3.0916e-15 13.9233 -0.8
      vertex 1.4634 13.9233 0.0448931
    endloop
  endfacet
  facet normal -0.207912 0.978148 0
    outer loop
      vertex -4.32624 13.3148 -5
      vertex -4.32624 13.3148 5
      vertex -1.4634 13.9233 -5
    endloop
  endfacet
  facet normal -0.207912 0.978148 0
    outer loop
      vertex -1.4634 13.9233 1.95511
      vertex -4.32624 13.3148 5
      vertex -1.4634 13.9233 5
    endloop
  endfacet
  facet normal -0.207912 0.978148 0
    outer loop
      vertex -1.55885 13.903 1.9
      vertex -4.32624 13.3148 5
      vertex -1.4634 13.9233 1.95511
    endloop
  endfacet
  facet normal -0.207912 0.978148 0
    outer loop
      vertex -1.55885 13.903 0.1
      vertex -4.32624 13.3148 5
      vertex -1.55885 13.903 1.9
    endloop
  endfacet
  facet normal -0.207912 0.978148 0
    outer loop
      vertex -1.4634 13.9233 -5
      vertex -4.32624 13.3148 5
      vertex -1.55885 13.903 0.1
    endloop
  endfacet
  facet normal -0.207912 0.978148 0
    outer loop
      vertex -1.4634 13.9233 0.0448931
      vertex -1.4634 13.9233 -5
      vertex -1.55885 13.903 0.1
    endloop
  endfacet
  facet normal -0.406736 0.913546 0
    outer loop
      vertex -7 12.1244 1
      vertex -7 12.1244 5
      vertex -5.65301 12.7241 1
    endloop
  endfacet
  facet normal -0.406736 0.913546 0
    outer loop
      vertex -5.65301 12.7241 1
      vertex -7 12.1244 5
      vertex -4.32624 13.3148 5
    endloop
  endfacet
  facet normal -0.406736 0.913546 0
    outer loop
      vertex -5.65301 12.7241 1
      vertex -4.32624 13.3148 5
      vertex -4.32624 13.3148 -5
    endloop
  endfacet
  facet normal -0.406736 0.913546 0
    outer loop
      vertex -5.65301 12.7241 1
      vertex -4.32624 13.3148 -5
      vertex -5.65301 12.7241 -5
    endloop
  endfacet
  facet normal 0.707107 0.707107 0
    outer loop
      vertex -24.7487 31.8198 -5
      vertex -24.7487 31.8198 1
      vertex -5.65301 12.7241 -5
    endloop
  endfacet
  facet normal 0.707107 0.707107 0
    outer loop
      vertex -5.65301 12.7241 -5
      vertex -24.7487 31.8198 1
      vertex -5.65301 12.7241 1
    endloop
  endfacet
  facet normal 0.891007 -0.45399 0
    outer loop
      vertex -25.4297 26.0852 -5
      vertex -25.4297 26.0852 1
      vertex -26.2303 24.5141 1
    endloop
  endfacet
  facet normal 0.891007 -0.45399 0
    outer loop
      vertex -26.2303 24.5141 -5
      vertex -25.4297 26.0852 -5
      vertex -26.2303 24.5141 1
    endloop
  endfacet
  facet normal -0.156434 -0.987688 0
    outer loop
      vertex -23.6881 25.8094 -5
      vertex -23.6881 25.8094 1
      vertex -25.4297 26.0852 1
    endloop
  endfacet
  facet normal -0.156434 -0.987688 0
    outer loop
      vertex -25.4297 26.0852 -5
      vertex -23.6881 25.8094 -5
      vertex -25.4297 26.0852 1
    endloop
  endfacet
  facet normal -0.987688 -0.156434 0
    outer loop
      vertex -23.4122 24.0678 1
      vertex -23.6881 25.8094 1
      vertex -23.4122 24.0678 -5
    endloop
  endfacet
  facet normal -0.987688 -0.156434 0
    outer loop
      vertex -23.4122 24.0678 -5
      vertex -23.6881 25.8094 1
      vertex -23.6881 25.8094 -5
    endloop
  endfacet
  facet normal -0.45399 0.891007 0
    outer loop
      vertex -23.4122 24.0678 1
      vertex -23.4122 24.0678 -5
      vertex -24.9834 23.2672 1
    endloop
  endfacet
  facet normal -0.45399 0.891007 0
    outer loop
      vertex -24.9834 23.2672 1
      vertex -23.4122 24.0678 -5
      vertex -24.9834 23.2672 -5
    endloop
  endfacet
  facet normal 0.707107 0.707107 0
    outer loop
      vertex -24.9834 23.2672 1
      vertex -24.9834 23.2672 -5
      vertex -26.2303 24.5141 1
    endloop
  endfacet
  facet normal 0.707107 0.707107 0
    outer loop
      vertex -26.2303 24.5141 1
      vertex -24.9834 23.2672 -5
      vertex -26.2303 24.5141 -5
    endloop
  endfacet
  facet normal -0.156434 -0.987688 0
    outer loop
      vertex -23.6881 -23.6881 -5
      vertex -23.6881 -23.6881 1
      vertex -25.4297 -23.4122 1
    endloop
  endfacet
  facet normal -0.156434 -0.987688 0
    outer loop
      vertex -25.4297 -23.4122 -5
      vertex -23.6881 -23.6881 -5
      vertex -25.4297 -23.4122 1
    endloop
  endfacet
  facet normal 0.891007 -0.45399 0
    outer loop
      vertex -25.4297 -23.4122 -5
      vertex -25.4297 -23.4122 1
      vertex -26.2303 -24.9834 1
    endloop
  endfacet
  facet normal 0.891007 -0.45399 0
    outer loop
      vertex -26.2303 -24.9834 -5
      vertex -25.4297 -23.4122 -5
      vertex -26.2303 -24.9834 1
    endloop
  endfacet
  facet normal -0.987688 -0.156434 0
    outer loop
      vertex -23.4122 -25.4297 1
      vertex -23.6881 -23.6881 1
      vertex -23.4122 -25.4297 -5
    endloop
  endfacet
  facet normal -0.987688 -0.156434 0
    outer loop
      vertex -23.4122 -25.4297 -5
      vertex -23.6881 -23.6881 1
      vertex -23.6881 -23.6881 -5
    endloop
  endfacet
  facet normal -0.45399 0.891007 0
    outer loop
      vertex -23.4122 -25.4297 1
      vertex -23.4122 -25.4297 -5
      vertex -24.9834 -26.2303 1
    endloop
  endfacet
  facet normal -0.45399 0.891007 0
    outer loop
      vertex -24.9834 -26.2303 1
      vertex -23.4122 -25.4297 -5
      vertex -24.9834 -26.2303 -5
    endloop
  endfacet
  facet normal 0.707107 0.707107 0
    outer loop
      vertex -24.9834 -26.2303 1
      vertex -24.9834 -26.2303 -5
      vertex -26.2303 -24.9834 1
    endloop
  endfacet
  facet normal 0.707107 0.707107 0
    outer loop
      vertex -26.2303 -24.9834 1
      vertex -24.9834 -26.2303 -5
      vertex -26.2303 -24.9834 -5
    endloop
  endfacet
  facet normal 0.951057 0.309017 0
    outer loop
      vertex -3 0 5
      vertex -2.42705 -1.76336 5
      vertex -2.42705 -1.76336 -5
    endloop
  endfacet
  facet normal 0.951057 0.309017 0
    outer loop
      vertex -3 0 -5
      vertex -3 0 5
      vertex -2.42705 -1.76336 -5
    endloop
  endfacet
  facet normal 0.951057 -0.309017 0
    outer loop
      vertex -2.42705 1.76336 -5
      vertex -2.42705 1.76336 5
      vertex -3 0 5
    endloop
  endfacet
  facet normal 0.951057 -0.309017 0
    outer loop
      vertex -3 0 -5
      vertex -2.42705 1.76336 -5
      vertex -3 0 5
    endloop
  endfacet
  facet normal 0.587785 -0.809017 0
    outer loop
      vertex -1.55885 2.39414 1.9
      vertex -2.42705 1.76336 5
      vertex -1.55885 2.39414 0.1
    endloop
  endfacet
  facet normal 0.587785 -0.809017 0
    outer loop
      vertex -0.927051 2.85317 -5
      vertex -0.927051 2.85317 -0.264767
      vertex -1.55885 2.39414 0.1
    endloop
  endfacet
  facet normal 0.587785 -0.809017 0
    outer loop
      vertex -2.42705 1.76336 5
      vertex -0.927051 2.85317 -5
      vertex -1.55885 2.39414 0.1
    endloop
  endfacet
  facet normal 0.587785 -0.809017 0
    outer loop
      vertex -0.927051 2.85317 2.26477
      vertex -0.927051 2.85317 5
      vertex -1.55885 2.39414 1.9
    endloop
  endfacet
  facet normal 0.587785 -0.809017 0
    outer loop
      vertex -0.927051 2.85317 5
      vertex -2.42705 1.76336 5
      vertex -1.55885 2.39414 1.9
    endloop
  endfacet
  facet normal 0.587785 -0.809017 0
    outer loop
      vertex -2.42705 1.76336 5
      vertex -2.42705 1.76336 -5
      vertex -0.927051 2.85317 -5
    endloop
  endfacet
  facet normal 0 -1 0
    outer loop
      vertex 0.927051 2.85317 -5
      vertex 0.927051 2.85317 -0.264767
      vertex 6.33531e-16 2.85317 -0.8
    endloop
  endfacet
  facet normal 0 -1 0
    outer loop
      vertex -0.927051 2.85317 -0.264767
      vertex 0.927051 2.85317 -5
      vertex 6.33531e-16 2.85317 -0.8
    endloop
  endfacet
  facet normal 0 -1 0
    outer loop
      vertex -0.927051 2.85317 -0.264767
      vertex -0.927051 2.85317 -5
      vertex 0.927051 2.85317 -5
    endloop
  endfacet
  facet normal -0.587785 -0.809017 0
    outer loop
      vertex 1.55885 2.39414 1.9
      vertex 2.42705 1.76336 5
      vertex 0.927051 2.85317 5
    endloop
  endfacet
  facet normal -0.587785 -0.809017 0
    outer loop
      vertex 1.55885 2.39414 0.1
      vertex 0.927051 2.85317 -0.264767
      vertex 2.42705 1.76336 -5
    endloop
  endfacet
  facet normal -0.587785 -0.809017 0
    outer loop
      vertex 2.42705 1.76336 -5
      vertex 2.42705 1.76336 5
      vertex 1.55885 2.39414 1.9
    endloop
  endfacet
  facet normal -0.587785 -0.809017 0
    outer loop
      vertex 0.927051 2.85317 -5
      vertex 2.42705 1.76336 -5
      vertex 0.927051 2.85317 -0.264767
    endloop
  endfacet
  facet normal -0.587785 -0.809017 0
    outer loop
      vertex 1.55885 2.39414 1.9
      vertex 1.55885 2.39414 0.1
      vertex 2.42705 1.76336 -5
    endloop
  endfacet
  facet normal -0.587785 -0.809017 0
    outer loop
      vertex 0.927051 2.85317 2.26477
      vertex 1.55885 2.39414 1.9
      vertex 0.927051 2.85317 5
    endloop
  endfacet
  facet normal -0.951057 -0.309017 0
    outer loop
      vertex 3 0 -0.8
      vertex 2.4935 1.55885 0.1
      vertex 3 0 -5
    endloop
  endfacet
  facet normal -0.951057 -0.309017 0
    outer loop
      vertex 2.42705 1.76336 -5
      vertex 2.4935 1.55885 0.1
      vertex 2.42705 1.76336 5
    endloop
  endfacet
  facet normal -0.951057 -0.309017 0
    outer loop
      vertex 3 0 5
      vertex 2.4935 1.55885 1.9
      vertex 3 0 2.8
    endloop
  endfacet
  facet normal -0.951057 -0.309017 0
    outer loop
      vertex 2.42705 1.76336 5
      vertex 2.4935 1.55885 1.9
      vertex 3 0 5
    endloop
  endfacet
  facet normal -0.951057 -0.309017 0
    outer loop
      vertex 2.4935 1.55885 0.1
      vertex 2.4935 1.55885 1.9
      vertex 2.42705 1.76336 5
    endloop
  endfacet
  facet normal -0.951057 -0.309017 0
    outer loop
      vertex 3 0 -5
      vertex 2.4935 1.55885 0.1
      vertex 2.42705 1.76336 -5
    endloop
  endfacet
  facet normal -0.951057 0.309017 0
    outer loop
      vertex 3 0 5
      vertex 3 0 2.8
      vertex 2.42705 -1.76336 5
    endloop
  endfacet
  facet normal -0.951057 0.309017 0
    outer loop
      vertex 2.42705 -1.76336 5
      vertex 3 0 2.8
      vertex 2.4935 -1.55885 1.9
    endloop
  endfacet
  facet normal -0.951057 0.309017 0
    outer loop
      vertex 2.42705 -1.76336 5
      vertex 2.4935 -1.55885 1.9
      vertex 2.4935 -1.55885 0.1
    endloop
  endfacet
  facet normal -0.951057 0.309017 0
    outer loop
      vertex 2.4935 -1.55885 0.1
      vertex 3 0 -0.8
      vertex 3 0 -5
    endloop
  endfacet
  facet normal -0.951057 0.309017 0
    outer loop
      vertex 2.4935 -1.55885 0.1
      vertex 3 0 -5
      vertex 2.42705 -1.76336 -5
    endloop
  endfacet
  facet normal -0.951057 0.309017 0
    outer loop
      vertex 2.4935 -1.55885 0.1
      vertex 2.42705 -1.76336 -5
      vertex 2.42705 -1.76336 5
    endloop
  endfacet
  facet normal -0.587785 0.809017 0
    outer loop
      vertex 2.42705 -1.76336 5
      vertex 2.42705 -1.76336 -5
      vertex 0.927051 -2.85317 5
    endloop
  endfacet
  facet normal -0.587785 0.809017 0
    outer loop
      vertex 0.927051 -2.85317 5
      vertex 2.42705 -1.76336 -5
      vertex 0.927051 -2.85317 -5
    endloop
  endfacet
  facet normal 0 1 0
    outer loop
      vertex 0.927051 -2.85317 5
      vertex 0.927051 -2.85317 -5
      vertex -0.927051 -2.85317 5
    endloop
  endfacet
  facet normal 0 1 0
    outer loop
      vertex -0.927051 -2.85317 5
      vertex 0.927051 -2.85317 -5
      vertex -0.927051 -2.85317 -5
    endloop
  endfacet
  facet normal 0.587785 0.809017 0
    outer loop
      vertex -0.927051 -2.85317 5
      vertex -0.927051 -2.85317 -5
      vertex -2.42705 -1.76336 5
    endloop
  endfacet
  facet normal 0.587785 0.809017 0
    outer loop
      vertex -2.42705 -1.76336 5
      vertex -0.927051 -2.85317 -5
      vertex -2.42705 -1.76336 -5
    endloop
  endfacet
  facet normal 0.891007 -0.45399 0
    outer loop
      vertex 24.0678 26.0852 -5
      vertex 24.0678 26.0852 1
      vertex 23.2672 24.5141 1
    endloop
  endfacet
  facet normal 0.891007 -0.45399 0
    outer loop
      vertex 23.2672 24.5141 -5
      vertex 24.0678 26.0852 -5
      vertex 23.2672 24.5141 1
    endloop
  endfacet
  facet normal -0.156434 -0.987688 0
    outer loop
      vertex 25.8094 25.8094 -5
      vertex 25.8094 25.8094 1
      vertex 24.0678 26.0852 1
    endloop
  endfacet
  facet normal -0.156434 -0.987688 0
    outer loop
      vertex 24.0678 26.0852 -5
      vertex 25.8094 25.8094 -5
      vertex 24.0678 26.0852 1
    endloop
  endfacet
  facet normal -0.987688 -0.156434 0
    outer loop
      vertex 26.0852 24.0678 1
      vertex 25.8094 25.8094 1
      vertex 26.0852 24.0678 -5
    endloop
  endfacet
  facet normal -0.987688 -0.156434 0
    outer loop
      vertex 26.0852 24.0678 -5
      vertex 25.8094 25.8094 1
      vertex 25.8094 25.8094 -5
    endloop
  endfacet
  facet normal -0.45399 0.891007 0
    outer loop
      vertex 26.0852 24.0678 1
      vertex 26.0852 24.0678 -5
      vertex 24.5141 23.2672 1
    endloop
  endfacet
  facet normal -0.45399 0.891007 0
    outer loop
      vertex 24.5141 23.2672 1
      vertex 26.0852 24.0678 -5
      vertex 24.5141 23.2672 -5
    endloop
  endfacet
  facet normal 0.707107 0.707107 0
    outer loop
      vertex 24.5141 23.2672 1
      vertex 24.5141 23.2672 -5
      vertex 23.2672 24.5141 1
    endloop
  endfacet
  facet normal 0.707107 0.707107 0
    outer loop
      vertex 23.2672 24.5141 1
      vertex 24.5141 23.2672 -5
      vertex 23.2672 24.5141 -5
    endloop
  endfacet
  facet normal -0.156434 -0.987688 0
    outer loop
      vertex 25.8094 -23.6881 -5
      vertex 25.8094 -23.6881 1
      vertex 24.0678 -23.4122 1
    endloop
  endfacet
  facet normal -0.156434 -0.987688 0
    outer loop
      vertex 24.0678 -23.4122 -5
      vertex 25.8094 -23.6881 -5
      vertex 24.0678 -23.4122 1
    endloop
  endfacet
  facet normal 0.891007 -0.45399 0
    outer loop
      vertex 24.0678 -23.4122 -5
      vertex 24.0678 -23.4122 1
      vertex 23.2672 -24.9834 1
    endloop
  endfacet
  facet normal 0.891007 -0.45399 0
    outer loop
      vertex 23.2672 -24.9834 -5
      vertex 24.0678 -23.4122 -5
      vertex 23.2672 -24.9834 1
    endloop
  endfacet
  facet normal -0.987688 -0.156434 0
    outer loop
      vertex 26.0852 -25.4297 1
      vertex 25.8094 -23.6881 1
      vertex 26.0852 -25.4297 -5
    endloop
  endfacet
  facet normal -0.987688 -0.156434 0
    outer loop
      vertex 26.0852 -25.4297 -5
      vertex 25.8094 -23.6881 1
      vertex 25.8094 -23.6881 -5
    endloop
  endfacet
  facet normal -0.45399 0.891007 0
    outer loop
      vertex 26.0852 -25.4297 1
      vertex 26.0852 -25.4297 -5
      vertex 24.5141 -26.2303 1
    endloop
  endfacet
  facet normal -0.45399 0.891007 0
    outer loop
      vertex 24.5141 -26.2303 1
      vertex 26.0852 -25.4297 -5
      vertex 24.5141 -26.2303 -5
    endloop
  endfacet
  facet normal 0.707107 0.707107 0
    outer loop
      vertex 24.5141 -26.2303 1
      vertex 24.5141 -26.2303 -5
      vertex 23.2672 -24.9834 1
    endloop
  endfacet
  facet normal 0.707107 0.707107 0
    outer loop
      vertex 23.2672 -24.9834 1
      vertex 24.5141 -26.2303 -5
      vertex 23.2672 -24.9834 -5
    endloop
  endfacet
  facet normal -0.587785 0.809017 0
    outer loop
      vertex -9.36783 10.404 1
      vertex -9.36783 10.404 5
      vertex -7 12.1244 1
    endloop
  endfacet
  facet normal -0.587785 0.809017 0
    outer loop
      vertex -7 12.1244 1
      vertex -9.36783 10.404 5
      vertex -7 12.1244 5
    endloop
  endfacet
  facet normal -0.743145 0.669131 0
    outer loop
      vertex -11.3262 8.22899 1
      vertex -11.3262 8.22899 5
      vertex -9.36783 10.404 1
    endloop
  endfacet
  facet normal -0.743145 0.669131 0
    outer loop
      vertex -9.36783 10.404 1
      vertex -11.3262 8.22899 5
      vertex -9.36783 10.404 5
    endloop
  endfacet
  facet normal 0 0 1
    outer loop
      vertex -13.6941 2.91076 5
      vertex -14 0 5
      vertex -13.6941 -2.91076 5
    endloop
  endfacet
  facet normal 0 0 1
    outer loop
      vertex -11.3262 -8.22899 5
      vertex -13.6941 2.91076 5
      vertex -12.7896 -5.69431 5
    endloop
  endfacet
  facet normal 0 0 1
    outer loop
      vertex -12.7896 -5.69431 5
      vertex -13.6941 2.91076 5
      vertex -13.6941 -2.91076 5
    endloop
  endfacet
  facet normal 0 0 1
    outer loop
      vertex -9.36783 -10.404 5
      vertex -13.6941 2.91076 5
      vertex -11.3262 -8.22899 5
    endloop
  endfacet
  facet normal 0 0 1
    outer loop
      vertex -7 -12.1244 5
      vertex -13.6941 2.91076 5
      vertex -9.36783 -10.404 5
    endloop
  endfacet
  facet normal 0 0 1
    outer loop
      vertex -4.32624 -13.3148 5
      vertex -13.6941 2.91076 5
      vertex -7 -12.1244 5
    endloop
  endfacet
  facet normal 0 0 1
    outer loop
      vertex -1.4634 -13.9233 5
      vertex -13.6941 2.91076 5
      vertex -4.32624 -13.3148 5
    endloop
  endfacet
  facet normal 0 0 1
    outer loop
      vertex 1.4634 -13.9233 5
      vertex -13.6941 2.91076 5
      vertex -1.4634 -13.9233 5
    endloop
  endfacet
  facet normal 0 0 1
    outer loop
      vertex 4.32624 -13.3148 5
      vertex -13.6941 2.91076 5
      vertex 1.4634 -13.9233 5
    endloop
  endfacet
  facet normal 0 0 1
    outer loop
      vertex 7 -12.1244 5
      vertex -13.6941 2.91076 5
      vertex 4.32624 -13.3148 5
    endloop
  endfacet
  facet normal 0 0 1
    outer loop
      vertex 9.36783 -10.404 5
      vertex -13.6941 2.91076 5
      vertex 7 -12.1244 5
    endloop
  endfacet
  facet normal 0 0 1
    outer loop
      vertex -0.927051 -2.85317 5
      vertex -13.6941 2.91076 5
      vertex 9.36783 -10.404 5
    endloop
  endfacet
  facet normal 0 0 1
    outer loop
      vertex 3.5 5.25 5
      vertex -13.6941 2.91076 5
      vertex 12.7896 5.69431 5
    endloop
  endfacet
  facet normal 0 0 1
    outer loop
      vertex -3.5 8.75 5
      vertex 3.5 8.75 5
      vertex 7 12.1244 5
    endloop
  endfacet
  facet normal 0 0 1
    outer loop
      vertex 3.5 8.75 5
      vertex 3.5 5.25 5
      vertex 11.3262 8.22899 5
    endloop
  endfacet
  facet normal 0 0 1
    outer loop
      vertex 1.4634 13.9233 5
      vertex -13.6941 2.91076 5
      vertex 4.32624 13.3148 5
    endloop
  endfacet
  facet normal 0 0 1
    outer loop
      vertex -1.4634 13.9233 5
      vertex -13.6941 2.91076 5
      vertex 1.4634 13.9233 5
    endloop
  endfacet
  facet normal 0 0 1
    outer loop
      vertex -4.32624 13.3148 5
      vertex -13.6941 2.91076 5
      vertex -1.4634 13.9233 5
    endloop
  endfacet
  facet normal 0 0 1
    outer loop
      vertex -7 12.1244 5
      vertex -13.6941 2.91076 5
      vertex -4.32624 13.3148 5
    endloop
  endfacet
  facet normal 0 0 1
    outer loop
      vertex -9.36783 10.404 5
      vertex -13.6941 2.91076 5
      vertex -7 12.1244 5
    endloop
  endfacet
  facet normal 0 0 1
    outer loop
      vertex -11.3262 8.22899 5
      vertex -13.6941 2.91076 5
      vertex -9.36783 10.404 5
    endloop
  endfacet
  facet normal 0 0 1
    outer loop
      vertex -12.7896 5.69431 5
      vertex -13.6941 2.91076 5
      vertex -11.3262 8.22899 5
    endloop
  endfacet
  facet normal 0 0 1
    outer loop
      vertex -0.927051 -2.85317 5
      vertex -2.42705 -1.76336 5
      vertex -13.6941 2.91076 5
    endloop
  endfacet
  facet normal 0 0 1
    outer loop
      vertex -3 0 5
      vertex -2.42705 1.76336 5
      vertex -13.6941 2.91076 5
    endloop
  endfacet
  facet normal 0 0 1
    outer loop
      vertex 4.32624 13.3148 5
      vertex -3.5 8.75 5
      vertex 7 12.1244 5
    endloop
  endfacet
  facet normal 0 0 1
    outer loop
      vertex 4.32624 13.3148 5
      vertex -13.6941 2.91076 5
      vertex -3.5 8.75 5
    endloop
  endfacet
  facet normal 0 0 1
    outer loop
      vertex 7 12.1244 5
      vertex 3.5 8.75 5
      vertex 9.36783 10.404 5
    endloop
  endfacet
  facet normal 0 0 1
    outer loop
      vertex 3.5 8.75 5
      vertex 11.3262 8.22899 5
      vertex 9.36783 10.404 5
    endloop
  endfacet
  facet normal 0 0 1
    outer loop
      vertex 11.3262 8.22899 5
      vertex 3.5 5.25 5
      vertex 12.7896 5.69431 5
    endloop
  endfacet
  facet normal 0 0 1
    outer loop
      vertex -2.42705 -1.76336 5
      vertex -3 0 5
      vertex -13.6941 2.91076 5
    endloop
  endfacet
  facet normal 0 0 1
    outer loop
      vertex 8.75 -3.5 5
      vertex 5.25 -3.5 5
      vertex 12.7896 -5.69431 5
    endloop
  endfacet
  facet normal 0 0 1
    outer loop
      vertex 5.25 -3.5 5
      vertex 3 0 5
      vertex 2.42705 -1.76336 5
    endloop
  endfacet
  facet normal 0 0 1
    outer loop
      vertex 5.25 -3.5 5
      vertex 0.927051 -2.85317 5
      vertex 12.7896 -5.69431 5
    endloop
  endfacet
  facet normal 0 0 1
    outer loop
      vertex -0.927051 2.85317 5
      vertex -13.6941 2.91076 5
      vertex -2.42705 1.76336 5
    endloop
  endfacet
  facet normal 0 0 1
    outer loop
      vertex 8.75 3.5 5
      vertex 14 0 5
      vertex 13.6941 2.91076 5
    endloop
  endfacet
  facet normal 0 0 1
    outer loop
      vertex 8.75 3.5 5
      vertex 13.6941 -2.91076 5
      vertex 14 0 5
    endloop
  endfacet
  facet normal 0 0 1
    outer loop
      vertex 8.75 3.5 5
      vertex 8.75 -3.5 5
      vertex 13.6941 -2.91076 5
    endloop
  endfacet
  facet normal 0 0 1
    outer loop
      vertex 12.7896 -5.69431 5
      vertex 0.927051 -2.85317 5
      vertex 11.3262 -8.22899 5
    endloop
  endfacet
  facet normal 0 0 1
    outer loop
      vertex 11.3262 -8.22899 5
      vertex -0.927051 -2.85317 5
      vertex 9.36783 -10.404 5
    endloop
  endfacet
  facet normal 0 0 1
    outer loop
      vertex 0.927051 -2.85317 5
      vertex -0.927051 -2.85317 5
      vertex 11.3262 -8.22899 5
    endloop
  endfacet
  facet normal 0 0 1
    outer loop
      vertex 12.7896 5.69431 5
      vertex -13.6941 2.91076 5
      vertex 5.25 3.5 5
    endloop
  endfacet
  facet normal 0 0 1
    outer loop
      vertex 12.7896 5.69431 5
      vertex 8.75 3.5 5
      vertex 13.6941 2.91076 5
    endloop
  endfacet
  facet normal 0 0 1
    outer loop
      vertex 12.7896 5.69431 5
      vertex 5.25 3.5 5
      vertex 8.75 3.5 5
    endloop
  endfacet
  facet normal 0 0 1
    outer loop
      vertex 13.6941 -2.91076 5
      vertex 8.75 -3.5 5
      vertex 12.7896 -5.69431 5
    endloop
  endfacet
  facet normal 0 0 1
    outer loop
      vertex 3.5 5.25 5
      vertex -3.5 5.25 5
      vertex -13.6941 2.91076 5
    endloop
  endfacet
  facet normal 0 0 1
    outer loop
      vertex -3.5 5.25 5
      vertex -3.5 8.75 5
      vertex -13.6941 2.91076 5
    endloop
  endfacet
  facet normal 0 0 1
    outer loop
      vertex 2.42705 -1.76336 5
      vertex 0.927051 -2.85317 5
      vertex 5.25 -3.5 5
    endloop
  endfacet
  facet normal 0 0 1
    outer loop
      vertex 5.25 -3.5 5
      vertex 2.42705 1.76336 5
      vertex 3 0 5
    endloop
  endfacet
  facet normal 0 0 1
    outer loop
      vertex 0.927051 2.85317 5
      vertex -13.6941 2.91076 5
      vertex -0.927051 2.85317 5
    endloop
  endfacet
  facet normal 0 0 1
    outer loop
      vertex 0.927051 2.85317 5
      vertex 5.25 3.5 5
      vertex -13.6941 2.91076 5
    endloop
  endfacet
  facet normal 0 0 1
    outer loop
      vertex 2.42705 1.76336 5
      vertex 5.25 3.5 5
      vertex 0.927051 2.85317 5
    endloop
  endfacet
  facet normal 0 0 1
    outer loop
      vertex 5.25 -3.5 5
      vertex 5.25 3.5 5
      vertex 2.42705 1.76336 5
    endloop
  endfacet
  facet normal -0.743145 -0.669131 0
    outer loop
      vertex -11.3262 -8.22899 1
      vertex -9.36783 -10.404 1
      vertex -11.3262 -8.22899 5
    endloop
  endfacet
  facet normal -0.743145 -0.669131 0
    outer loop
      vertex -11.3262 -8.22899 5
      vertex -9.36783 -10.404 1
      vertex -9.36783 -10.404 5
    endloop
  endfacet
  facet normal 0 0 1
    outer loop
      vertex -26.2303 -24.9834 1
      vertex -31.8198 -24.7487 1
      vertex -24.7487 -31.8198 1
    endloop
  endfacet
  facet normal 0 0 1
    outer loop
      vertex -11.3262 -8.22899 1
      vertex -12.7808 -5.70969 1
      vertex -24.7487 -31.8198 1
    endloop
  endfacet
  facet normal 0 0 1
    outer loop
      vertex -5.65301 -12.7241 1
      vertex -7 -12.1244 1
      vertex -24.7487 -31.8198 1
    endloop
  endfacet
  facet normal 0 0 1
    outer loop
      vertex -7 -12.1244 1
      vertex -9.36783 -10.404 1
      vertex -24.7487 -31.8198 1
    endloop
  endfacet
  facet normal 0 0 1
    outer loop
      vertex -9.36783 -10.404 1
      vertex -11.3262 -8.22899 1
      vertex -24.7487 -31.8198 1
    endloop
  endfacet
  facet normal 0 0 1
    outer loop
      vertex -24.9834 -26.2303 1
      vertex -26.2303 -24.9834 1
      vertex -24.7487 -31.8198 1
    endloop
  endfacet
  facet normal 0 0 1
    outer loop
      vertex -25.4297 -23.4122 1
      vertex -31.8198 -24.7487 1
      vertex -26.2303 -24.9834 1
    endloop
  endfacet
  facet normal 0 0 1
    outer loop
      vertex -23.4122 -25.4297 1
      vertex -24.9834 -26.2303 1
      vertex -24.7487 -31.8198 1
    endloop
  endfacet
  facet normal 0 0 1
    outer loop
      vertex -12.7808 -5.70969 1
      vertex -31.8198 -24.7487 1
      vertex -25.4297 -23.4122 1
    endloop
  endfacet
  facet normal 0 0 1
    outer loop
      vertex -12.7808 -5.70969 1
      vertex -23.4122 -25.4297 1
      vertex -24.7487 -31.8198 1
    endloop
  endfacet
  facet normal 0 0 1
    outer loop
      vertex -12.7808 -5.70969 1
      vertex -23.6881 -23.6881 1
      vertex -23.4122 -25.4297 1
    endloop
  endfacet
  facet normal 0 0 1
    outer loop
      vertex -25.4297 -23.4122 1
      vertex -23.6881 -23.6881 1
      vertex -12.7808 -5.70969 1
    endloop
  endfacet
  facet normal -0.587785 -0.809017 0
    outer loop
      vertex -9.36783 -10.404 5
      vertex -9.36783 -10.404 1
      vertex -7 -12.1244 1
    endloop
  endfacet
  facet normal -0.587785 -0.809017 0
    outer loop
      vertex -7 -12.1244 5
      vertex -9.36783 -10.404 5
      vertex -7 -12.1244 1
    endloop
  endfacet
  facet normal 0.587785 -0.809017 0
    outer loop
      vertex 7 -12.1244 5
      vertex 7 -12.1244 1
      vertex 9.36783 -10.404 1
    endloop
  endfacet
  facet normal 0.587785 -0.809017 0
    outer loop
      vertex 9.36783 -10.404 5
      vertex 7 -12.1244 5
      vertex 9.36783 -10.404 1
    endloop
  endfacet
  facet normal 0 0 1
    outer loop
      vertex 7 -12.1244 1
      vertex 5.65301 -12.7241 1
      vertex 24.7487 -31.8198 1
    endloop
  endfacet
  facet normal 0 0 1
    outer loop
      vertex 9.36783 -10.404 1
      vertex 7 -12.1244 1
      vertex 31.8198 -24.7487 1
    endloop
  endfacet
  facet normal 0 0 1
    outer loop
      vertex 23.2672 -24.9834 1
      vertex 7 -12.1244 1
      vertex 24.7487 -31.8198 1
    endloop
  endfacet
  facet normal 0 0 1
    outer loop
      vertex 12.7808 -5.70969 1
      vertex 11.3262 -8.22899 1
      vertex 31.8198 -24.7487 1
    endloop
  endfacet
  facet normal 0 0 1
    outer loop
      vertex 11.3262 -8.22899 1
      vertex 9.36783 -10.404 1
      vertex 31.8198 -24.7487 1
    endloop
  endfacet
  facet normal 0 0 1
    outer loop
      vertex 24.5141 -26.2303 1
      vertex 23.2672 -24.9834 1
      vertex 24.7487 -31.8198 1
    endloop
  endfacet
  facet normal 0 0 1
    outer loop
      vertex 24.0678 -23.4122 1
      vertex 7 -12.1244 1
      vertex 23.2672 -24.9834 1
    endloop
  endfacet
  facet normal 0 0 1
    outer loop
      vertex 25.8094 -23.6881 1
      vertex 7 -12.1244 1
      vertex 24.0678 -23.4122 1
    endloop
  endfacet
  facet normal 0 0 1
    outer loop
      vertex 31.8198 -24.7487 1
      vertex 7 -12.1244 1
      vertex 25.8094 -23.6881 1
    endloop
  endfacet
  facet normal 0 0 1
    outer loop
      vertex 31.8198 -24.7487 1
      vertex 26.0852 -25.4297 1
      vertex 24.7487 -31.8198 1
    endloop
  endfacet
  facet normal 0 0 1
    outer loop
      vertex 26.0852 -25.4297 1
      vertex 24.5141 -26.2303 1
      vertex 24.7487 -31.8198 1
    endloop
  endfacet
  facet normal 0 0 1
    outer loop
      vertex 25.8094 -23.6881 1
      vertex 26.0852 -25.4297 1
      vertex 31.8198 -24.7487 1
    endloop
  endfacet
  facet normal 0.743145 -0.669131 0
    outer loop
      vertex 9.36783 -10.404 5
      vertex 9.36783 -10.404 1
      vertex 11.3262 -8.22899 1
    endloop
  endfacet
  facet normal 0.743145 -0.669131 0
    outer loop
      vertex 11.3262 -8.22899 5
      vertex 9.36783 -10.404 5
      vertex 11.3262 -8.22899 1
    endloop
  endfacet
  facet normal 1.92296e-16 0.5 -0.866025
    outer loop
      vertex 14 0 2.8
      vertex 13.8362 -1.55885 1.9
      vertex 8.75 0 2.8
    endloop
  endfacet
  facet normal 1.92296e-16 0.5 -0.866025
    outer loop
      vertex 8.75 0 2.8
      vertex 13.8362 -1.55885 1.9
      vertex 8.75 -1.55885 1.9
    endloop
  endfacet
  facet normal 1.92296e-16 -0.5 -0.866025
    outer loop
      vertex 13.8362 1.55885 1.9
      vertex 14 0 2.8
      vertex 8.75 1.55885 1.9
    endloop
  endfacet
  facet normal 1.92296e-16 -0.5 -0.866025
    outer loop
      vertex 8.75 1.55885 1.9
      vertex 14 0 2.8
      vertex 8.75 0 2.8
    endloop
  endfacet
  facet normal 0 1 0
    outer loop
      vertex 13.8362 -1.55885 1.9
      vertex 13.8362 -1.55885 0.1
      vertex 8.75 -1.55885 1.9
    endloop
  endfacet
  facet normal 0 1 0
    outer loop
      vertex 8.75 -1.55885 1.9
      vertex 13.8362 -1.55885 0.1
      vertex 8.75 -1.55885 0.1
    endloop
  endfacet
  facet normal -1.92296e-16 0.5 0.866025
    outer loop
      vertex 13.8362 -1.55885 0.1
      vertex 14 0 -0.8
      vertex 8.75 0 -0.8
    endloop
  endfacet
  facet normal -1.92296e-16 0.5 0.866025
    outer loop
      vertex 8.75 -1.55885 0.1
      vertex 13.8362 -1.55885 0.1
      vertex 8.75 0 -0.8
    endloop
  endfacet
  facet normal -1.92296e-16 -0.5 0.866025
    outer loop
      vertex 14 0 -0.8
      vertex 13.8362 1.55885 0.1
      vertex 8.75 1.55885 0.1
    endloop
  endfacet
  facet normal -1.92296e-16 -0.5 0.866025
    outer loop
      vertex 8.75 0 -0.8
      vertex 14 0 -0.8
      vertex 8.75 1.55885 0.1
    endloop
  endfacet
  facet normal 0 -1 0
    outer loop
      vertex 13.8362 1.55885 0.1
      vertex 13.8362 1.55885 1.9
      vertex 8.75 1.55885 1.9
    endloop
  endfacet
  facet normal 0 -1 0
    outer loop
      vertex 8.75 1.55885 0.1
      vertex 13.8362 1.55885 0.1
      vertex 8.75 1.55885 1.9
    endloop
  endfacet
  facet normal 0 0 1
    outer loop
      vertex 11.3262 8.22899 1
      vertex 12.7808 5.70969 1
      vertex 24.7487 31.8198 1
    endloop
  endfacet
  facet normal 0 0 1
    outer loop
      vertex 24.7487 31.8198 1
      vertex 5.65301 12.7241 1
      vertex 7 12.1244 1
    endloop
  endfacet
  facet normal 0 0 1
    outer loop
      vertex 9.36783 10.404 1
      vertex 24.7487 31.8198 1
      vertex 7 12.1244 1
    endloop
  endfacet
  facet normal 0 0 1
    outer loop
      vertex 9.36783 10.404 1
      vertex 11.3262 8.22899 1
      vertex 24.7487 31.8198 1
    endloop
  endfacet
  facet normal 0 0 1
    outer loop
      vertex 25.8094 25.8094 1
      vertex 31.8198 24.7487 1
      vertex 24.7487 31.8198 1
    endloop
  endfacet
  facet normal 0 0 1
    outer loop
      vertex 12.7808 5.70969 1
      vertex 23.2672 24.5141 1
      vertex 24.7487 31.8198 1
    endloop
  endfacet
  facet normal 0 0 1
    outer loop
      vertex 23.2672 24.5141 1
      vertex 24.0678 26.0852 1
      vertex 24.7487 31.8198 1
    endloop
  endfacet
  facet normal 0 0 1
    outer loop
      vertex 24.0678 26.0852 1
      vertex 25.8094 25.8094 1
      vertex 24.7487 31.8198 1
    endloop
  endfacet
  facet normal 0 0 1
    outer loop
      vertex 12.7808 5.70969 1
      vertex 31.8198 24.7487 1
      vertex 26.0852 24.0678 1
    endloop
  endfacet
  facet normal 0 0 1
    outer loop
      vertex 12.7808 5.70969 1
      vertex 24.5141 23.2672 1
      vertex 23.2672 24.5141 1
    endloop
  endfacet
  facet normal 0 0 1
    outer loop
      vertex 12.7808 5.70969 1
      vertex 26.0852 24.0678 1
      vertex 24.5141 23.2672 1
    endloop
  endfacet
  facet normal 0 0 1
    outer loop
      vertex 25.8094 25.8094 1
      vertex 26.0852 24.0678 1
      vertex 31.8198 24.7487 1
    endloop
  endfacet
  facet normal 0.743145 0.669131 0
    outer loop
      vertex 11.3262 8.22899 1
      vertex 9.36783 10.404 1
      vertex 9.36783 10.404 5
    endloop
  endfacet
  facet normal 0.743145 0.669131 0
    outer loop
      vertex 11.3262 8.22899 5
      vertex 11.3262 8.22899 1
      vertex 9.36783 10.404 5
    endloop
  endfacet
  facet normal 0.587785 0.809017 0
    outer loop
      vertex 7 12.1244 1
      vertex 7 12.1244 5
      vertex 9.36783 10.404 1
    endloop
  endfacet
  facet normal 0.587785 0.809017 0
    outer loop
      vertex 9.36783 10.404 1
      vertex 7 12.1244 5
      vertex 9.36783 10.404 5
    endloop
  endfacet
  facet normal 0 1 0
    outer loop
      vertex -1.4634 13.9233 1.95511
      vertex -1.4634 13.9233 5
      vertex 3.0916e-15 13.9233 2.8
    endloop
  endfacet
  facet normal 0 1 0
    outer loop
      vertex 3.0916e-15 13.9233 2.8
      vertex -1.4634 13.9233 5
      vertex 1.4634 13.9233 5
    endloop
  endfacet
  facet normal 0 1 0
    outer loop
      vertex 3.0916e-15 13.9233 2.8
      vertex 1.4634 13.9233 5
      vertex 1.4634 13.9233 1.95511
    endloop
  endfacet
  facet normal -0.5 3.03319e-16 -0.866025
    outer loop
      vertex 1.4634 13.9233 1.95511
      vertex 1.55885 13.903 1.9
      vertex 3.0916e-15 13.9233 2.8
    endloop
  endfacet
  facet normal -0.5 3.03319e-16 -0.866025
    outer loop
      vertex 3.0916e-15 13.9233 2.8
      vertex 1.55885 13.903 1.9
      vertex 1.55885 8.75 1.9
    endloop
  endfacet
  facet normal -0.5 3.03319e-16 -0.866025
    outer loop
      vertex 3.0916e-15 13.9233 2.8
      vertex 1.55885 8.75 1.9
      vertex 1.94289e-15 8.75 2.8
    endloop
  endfacet
  facet normal -1 2.22045e-16 0
    outer loop
      vertex 1.55885 13.903 1.9
      vertex 1.55885 13.903 0.1
      vertex 1.55885 8.75 1.9
    endloop
  endfacet
  facet normal -1 2.22045e-16 0
    outer loop
      vertex 1.55885 8.75 1.9
      vertex 1.55885 13.903 0.1
      vertex 1.55885 8.75 0.1
    endloop
  endfacet
  facet normal -0.5 -8.1274e-17 0.866025
    outer loop
      vertex 1.55885 8.75 0.1
      vertex 1.55885 13.903 0.1
      vertex 1.4634 13.9233 0.0448931
    endloop
  endfacet
  facet normal -0.5 -8.1274e-17 0.866025
    outer loop
      vertex 1.94289e-15 8.75 -0.8
      vertex 1.55885 8.75 0.1
      vertex 3.0916e-15 13.9233 -0.8
    endloop
  endfacet
  facet normal -0.5 -8.1274e-17 0.866025
    outer loop
      vertex 3.0916e-15 13.9233 -0.8
      vertex 1.55885 8.75 0.1
      vertex 1.4634 13.9233 0.0448931
    endloop
  endfacet
  facet normal 0.5 -3.03319e-16 0.866025
    outer loop
      vertex 1.94289e-15 8.75 -0.8
      vertex 3.0916e-15 13.9233 -0.8
      vertex -1.4634 13.9233 0.0448931
    endloop
  endfacet
  facet normal 0.5 -3.03319e-16 0.866025
    outer loop
      vertex -1.55885 8.75 0.1
      vertex 1.94289e-15 8.75 -0.8
      vertex -1.55885 13.903 0.1
    endloop
  endfacet
  facet normal 0.5 -3.03319e-16 0.866025
    outer loop
      vertex -1.55885 13.903 0.1
      vertex 1.94289e-15 8.75 -0.8
      vertex -1.4634 13.9233 0.0448931
    endloop
  endfacet
  facet normal 1 -2.22045e-16 0
    outer loop
      vertex -1.55885 13.903 0.1
      vertex -1.55885 13.903 1.9
      vertex -1.55885 8.75 1.9
    endloop
  endfacet
  facet normal 1 -2.22045e-16 0
    outer loop
      vertex -1.55885 8.75 0.1
      vertex -1.55885 13.903 0.1
      vertex -1.55885 8.75 1.9
    endloop
  endfacet
  facet normal 0.5 8.1274e-17 -0.866025
    outer loop
      vertex -1.4634 13.9233 1.95511
      vertex 3.0916e-15 13.9233 2.8
      vertex -1.55885 13.903 1.9
    endloop
  endfacet
  facet normal 0.5 8.1274e-17 -0.866025
    outer loop
      vertex -1.55885 13.903 1.9
      vertex 3.0916e-15 13.9233 2.8
      vertex 1.94289e-15 8.75 2.8
    endloop
  endfacet
  facet normal 0.5 8.1274e-17 -0.866025
    outer loop
      vertex -1.55885 13.903 1.9
      vertex 1.94289e-15 8.75 2.8
      vertex -1.55885 8.75 1.9
    endloop
  endfacet
  facet normal 0 -1 0
    outer loop
      vertex 6.33531e-16 2.85317 2.8
      vertex 0.927051 2.85317 2.26477
      vertex 0.927051 2.85317 5
    endloop
  endfacet
  facet normal 0 -1 0
    outer loop
      vertex -0.927051 2.85317 2.26477
      vertex 6.33531e-16 2.85317 2.8
      vertex -0.927051 2.85317 5
    endloop
  endfacet
  facet normal 0 -1 0
    outer loop
      vertex -0.927051 2.85317 5
      vertex 6.33531e-16 2.85317 2.8
      vertex 0.927051 2.85317 5
    endloop
  endfacet
  facet normal 0.5 8.1274e-17 -0.866025
    outer loop
      vertex 1.16573e-15 5.25 2.8
      vertex 6.33531e-16 2.85317 2.8
      vertex -1.55885 5.25 1.9
    endloop
  endfacet
  facet normal 0.5 8.1274e-17 -0.866025
    outer loop
      vertex -1.55885 5.25 1.9
      vertex 6.33531e-16 2.85317 2.8
      vertex -0.927051 2.85317 2.26477
    endloop
  endfacet
  facet normal 0.5 8.1274e-17 -0.866025
    outer loop
      vertex -1.55885 5.25 1.9
      vertex -0.927051 2.85317 2.26477
      vertex -1.55885 2.39414 1.9
    endloop
  endfacet
  facet normal 1 -2.22045e-16 0
    outer loop
      vertex -1.55885 5.25 0.1
      vertex -1.55885 5.25 1.9
      vertex -1.55885 2.39414 1.9
    endloop
  endfacet
  facet normal 1 -2.22045e-16 0
    outer loop
      vertex -1.55885 2.39414 0.1
      vertex -1.55885 5.25 0.1
      vertex -1.55885 2.39414 1.9
    endloop
  endfacet
  facet normal 0.5 -3.03319e-16 0.866025
    outer loop
      vertex -0.927051 2.85317 -0.264767
      vertex 6.33531e-16 2.85317 -0.8
      vertex 1.16573e-15 5.25 -0.8
    endloop
  endfacet
  facet normal 0.5 -3.03319e-16 0.866025
    outer loop
      vertex -1.55885 2.39414 0.1
      vertex -0.927051 2.85317 -0.264767
      vertex -1.55885 5.25 0.1
    endloop
  endfacet
  facet normal 0.5 -3.03319e-16 0.866025
    outer loop
      vertex -1.55885 5.25 0.1
      vertex -0.927051 2.85317 -0.264767
      vertex 1.16573e-15 5.25 -0.8
    endloop
  endfacet
  facet normal -0.5 -8.1274e-17 0.866025
    outer loop
      vertex 0.927051 2.85317 -0.264767
      vertex 1.55885 2.39414 0.1
      vertex 1.55885 5.25 0.1
    endloop
  endfacet
  facet normal -0.5 -8.1274e-17 0.866025
    outer loop
      vertex 6.33531e-16 2.85317 -0.8
      vertex 0.927051 2.85317 -0.264767
      vertex 1.16573e-15 5.25 -0.8
    endloop
  endfacet
  facet normal -0.5 -8.1274e-17 0.866025
    outer loop
      vertex 1.16573e-15 5.25 -0.8
      vertex 0.927051 2.85317 -0.264767
      vertex 1.55885 5.25 0.1
    endloop
  endfacet
  facet normal -1 2.22045e-16 0
    outer loop
      vertex 1.55885 5.25 1.9
      vertex 1.55885 5.25 0.1
      vertex 1.55885 2.39414 1.9
    endloop
  endfacet
  facet normal -1 2.22045e-16 0
    outer loop
      vertex 1.55885 2.39414 1.9
      vertex 1.55885 5.25 0.1
      vertex 1.55885 2.39414 0.1
    endloop
  endfacet
  facet normal -0.5 3.03319e-16 -0.866025
    outer loop
      vertex 1.55885 5.25 1.9
      vertex 1.55885 2.39414 1.9
      vertex 1.16573e-15 5.25 2.8
    endloop
  endfacet
  facet normal -0.5 3.03319e-16 -0.866025
    outer loop
      vertex 1.16573e-15 5.25 2.8
      vertex 1.55885 2.39414 1.9
      vertex 0.927051 2.85317 2.26477
    endloop
  endfacet
  facet normal -0.5 3.03319e-16 -0.866025
    outer loop
      vertex 1.16573e-15 5.25 2.8
      vertex 0.927051 2.85317 2.26477
      vertex 6.33531e-16 2.85317 2.8
    endloop
  endfacet
  facet normal 1.92296e-16 -0.5 -0.866025
    outer loop
      vertex 5.25 0 2.8
      vertex 3 0 2.8
      vertex 5.25 1.55885 1.9
    endloop
  endfacet
  facet normal 1.92296e-16 -0.5 -0.866025
    outer loop
      vertex 5.25 1.55885 1.9
      vertex 3 0 2.8
      vertex 2.4935 1.55885 1.9
    endloop
  endfacet
  facet normal 1.92296e-16 0.5 -0.866025
    outer loop
      vertex 5.25 0 2.8
      vertex 5.25 -1.55885 1.9
      vertex 3 0 2.8
    endloop
  endfacet
  facet normal 1.92296e-16 0.5 -0.866025
    outer loop
      vertex 3 0 2.8
      vertex 5.25 -1.55885 1.9
      vertex 2.4935 -1.55885 1.9
    endloop
  endfacet
  facet normal 0 -1 0
    outer loop
      vertex 5.25 1.55885 0.1
      vertex 5.25 1.55885 1.9
      vertex 2.4935 1.55885 1.9
    endloop
  endfacet
  facet normal 0 -1 0
    outer loop
      vertex 2.4935 1.55885 0.1
      vertex 5.25 1.55885 0.1
      vertex 2.4935 1.55885 1.9
    endloop
  endfacet
  facet normal -1.92296e-16 -0.5 0.866025
    outer loop
      vertex 3 0 -0.8
      vertex 5.25 0 -0.8
      vertex 5.25 1.55885 0.1
    endloop
  endfacet
  facet normal -1.92296e-16 -0.5 0.866025
    outer loop
      vertex 2.4935 1.55885 0.1
      vertex 3 0 -0.8
      vertex 5.25 1.55885 0.1
    endloop
  endfacet
  facet normal -1.92296e-16 0.5 0.866025
    outer loop
      vertex 5.25 -1.55885 0.1
      vertex 5.25 0 -0.8
      vertex 3 0 -0.8
    endloop
  endfacet
  facet normal -1.92296e-16 0.5 0.866025
    outer loop
      vertex 2.4935 -1.55885 0.1
      vertex 5.25 -1.55885 0.1
      vertex 3 0 -0.8
    endloop
  endfacet
  facet normal 0 1 0
    outer loop
      vertex 5.25 -1.55885 1.9
      vertex 5.25 -1.55885 0.1
      vertex 2.4935 -1.55885 1.9
    endloop
  endfacet
  facet normal 0 1 0
    outer loop
      vertex 2.4935 -1.55885 1.9
      vertex 5.25 -1.55885 0.1
      vertex 2.4935 -1.55885 0.1
    endloop
  endfacet
  facet normal 2.22045e-16 1 0
    outer loop
      vertex -1.55885 5.25 1.9
      vertex -3.5 5.25 5
      vertex 1.16573e-15 5.25 2.8
    endloop
  endfacet
  facet normal 2.22045e-16 1 0
    outer loop
      vertex -1.55885 5.25 0.1
      vertex 3.5 5.25 -4
      vertex -3.5 5.25 -4
    endloop
  endfacet
  facet normal 2.22045e-16 1 0
    outer loop
      vertex 1.16573e-15 5.25 -0.8
      vertex 3.5 5.25 -4
      vertex -1.55885 5.25 0.1
    endloop
  endfacet
  facet normal 2.22045e-16 1 0
    outer loop
      vertex -3.5 5.25 5
      vertex -1.55885 5.25 0.1
      vertex -3.5 5.25 -4
    endloop
  endfacet
  facet normal 2.22045e-16 1 0
    outer loop
      vertex 1.55885 5.25 0.1
      vertex 3.5 5.25 -4
      vertex 1.16573e-15 5.25 -0.8
    endloop
  endfacet
  facet normal 2.22045e-16 1 0
    outer loop
      vertex 3.5 5.25 5
      vertex 3.5 5.25 -4
      vertex 1.55885 5.25 0.1
    endloop
  endfacet
  facet normal 2.22045e-16 1 0
    outer loop
      vertex 3.5 5.25 5
      vertex 1.55885 5.25 0.1
      vertex 1.55885 5.25 1.9
    endloop
  endfacet
  facet normal 2.22045e-16 1 0
    outer loop
      vertex 3.5 5.25 5
      vertex 1.55885 5.25 1.9
      vertex -3.5 5.25 5
    endloop
  endfacet
  facet normal 2.22045e-16 1 0
    outer loop
      vertex 1.55885 5.25 1.9
      vertex 1.16573e-15 5.25 2.8
      vertex -3.5 5.25 5
    endloop
  endfacet
  facet normal 2.22045e-16 1 0
    outer loop
      vertex -1.55885 5.25 0.1
      vertex -3.5 5.25 5
      vertex -1.55885 5.25 1.9
    endloop
  endfacet
  facet normal 1 -2.22045e-16 0
    outer loop
      vertex -3.5 8.75 -4
      vertex -3.5 8.75 5
      vertex -3.5 5.25 5
    endloop
  endfacet
  facet normal 1 -2.22045e-16 0
    outer loop
      vertex -3.5 5.25 -4
      vertex -3.5 8.75 -4
      vertex -3.5 5.25 5
    endloop
  endfacet
  facet normal -1 2.22045e-16 0
    outer loop
      vertex 3.5 8.75 5
      vertex 3.5 8.75 -4
      vertex 3.5 5.25 5
    endloop
  endfacet
  facet normal -1 2.22045e-16 0
    outer loop
      vertex 3.5 5.25 5
      vertex 3.5 8.75 -4
      vertex 3.5 5.25 -4
    endloop
  endfacet
  facet normal -2.22045e-16 -1 0
    outer loop
      vertex 1.94289e-15 8.75 2.8
      vertex 3.5 8.75 5
      vertex -3.5 8.75 5
    endloop
  endfacet
  facet normal -2.22045e-16 -1 0
    outer loop
      vertex -3.5 8.75 -4
      vertex -1.55885 8.75 1.9
      vertex -3.5 8.75 5
    endloop
  endfacet
  facet normal -2.22045e-16 -1 0
    outer loop
      vertex 1.55885 8.75 1.9
      vertex 3.5 8.75 5
      vertex 1.94289e-15 8.75 2.8
    endloop
  endfacet
  facet normal -2.22045e-16 -1 0
    outer loop
      vertex 3.5 8.75 -4
      vertex 3.5 8.75 5
      vertex 1.55885 8.75 1.9
    endloop
  endfacet
  facet normal -2.22045e-16 -1 0
    outer loop
      vertex 3.5 8.75 -4
      vertex 1.55885 8.75 1.9
      vertex 1.55885 8.75 0.1
    endloop
  endfacet
  facet normal -2.22045e-16 -1 0
    outer loop
      vertex -3.5 8.75 -4
      vertex 3.5 8.75 -4
      vertex 1.94289e-15 8.75 -0.8
    endloop
  endfacet
  facet normal -2.22045e-16 -1 0
    outer loop
      vertex -3.5 8.75 -4
      vertex -1.55885 8.75 0.1
      vertex -1.55885 8.75 1.9
    endloop
  endfacet
  facet normal -2.22045e-16 -1 0
    outer loop
      vertex -3.5 8.75 -4
      vertex 1.94289e-15 8.75 -0.8
      vertex -1.55885 8.75 0.1
    endloop
  endfacet
  facet normal -2.22045e-16 -1 0
    outer loop
      vertex -1.55885 8.75 1.9
      vertex 1.94289e-15 8.75 2.8
      vertex -3.5 8.75 5
    endloop
  endfacet
  facet normal -2.22045e-16 -1 0
    outer loop
      vertex 1.55885 8.75 0.1
      vertex 1.94289e-15 8.75 -0.8
      vertex 3.5 8.75 -4
    endloop
  endfacet
  facet normal 1 0 0
    outer loop
      vertex 5.25 0 2.8
      vertex 5.25 3.5 5
      vertex 5.25 -3.5 5
    endloop
  endfacet
  facet normal 1 0 0
    outer loop
      vertex 5.25 -3.5 -4
      vertex 5.25 -1.55885 1.9
      vertex 5.25 -3.5 5
    endloop
  endfacet
  facet normal 1 0 0
    outer loop
      vertex 5.25 1.55885 1.9
      vertex 5.25 3.5 5
      vertex 5.25 0 2.8
    endloop
  endfacet
  facet normal 1 0 0
    outer loop
      vertex 5.25 3.5 -4
      vertex 5.25 3.5 5
      vertex 5.25 1.55885 1.9
    endloop
  endfacet
  facet normal 1 0 0
    outer loop
      vertex 5.25 3.5 -4
      vertex 5.25 1.55885 1.9
      vertex 5.25 1.55885 0.1
    endloop
  endfacet
  facet normal 1 0 0
    outer loop
      vertex 5.25 -3.5 -4
      vertex 5.25 3.5 -4
      vertex 5.25 0 -0.8
    endloop
  endfacet
  facet normal 1 0 0
    outer loop
      vertex 5.25 -3.5 -4
      vertex 5.25 -1.55885 0.1
      vertex 5.25 -1.55885 1.9
    endloop
  endfacet
  facet normal 1 0 0
    outer loop
      vertex 5.25 -3.5 -4
      vertex 5.25 0 -0.8
      vertex 5.25 -1.55885 0.1
    endloop
  endfacet
  facet normal 1 0 0
    outer loop
      vertex 5.25 -1.55885 1.9
      vertex 5.25 0 2.8
      vertex 5.25 -3.5 5
    endloop
  endfacet
  facet normal 1 0 0
    outer loop
      vertex 5.25 1.55885 0.1
      vertex 5.25 0 -0.8
      vertex 5.25 3.5 -4
    endloop
  endfacet
  facet normal 0 1 0
    outer loop
      vertex 8.75 -3.5 5
      vertex 8.75 -3.5 -4
      vertex 5.25 -3.5 5
    endloop
  endfacet
  facet normal 0 1 0
    outer loop
      vertex 5.25 -3.5 5
      vertex 8.75 -3.5 -4
      vertex 5.25 -3.5 -4
    endloop
  endfacet
  facet normal -1 0 0
    outer loop
      vertex 8.75 -1.55885 1.9
      vertex 8.75 -3.5 5
      vertex 8.75 0 2.8
    endloop
  endfacet
  facet normal -1 0 0
    outer loop
      vertex 8.75 -1.55885 0.1
      vertex 8.75 3.5 -4
      vertex 8.75 -3.5 -4
    endloop
  endfacet
  facet normal -1 0 0
    outer loop
      vertex 8.75 0 -0.8
      vertex 8.75 3.5 -4
      vertex 8.75 -1.55885 0.1
    endloop
  endfacet
  facet normal -1 0 0
    outer loop
      vertex 8.75 -3.5 5
      vertex 8.75 -1.55885 0.1
      vertex 8.75 -3.5 -4
    endloop
  endfacet
  facet normal -1 0 0
    outer loop
      vertex 8.75 1.55885 0.1
      vertex 8.75 3.5 -4
      vertex 8.75 0 -0.8
    endloop
  endfacet
  facet normal -1 0 0
    outer loop
      vertex 8.75 3.5 5
      vertex 8.75 3.5 -4
      vertex 8.75 1.55885 0.1
    endloop
  endfacet
  facet normal -1 0 0
    outer loop
      vertex 8.75 3.5 5
      vertex 8.75 1.55885 0.1
      vertex 8.75 1.55885 1.9
    endloop
  endfacet
  facet normal -1 0 0
    outer loop
      vertex 8.75 3.5 5
      vertex 8.75 1.55885 1.9
      vertex 8.75 -3.5 5
    endloop
  endfacet
  facet normal -1 0 0
    outer loop
      vertex 8.75 1.55885 1.9
      vertex 8.75 0 2.8
      vertex 8.75 -3.5 5
    endloop
  endfacet
  facet normal -1 0 0
    outer loop
      vertex 8.75 -1.55885 0.1
      vertex 8.75 -3.5 5
      vertex 8.75 -1.55885 1.9
    endloop
  endfacet
  facet normal 0 -1 0
    outer loop
      vertex 8.75 3.5 -4
      vertex 8.75 3.5 5
      vertex 5.25 3.5 5
    endloop
  endfacet
  facet normal 0 -1 0
    outer loop
      vertex 5.25 3.5 -4
      vertex 8.75 3.5 -4
      vertex 5.25 3.5 5
    endloop
  endfacet
  facet normal 0 0 1
    outer loop
      vertex 3.5 5.25 -4
      vertex 3.5 8.75 -4
      vertex -3.5 8.75 -4
    endloop
  endfacet
  facet normal 0 0 1
    outer loop
      vertex -3.5 5.25 -4
      vertex 3.5 5.25 -4
      vertex -3.5 8.75 -4
    endloop
  endfacet
  facet normal 0 0 1
    outer loop
      vertex 8.75 -3.5 -4
      vertex 8.75 3.5 -4
      vertex 5.25 3.5 -4
    endloop
  endfacet
  facet normal 0 0 1
    outer loop
      vertex 5.25 -3.5 -4
      vertex 8.75 -3.5 -4
      vertex 5.25 3.5 -4
    endloop
  endfacet
endsolid OpenSCAD_Model
